<?xml version="1.0" encoding="utf-8"?>
<!-- Generator: Adobe Illustrator 25.2.1, SVG Export Plug-In . SVG Version: 6.00 Build 0)  -->
<svg version="1.1" id="Layer_1" xmlns="http://www.w3.org/2000/svg" xmlns:xlink="http://www.w3.org/1999/xlink" x="0px" y="0px"
	 viewBox="0 0 3000 3000" style="enable-background:new 0 0 3000 3000;" xml:space="preserve">
<style type="text/css">
	.st0{fill:url(#SVGID_1_);}
	.st1{fill:url(#SVGID_2_);}
	.st2{fill:url(#SVGID_3_);}
	.st3{fill:url(#SVGID_4_);}
	.st4{fill:url(#SVGID_5_);}
	.st5{fill:url(#SVGID_6_);}
	.st6{opacity:0.3;fill:url(#SVGID_7_);}
	.st7{opacity:0.3;fill:url(#SVGID_8_);}
</style>
<g>
	<g>
		<g>
			<linearGradient id="SVGID_1_" gradientUnits="userSpaceOnUse" x1="1499.9999" y1="66.3346" x2="1499.9999" y2="2265.3584">
				<stop  offset="0" style="stop-color:#3BD0D2;stop-opacity:0.3"/>
				<stop  offset="1" style="stop-color:#049FB0"/>
			</linearGradient>
			<path class="st0" d="M1500,1206.76c-423.81,0-767.38,425.38-767.38,778.3c0,352.93,343.57,476.54,767.38,476.54
				c51.74,0,102.28-1.86,151.15-5.74c-40.77-40.11-8.87-133.36,227.76-167.68c67.61-9.81,108.55-135.18,108.55-135.18l-65.54-52.57
				c-14.63-101.45-76.32-220.05-275.82-202.77c1.59-58.72-9.18-108.51-36.87-146.1c0,0-29.83,170.23-223.93,292.2
				c-171.91,108.03-405.56-3-502.58-123.16c-16.22-20.09-9.94-50.04,12.77-62.33l225.25-121.87c11.04-5.97,18.87-16.53,21.38-28.83
				l20.6-101.04c2.62-12.85,11-23.74,22.75-29.55c51.58-25.48,198.57-95.26,291.32-110.81c-13.52-48.64-11.97-104.45,0-165.22
				c69.64,181.6,644.9,376.28,684.09,704.57c18.26,153-39.83,280.02-197.18,386.01c184.51-70.37,303.68-198.66,303.68-406.49
				C2267.38,1632.14,1923.81,1206.76,1500,1206.76z M1798.27,2047.44c16.02,0,29.01,12.99,29.01,29.01s-12.99,29.01-29.01,29.01
				c-16.02,0-29.01-12.99-29.01-29.01S1782.25,2047.44,1798.27,2047.44z M1280.24,1494.53c-8.76-47.41-5.9-100.35,5.33-157.29
				c14.6,38.15,50.78,76.74,99.72,116.66C1350.25,1465.84,1313.88,1480.25,1280.24,1494.53z"/>
			<linearGradient id="SVGID_2_" gradientUnits="userSpaceOnUse" x1="1195.8262" y1="66.3346" x2="1195.8262" y2="2265.3584">
				<stop  offset="0" style="stop-color:#3BD0D2;stop-opacity:0.3"/>
				<stop  offset="1" style="stop-color:#049FB0"/>
			</linearGradient>
			<path class="st1" d="M1253.88,1115.56c120.26-24.33,191.75-172.5,159.69-330.94c-32.06-158.44-155.54-267.15-275.8-242.82
				c-120.26,24.34-191.75,172.5-159.69,330.94C1010.14,1031.18,1133.62,1139.89,1253.88,1115.56z"/>
			<linearGradient id="SVGID_3_" gradientUnits="userSpaceOnUse" x1="721.7067" y1="66.3346" x2="721.7067" y2="2265.3584">
				<stop  offset="0" style="stop-color:#3BD0D2;stop-opacity:0.3"/>
				<stop  offset="1" style="stop-color:#049FB0"/>
			</linearGradient>
			<path class="st2" d="M807.59,1407.06c99.75-36,142.16-171.73,94.73-303.15c-47.43-131.42-166.75-208.77-266.5-172.77
				c-99.75,36-142.16,171.72-94.73,303.15C588.53,1365.71,707.84,1443.06,807.59,1407.06z"/>
			<linearGradient id="SVGID_4_" gradientUnits="userSpaceOnUse" x1="1804.1736" y1="66.3346" x2="1804.1736" y2="2265.3584">
				<stop  offset="0" style="stop-color:#3BD0D2;stop-opacity:0.3"/>
				<stop  offset="1" style="stop-color:#049FB0"/>
			</linearGradient>
			<path class="st3" d="M1746.12,1115.56c120.26,24.33,243.73-84.38,275.8-242.82c32.06-158.44-39.43-306.61-159.69-330.94
				c-120.26-24.34-243.74,84.38-275.8,242.82C1554.37,943.06,1625.86,1091.22,1746.12,1115.56z"/>
			<linearGradient id="SVGID_5_" gradientUnits="userSpaceOnUse" x1="2278.2932" y1="66.3346" x2="2278.2932" y2="2265.3584">
				<stop  offset="0" style="stop-color:#3BD0D2;stop-opacity:0.3"/>
				<stop  offset="1" style="stop-color:#049FB0"/>
			</linearGradient>
			<path class="st4" d="M2364.18,931.14c-99.75-36-219.06,41.35-266.5,172.77c-47.43,131.42-5.02,267.14,94.73,303.15
				c99.75,36,219.06-41.35,266.5-172.77C2506.34,1102.87,2463.93,967.14,2364.18,931.14z"/>
			<linearGradient id="SVGID_6_" gradientUnits="userSpaceOnUse" x1="1304.1116" y1="66.3346" x2="1304.1116" y2="2265.3584">
				<stop  offset="0" style="stop-color:#3BD0D2;stop-opacity:0.3"/>
				<stop  offset="1" style="stop-color:#049FB0"/>
			</linearGradient>
			<path class="st5" d="M1267.13,1662.54c0,20.42,16.56,36.98,36.98,36.98c20.42,0,36.98-16.56,36.98-36.98
				c0-20.42-16.56-36.98-36.98-36.98C1283.69,1625.56,1267.13,1642.12,1267.13,1662.54z"/>
		</g>
		<linearGradient id="SVGID_7_" gradientUnits="userSpaceOnUse" x1="882.7174" y1="1919.6011" x2="1609.2355" y2="1919.6011">
			<stop  offset="0" style="stop-color:#3BD0D2;stop-opacity:0.3"/>
			<stop  offset="1" style="stop-color:#049FB0"/>
		</linearGradient>
		<path class="st6" d="M882.72,1920.62c97.02,120.15,330.67,231.19,502.59,123.16c194.1-121.97,223.93-292.2,223.93-292.2
			C1524.65,1938.45,1259.37,2102.23,882.72,1920.62z"/>
		<linearGradient id="SVGID_8_" gradientUnits="userSpaceOnUse" x1="1487.1593" y1="1856.9061" x2="2164.1125" y2="1856.9061">
			<stop  offset="0" style="stop-color:#3BD0D2;stop-opacity:0.3"/>
			<stop  offset="1" style="stop-color:#049FB0"/>
		</linearGradient>
		<path class="st7" d="M2160.87,2005.55c-37.66-315.51-570.47-507.6-673.71-683.29c105,303.3,913.09,534.65,476.54,1069.3
			c0,0,0,0,0,0C2121.05,2285.57,2179.14,2158.55,2160.87,2005.55z"/>
	</g>
</g>
</svg>
