<svg width="350" height="139" viewBox="0 0 350 139" fill="none" xmlns="http://www.w3.org/2000/svg">
<g clip-path="url(#clip0_1896_124497)">
<path d="M0 36C0 24.8174 0 19.2261 1.82689 14.8156C4.26275 8.93492 8.93492 4.26275 14.8156 1.82689C19.2261 0 24.8174 0 36 0H314C325.183 0 330.774 0 335.184 1.82689C341.065 4.26275 345.737 8.93492 348.173 14.8156C350 19.2261 350 24.8174 350 36V103C350 114.183 350 119.774 348.173 124.184C345.737 130.065 341.065 134.737 335.184 137.173C330.774 139 325.183 139 314 139H36C24.8174 139 19.2261 139 14.8156 137.173C8.93492 134.737 4.26275 130.065 1.82689 124.184C0 119.774 0 114.183 0 103V36Z" fill="white" fill-opacity="0.06"/>
<g opacity="0.8">
<g opacity="0.6" filter="url(#filter0_f_1896_124497)">
<path d="M210.044 110.673C211.553 109.275 213.062 107.878 214.571 106.481C241.733 81.3294 268.895 56.1779 296.057 31.0264C297.565 29.6291 299.074 28.2318 300.583 26.8345C298.35 24.6007 296.116 22.367 293.882 20.1332C292.485 21.6422 291.088 23.1512 289.69 24.6602C264.539 51.8221 239.387 78.9839 214.236 106.146C212.838 107.655 211.441 109.164 210.044 110.673Z" fill="#FFD600"/>
</g>
<g opacity="0.6" filter="url(#filter1_f_1896_124497)">
<path d="M240.368 110.673C241.877 109.275 243.386 107.878 244.895 106.481C272.057 81.3294 299.219 56.1779 326.381 31.0264C327.89 29.6291 329.399 28.2318 330.908 26.8345C328.674 24.6007 326.44 22.367 324.206 20.1332C322.809 21.6422 321.412 23.1512 320.014 24.6602C294.863 51.8221 269.712 78.9839 244.56 106.146C243.163 107.655 241.765 109.164 240.368 110.673Z" fill="#FFD600"/>
</g>
<g opacity="0.6" filter="url(#filter2_f_1896_124497)">
<path d="M210.044 80.3466C211.553 78.9493 213.062 77.552 214.571 76.1547C241.733 51.0032 268.895 25.8517 296.057 0.700229C297.565 -0.69707 299.074 -2.09439 300.583 -3.49169C298.35 -5.72545 296.116 -7.95922 293.882 -10.193C292.485 -8.68399 291.088 -7.17499 289.69 -5.666C264.539 21.4959 239.387 48.6578 214.236 75.8196C212.838 77.3286 211.441 78.8376 210.044 80.3466Z" fill="#FFD600"/>
</g>
<g filter="url(#filter3_f_1896_124497)">
<ellipse cx="298.462" cy="6.67488" rx="76.1331" ry="40.9852" transform="rotate(27.6964 298.462 6.67488)" fill="#FFD600"/>
<path d="M317.071 -28.7758C335.575 -19.0626 350.165 -6.25058 358.813 6.56629C367.485 19.4194 370.053 32.0559 365.033 41.6201C360.012 51.1842 348.153 56.2473 332.649 56.4094C317.188 56.571 298.357 51.8378 279.853 42.1246C261.35 32.4115 246.759 19.6007 238.112 6.78389C229.439 -6.06932 226.87 -18.7061 231.891 -28.2704C236.911 -37.8346 248.771 -42.8971 264.276 -43.0592C279.736 -43.2208 298.567 -38.4889 317.071 -28.7758Z" stroke="#FFD600" stroke-width="1.89541"/>
</g>
<rect opacity="0.5" x="274.608" y="65.4547" width="0.473853" height="0.473853" rx="0.236927" fill="white" stroke="#FFD600" stroke-width="0.473853"/>
<rect opacity="0.7" x="249.967" y="55.9772" width="0.473853" height="0.473853" rx="0.236927" fill="white" stroke="#FFD600" stroke-width="0.473853"/>
<rect opacity="0.7" x="225.003" y="80.1432" width="0.473853" height="0.473853" rx="0.236927" fill="white" stroke="#FFD600" stroke-width="0.473853"/>
<rect opacity="0.7" x="221.213" y="46.026" width="0.473853" height="0.473853" rx="0.236927" fill="white" stroke="#FFD600" stroke-width="0.473853"/>
<rect opacity="0.7" x="251.866" y="86.3033" width="0.473853" height="0.473853" rx="0.236927" fill="white" stroke="#FFD600" stroke-width="0.473853"/>
<rect opacity="0.7" x="266.706" y="44.1305" width="0.473853" height="0.473853" rx="0.236927" fill="white" stroke="#FFD600" stroke-width="0.473853"/>
<rect opacity="0.7" x="278.401" y="93.8844" width="0.473853" height="0.473853" rx="0.236927" fill="white" stroke="#FFD600" stroke-width="0.473853"/>
</g>
<g opacity="0.5">
<path d="M402 86.6669C396.607 66.5409 388.6 47.2086 378.182 29.1641L171.702 148.375L402 86.6669Z" fill="url(#paint0_linear_1896_124497)"/>
<path d="M359.835 1.94718C347.038 -14.4962 332.141 -29.1912 315.524 -41.7622L171.677 148.377L359.835 1.94718Z" fill="url(#paint1_linear_1896_124497)"/>
<path d="M288.071 -59.7047C269.886 -69.8754 250.446 -77.6185 230.248 -82.736L171.689 148.383L288.071 -59.7047Z" fill="url(#paint2_linear_1896_124497)"/>
<path d="M197.963 -88.5793C177.254 -90.8755 156.333 -90.4472 135.736 -87.3053L171.688 148.39L197.963 -88.5793Z" fill="url(#paint3_linear_1896_124497)"/>
<path d="M103.713 -80.1707C83.7412 -74.2307 64.6346 -65.6984 46.8812 -54.7918L171.683 148.357L103.713 -80.1707Z" fill="url(#paint4_linear_1896_124497)"/>
<path d="M20.1992 -35.7114C4.11126 -22.4708 -10.1717 -7.17835 -22.2846 9.77502L171.709 148.38L20.1992 -35.7114Z" fill="url(#paint5_linear_1896_124497)"/>
<path d="M-39.4745 37.7045C-49.1451 56.1603 -56.3548 75.8042 -60.9192 96.134L171.711 148.364L-39.4745 37.7045Z" fill="url(#paint6_linear_1896_124497)"/>
<path d="M-65.8998 128.582C-67.6299 149.346 -66.6308 170.248 -62.9278 190.752L171.699 148.38L-65.8998 128.582Z" fill="url(#paint7_linear_1896_124497)"/>
</g>
<path d="M29.342 19.242L26.514 29H25.086L22.818 21.146L20.466 29L19.052 29.014L16.322 19.242H17.68L19.808 27.516L22.16 19.242H23.588L25.828 27.488L27.97 19.242H29.342ZM32.0102 20.278V23.54H35.5662V24.59H32.0102V27.95H35.9862V29H30.7362V19.228H35.9862V20.278H32.0102ZM39.1879 20.278V23.54H42.7439V24.59H39.1879V27.95H43.1639V29H37.9139V19.228H43.1639V20.278H39.1879ZM50.3837 29L46.3657 24.548V29H45.0917V19.242H46.3657V23.764L50.3977 19.242H52.0077L47.5837 24.128L52.0497 29H50.3837ZM54.7465 27.964H58.1625V29H53.4725V19.242H54.7465V27.964ZM66.3475 19.242L63.1695 25.318V29H61.8955V25.318L58.7035 19.242H60.1175L62.5255 24.184L64.9335 19.242H66.3475ZM70.9477 24.114C70.9477 23.162 71.1624 22.308 71.5917 21.552C72.021 20.7867 72.6044 20.1893 73.3417 19.76C74.0884 19.3307 74.9144 19.116 75.8197 19.116C76.8837 19.116 77.8124 19.3727 78.6057 19.886C79.399 20.3993 79.9777 21.1273 80.3417 22.07H78.8157C78.545 21.482 78.153 21.0293 77.6397 20.712C77.1357 20.3947 76.529 20.236 75.8197 20.236C75.1384 20.236 74.527 20.3947 73.9857 20.712C73.4444 21.0293 73.0197 21.482 72.7117 22.07C72.4037 22.6487 72.2497 23.33 72.2497 24.114C72.2497 24.8887 72.4037 25.57 72.7117 26.158C73.0197 26.7367 73.4444 27.1847 73.9857 27.502C74.527 27.8193 75.1384 27.978 75.8197 27.978C76.529 27.978 77.1357 27.824 77.6397 27.516C78.153 27.1987 78.545 26.746 78.8157 26.158H80.3417C79.9777 27.0913 79.399 27.8147 78.6057 28.328C77.8124 28.832 76.8837 29.084 75.8197 29.084C74.9144 29.084 74.0884 28.874 73.3417 28.454C72.6044 28.0247 72.021 27.432 71.5917 26.676C71.1624 25.92 70.9477 25.066 70.9477 24.114ZM89.7562 19.242V29H88.4822V24.576H83.5122V29H82.2382V19.242H83.5122V23.526H88.4822V19.242H89.7562ZM97.6995 26.83H93.4435L92.6595 29H91.3155L94.8435 19.298H96.3135L99.8275 29H98.4835L97.6995 26.83ZM97.3355 25.794L95.5715 20.866L93.8075 25.794H97.3355ZM102.639 27.964H106.055V29H101.365V19.242H102.639V27.964ZM108.682 27.964H112.098V29H107.408V19.242H108.682V27.964ZM114.725 20.278V23.54H118.281V24.59H114.725V27.95H118.701V29H113.451V19.228H118.701V20.278H114.725ZM128.301 29H127.027L121.903 21.23V29H120.629V19.228H121.903L127.027 26.984V19.228H128.301V29ZM137.865 22.07C137.594 21.5007 137.202 21.062 136.689 20.754C136.175 20.4367 135.578 20.278 134.897 20.278C134.215 20.278 133.599 20.4367 133.049 20.754C132.507 21.062 132.078 21.51 131.761 22.098C131.453 22.6767 131.299 23.3487 131.299 24.114C131.299 24.8793 131.453 25.5513 131.761 26.13C132.078 26.7087 132.507 27.1567 133.049 27.474C133.599 27.782 134.215 27.936 134.897 27.936C135.849 27.936 136.633 27.6513 137.249 27.082C137.865 26.5127 138.224 25.7427 138.327 24.772H134.435V23.736H139.685V24.716C139.61 25.5187 139.358 26.256 138.929 26.928C138.499 27.5907 137.935 28.118 137.235 28.51C136.535 28.8927 135.755 29.084 134.897 29.084C133.991 29.084 133.165 28.874 132.419 28.454C131.672 28.0247 131.079 27.432 130.641 26.676C130.211 25.92 129.997 25.066 129.997 24.114C129.997 23.162 130.211 22.308 130.641 21.552C131.079 20.7867 131.672 20.194 132.419 19.774C133.165 19.3447 133.991 19.13 134.897 19.13C135.933 19.13 136.847 19.3867 137.641 19.9C138.443 20.4133 139.027 21.1367 139.391 22.07H137.865ZM142.643 20.278V23.54H146.199V24.59H142.643V27.95H146.619V29H141.369V19.228H146.619V20.278H142.643Z" fill="white"/>
<path d="M26.978 55.272H21.214L20.29 58H16.352L21.94 42.556H26.296L31.884 58H27.902L26.978 55.272ZM26.01 52.368L24.096 46.714L22.204 52.368H26.01ZM37.3467 47.77C37.7867 47.0953 38.3367 46.5673 38.9967 46.186C39.6567 45.79 40.39 45.592 41.1967 45.592V49.574H40.1627C39.224 49.574 38.52 49.7793 38.0507 50.19C37.5814 50.586 37.3467 51.29 37.3467 52.302V58H33.5847V45.724H37.3467V47.77ZM54.5669 51.664C54.5669 52.016 54.5449 52.3827 54.5009 52.764H45.9869C46.0455 53.5267 46.2875 54.1133 46.7129 54.524C47.1529 54.92 47.6882 55.118 48.3189 55.118C49.2575 55.118 49.9102 54.722 50.2769 53.93H54.2809C54.0755 54.7367 53.7015 55.4627 53.1589 56.108C52.6309 56.7533 51.9635 57.2593 51.1569 57.626C50.3502 57.9927 49.4482 58.176 48.4509 58.176C47.2482 58.176 46.1775 57.9193 45.2389 57.406C44.3002 56.8927 43.5669 56.1593 43.0389 55.206C42.5109 54.2527 42.2469 53.138 42.2469 51.862C42.2469 50.586 42.5035 49.4713 43.0169 48.518C43.5449 47.5647 44.2782 46.8313 45.2169 46.318C46.1555 45.8047 47.2335 45.548 48.4509 45.548C49.6389 45.548 50.6949 45.7973 51.6189 46.296C52.5429 46.7947 53.2615 47.506 53.7749 48.43C54.3029 49.354 54.5669 50.432 54.5669 51.664ZM50.7169 50.674C50.7169 50.0287 50.4969 49.5153 50.0569 49.134C49.6169 48.7527 49.0669 48.562 48.4069 48.562C47.7762 48.562 47.2409 48.7453 46.8009 49.112C46.3755 49.4787 46.1115 49.9993 46.0089 50.674H50.7169ZM74.4576 42.556L69.1116 52.896V58H65.3496V52.896L60.0036 42.556H64.2716L67.2636 49.024L70.2336 42.556H74.4576ZM81.5614 58.176C80.3587 58.176 79.2734 57.9193 78.3054 57.406C77.352 56.8927 76.5967 56.1593 76.0394 55.206C75.4967 54.2527 75.2254 53.138 75.2254 51.862C75.2254 50.6007 75.504 49.4933 76.0614 48.54C76.6187 47.572 77.3814 46.8313 78.3494 46.318C79.3174 45.8047 80.4027 45.548 81.6054 45.548C82.808 45.548 83.8934 45.8047 84.8614 46.318C85.8294 46.8313 86.592 47.572 87.1494 48.54C87.7067 49.4933 87.9854 50.6007 87.9854 51.862C87.9854 53.1233 87.6994 54.238 87.1274 55.206C86.57 56.1593 85.8 56.8927 84.8174 57.406C83.8494 57.9193 82.764 58.176 81.5614 58.176ZM81.5614 54.92C82.28 54.92 82.8887 54.656 83.3874 54.128C83.9007 53.6 84.1574 52.8447 84.1574 51.862C84.1574 50.8793 83.908 50.124 83.4094 49.596C82.9254 49.068 82.324 48.804 81.6054 48.804C80.872 48.804 80.2634 49.068 79.7794 49.596C79.2954 50.1093 79.0534 50.8647 79.0534 51.862C79.0534 52.8447 79.288 53.6 79.7574 54.128C80.2414 54.656 80.8427 54.92 81.5614 54.92ZM102.103 45.724V58H98.3412V56.328C97.9599 56.8707 97.4392 57.3107 96.7792 57.648C96.1339 57.9707 95.4152 58.132 94.6232 58.132C93.6845 58.132 92.8559 57.9267 92.1372 57.516C91.4185 57.0907 90.8612 56.482 90.4652 55.69C90.0692 54.898 89.8712 53.9667 89.8712 52.896V45.724H93.6112V52.39C93.6112 53.2113 93.8239 53.8493 94.2492 54.304C94.6745 54.7587 95.2465 54.986 95.9652 54.986C96.6985 54.986 97.2779 54.7587 97.7032 54.304C98.1285 53.8493 98.3412 53.2113 98.3412 52.39V45.724H102.103ZM120.578 42.556V45.57H116.486V58H112.724V45.57H108.632V42.556H120.578ZM130.012 45.592C131.42 45.592 132.549 46.0613 133.4 47C134.25 47.924 134.676 49.2 134.676 50.828V58H130.936V51.334C130.936 50.5127 130.723 49.8747 130.298 49.42C129.872 48.9653 129.3 48.738 128.582 48.738C127.863 48.738 127.291 48.9653 126.866 49.42C126.44 49.8747 126.228 50.5127 126.228 51.334V58H122.466V41.72H126.228V47.374C126.609 46.8313 127.13 46.3987 127.79 46.076C128.45 45.7533 129.19 45.592 130.012 45.592ZM148.862 51.664C148.862 52.016 148.84 52.3827 148.796 52.764H140.282C140.34 53.5267 140.582 54.1133 141.008 54.524C141.448 54.92 141.983 55.118 142.614 55.118C143.552 55.118 144.205 54.722 144.572 53.93H148.576C148.37 54.7367 147.996 55.4627 147.454 56.108C146.926 56.7533 146.258 57.2593 145.452 57.626C144.645 57.9927 143.743 58.176 142.746 58.176C141.543 58.176 140.472 57.9193 139.534 57.406C138.595 56.8927 137.862 56.1593 137.334 55.206C136.806 54.2527 136.542 53.138 136.542 51.862C136.542 50.586 136.798 49.4713 137.312 48.518C137.84 47.5647 138.573 46.8313 139.512 46.318C140.45 45.8047 141.528 45.548 142.746 45.548C143.934 45.548 144.99 45.7973 145.914 46.296C146.838 46.7947 147.556 47.506 148.07 48.43C148.598 49.354 148.862 50.432 148.862 51.664ZM145.012 50.674C145.012 50.0287 144.792 49.5153 144.352 49.134C143.912 48.7527 143.362 48.562 142.702 48.562C142.071 48.562 141.536 48.7453 141.096 49.112C140.67 49.4787 140.406 49.9993 140.304 50.674H145.012ZM164.859 50.08C165.753 50.2707 166.472 50.718 167.015 51.422C167.557 52.1113 167.829 52.9033 167.829 53.798C167.829 55.0887 167.374 56.1153 166.465 56.878C165.57 57.626 164.316 58 162.703 58H155.509V42.556H162.461C164.03 42.556 165.255 42.9153 166.135 43.634C167.029 44.3527 167.477 45.328 167.477 46.56C167.477 47.4693 167.235 48.2247 166.751 48.826C166.281 49.4273 165.651 49.8453 164.859 50.08ZM159.271 48.804H161.735C162.351 48.804 162.82 48.672 163.143 48.408C163.48 48.1293 163.649 47.726 163.649 47.198C163.649 46.67 163.48 46.2667 163.143 45.988C162.82 45.7093 162.351 45.57 161.735 45.57H159.271V48.804ZM162.043 54.964C162.673 54.964 163.157 54.8247 163.495 54.546C163.847 54.2527 164.023 53.8347 164.023 53.292C164.023 52.7493 163.839 52.324 163.473 52.016C163.121 51.708 162.629 51.554 161.999 51.554H159.271V54.964H162.043ZM181.582 51.664C181.582 52.016 181.56 52.3827 181.516 52.764H173.002C173.061 53.5267 173.303 54.1133 173.728 54.524C174.168 54.92 174.704 55.118 175.334 55.118C176.273 55.118 176.926 54.722 177.292 53.93H181.296C181.091 54.7367 180.717 55.4627 180.174 56.108C179.646 56.7533 178.979 57.2593 178.172 57.626C177.366 57.9927 176.464 58.176 175.466 58.176C174.264 58.176 173.193 57.9193 172.254 57.406C171.316 56.8927 170.582 56.1593 170.054 55.206C169.526 54.2527 169.262 53.138 169.262 51.862C169.262 50.586 169.519 49.4713 170.032 48.518C170.56 47.5647 171.294 46.8313 172.232 46.318C173.171 45.8047 174.249 45.548 175.466 45.548C176.654 45.548 177.71 45.7973 178.634 46.296C179.558 46.7947 180.277 47.506 180.79 48.43C181.318 49.354 181.582 50.432 181.582 51.664ZM177.732 50.674C177.732 50.0287 177.512 49.5153 177.072 49.134C176.632 48.7527 176.082 48.562 175.422 48.562C174.792 48.562 174.256 48.7453 173.816 49.112C173.391 49.4787 173.127 49.9993 173.024 50.674H177.732ZM188.561 58.176C187.49 58.176 186.537 57.9927 185.701 57.626C184.865 57.2593 184.205 56.7607 183.721 56.13C183.237 55.4847 182.966 54.766 182.907 53.974H186.625C186.669 54.3993 186.867 54.744 187.219 55.008C187.571 55.272 188.004 55.404 188.517 55.404C188.986 55.404 189.346 55.316 189.595 55.14C189.859 54.9493 189.991 54.7073 189.991 54.414C189.991 54.062 189.808 53.8053 189.441 53.644C189.074 53.468 188.48 53.2773 187.659 53.072C186.779 52.8667 186.046 52.654 185.459 52.434C184.872 52.1993 184.366 51.84 183.941 51.356C183.516 50.8573 183.303 50.19 183.303 49.354C183.303 48.65 183.494 48.012 183.875 47.44C184.271 46.8533 184.843 46.3913 185.591 46.054C186.354 45.7167 187.256 45.548 188.297 45.548C189.837 45.548 191.047 45.9293 191.927 46.692C192.822 47.4547 193.335 48.4667 193.467 49.728H189.991C189.932 49.3027 189.742 48.9653 189.419 48.716C189.111 48.4667 188.7 48.342 188.187 48.342C187.747 48.342 187.41 48.43 187.175 48.606C186.94 48.7673 186.823 48.9947 186.823 49.288C186.823 49.64 187.006 49.904 187.373 50.08C187.754 50.256 188.341 50.432 189.133 50.608C190.042 50.8427 190.783 51.0773 191.355 51.312C191.927 51.532 192.426 51.8987 192.851 52.412C193.291 52.9107 193.518 53.5853 193.533 54.436C193.533 55.1547 193.328 55.8 192.917 56.372C192.521 56.9293 191.942 57.3693 191.179 57.692C190.431 58.0147 189.558 58.176 188.561 58.176ZM202.677 54.81V58H200.763C199.399 58 198.335 57.67 197.573 57.01C196.81 56.3353 196.429 55.2427 196.429 53.732V48.848H194.933V45.724H196.429V42.732H200.191V45.724H202.655V48.848H200.191V53.776C200.191 54.1427 200.279 54.4067 200.455 54.568C200.631 54.7293 200.924 54.81 201.335 54.81H202.677ZM209.282 41.698C210.852 41.698 212.106 42.1087 213.044 42.93C213.998 43.7513 214.474 44.91 214.474 46.406C214.474 47.7847 214.02 48.8627 213.11 49.64C212.216 50.4027 211.028 50.7913 209.546 50.806L209.436 52.456H206.136L206.026 48.364H207.346C208.476 48.364 209.334 48.2247 209.92 47.946C210.522 47.6673 210.822 47.1613 210.822 46.428C210.822 45.9147 210.683 45.5113 210.404 45.218C210.126 44.9247 209.737 44.778 209.238 44.778C208.71 44.778 208.3 44.932 208.006 45.24C207.713 45.5333 207.566 45.9367 207.566 46.45H204.024C203.995 45.5553 204.178 44.7487 204.574 44.03C204.985 43.3113 205.586 42.7467 206.378 42.336C207.185 41.9107 208.153 41.698 209.282 41.698ZM207.83 58.176C207.17 58.176 206.628 57.9853 206.202 57.604C205.792 57.208 205.586 56.724 205.586 56.152C205.586 55.5653 205.792 55.074 206.202 54.678C206.628 54.282 207.17 54.084 207.83 54.084C208.476 54.084 209.004 54.282 209.414 54.678C209.84 55.074 210.052 55.5653 210.052 56.152C210.052 56.724 209.84 57.208 209.414 57.604C209.004 57.9853 208.476 58.176 207.83 58.176Z" fill="white"/>
<path d="M24.806 91.56L24.274 94.08H26.206V95.2H24.036L23.434 98H22.216L22.818 95.2H19.878L19.276 98H18.058L18.66 95.2H16.462V94.08H18.898L19.43 91.56H17.26V90.44H19.668L20.27 87.64H21.488L20.886 90.44H23.826L24.428 87.64H25.646L25.044 90.44H26.99V91.56H24.806ZM23.588 91.56H20.648L20.116 94.08H23.056L23.588 91.56ZM34.2678 90.286C34.0625 89.25 33.4231 88.732 32.3498 88.732C31.5191 88.732 30.8985 89.054 30.4878 89.698C30.0771 90.3327 29.8765 91.3827 29.8858 92.848C30.1005 92.3627 30.4551 91.9847 30.9498 91.714C31.4538 91.434 32.0138 91.294 32.6298 91.294C33.5911 91.294 34.3565 91.5927 34.9258 92.19C35.5045 92.7873 35.7938 93.6133 35.7938 94.668C35.7938 95.3027 35.6678 95.872 35.4158 96.376C35.1731 96.88 34.7998 97.2813 34.2958 97.58C33.8011 97.8787 33.1991 98.028 32.4898 98.028C31.5285 98.028 30.7771 97.8133 30.2358 97.384C29.6945 96.9547 29.3165 96.362 29.1018 95.606C28.8871 94.85 28.7798 93.9167 28.7798 92.806C28.7798 89.3807 29.9745 87.668 32.3638 87.668C33.2785 87.668 33.9971 87.9153 34.5198 88.41C35.0425 88.9047 35.3505 89.53 35.4438 90.286H34.2678ZM32.3638 92.372C31.9625 92.372 31.5845 92.456 31.2298 92.624C30.8751 92.7827 30.5858 93.03 30.3618 93.366C30.1471 93.6927 30.0398 94.094 30.0398 94.57C30.0398 95.2793 30.2451 95.858 30.6558 96.306C31.0665 96.7447 31.6545 96.964 32.4198 96.964C33.0731 96.964 33.5911 96.7633 33.9738 96.362C34.3658 95.9513 34.5618 95.4007 34.5618 94.71C34.5618 93.982 34.3751 93.4127 34.0018 93.002C33.6285 92.582 33.0825 92.372 32.3638 92.372ZM44.801 98.126C44.0823 98.126 43.429 97.9627 42.841 97.636C42.2623 97.3093 41.805 96.8473 41.469 96.25C41.1423 95.6433 40.979 94.9433 40.979 94.15C40.979 93.366 41.147 92.6753 41.483 92.078C41.8283 91.4713 42.295 91.0093 42.883 90.692C43.471 90.3653 44.129 90.202 44.857 90.202C45.585 90.202 46.243 90.3653 46.831 90.692C47.419 91.0093 47.881 91.4667 48.217 92.064C48.5623 92.6613 48.735 93.3567 48.735 94.15C48.735 94.9433 48.5576 95.6433 48.203 96.25C47.8576 96.8473 47.3863 97.3093 46.789 97.636C46.1916 97.9627 45.529 98.126 44.801 98.126ZM44.801 97.006C45.2583 97.006 45.6876 96.8987 46.089 96.684C46.4903 96.4693 46.8123 96.1473 47.055 95.718C47.307 95.2887 47.433 94.766 47.433 94.15C47.433 93.534 47.3116 93.0113 47.069 92.582C46.8263 92.1527 46.509 91.8353 46.117 91.63C45.725 91.4153 45.3003 91.308 44.843 91.308C44.3763 91.308 43.947 91.4153 43.555 91.63C43.1723 91.8353 42.8643 92.1527 42.631 92.582C42.3976 93.0113 42.281 93.534 42.281 94.15C42.281 94.7753 42.393 95.3027 42.617 95.732C42.8503 96.1613 43.1583 96.4833 43.541 96.698C43.9236 96.9033 44.3436 97.006 44.801 97.006ZM53.532 91.378H51.922V98H50.648V91.378H49.654V90.328H50.648V89.782C50.648 88.9233 50.8674 88.298 51.306 87.906C51.754 87.5047 52.468 87.304 53.448 87.304V88.368C52.888 88.368 52.4914 88.48 52.258 88.704C52.034 88.9187 51.922 89.278 51.922 89.782V90.328H53.532V91.378ZM58.3859 96.978C59.5712 96.026 60.4999 95.2467 61.1719 94.64C61.8439 94.024 62.4085 93.3847 62.8659 92.722C63.3325 92.05 63.5659 91.392 63.5659 90.748C63.5659 90.1413 63.4165 89.6653 63.1179 89.32C62.8285 88.9653 62.3572 88.788 61.7039 88.788C61.0692 88.788 60.5745 88.9887 60.2199 89.39C59.8745 89.782 59.6879 90.3093 59.6599 90.972H58.4279C58.4652 89.9267 58.7825 89.1193 59.3799 88.55C59.9772 87.9807 60.7472 87.696 61.6899 87.696C62.6512 87.696 63.4119 87.962 63.9719 88.494C64.5412 89.026 64.8259 89.7587 64.8259 90.692C64.8259 91.4667 64.5925 92.2227 64.1259 92.96C63.6685 93.688 63.1459 94.332 62.5579 94.892C61.9699 95.4427 61.2185 96.0867 60.3039 96.824H65.1199V97.888H58.3859V96.978ZM66.2846 95.746V94.78L71.1986 87.976H72.7246V94.64H74.1246V95.746H72.7246V98H71.4646V95.746H66.2846ZM71.5206 89.306L67.7546 94.64H71.5206V89.306ZM81.6273 88.872L77.7353 98H76.4473L80.3953 88.998H74.9913V87.906H81.6273V88.872ZM88.2563 91.742C88.5083 91.3033 88.8816 90.9393 89.3763 90.65C89.8803 90.3513 90.4636 90.202 91.1263 90.202C91.8076 90.202 92.4236 90.3653 92.9743 90.692C93.5343 91.0187 93.973 91.4807 94.2903 92.078C94.6076 92.666 94.7663 93.352 94.7663 94.136C94.7663 94.9107 94.6076 95.6013 94.2903 96.208C93.973 96.8147 93.5343 97.286 92.9743 97.622C92.4236 97.958 91.8076 98.126 91.1263 98.126C90.473 98.126 89.8943 97.9813 89.3903 97.692C88.8956 97.3933 88.5176 97.0247 88.2563 96.586V101.64H86.9823V90.328H88.2563V91.742ZM93.4643 94.136C93.4643 93.5573 93.3476 93.0533 93.1143 92.624C92.881 92.1947 92.5636 91.868 92.1623 91.644C91.7703 91.42 91.3363 91.308 90.8603 91.308C90.3936 91.308 89.9596 91.4247 89.5583 91.658C89.1663 91.882 88.849 92.2133 88.6063 92.652C88.373 93.0813 88.2563 93.5807 88.2563 94.15C88.2563 94.7287 88.373 95.2373 88.6063 95.676C88.849 96.1053 89.1663 96.4367 89.5583 96.67C89.9596 96.894 90.3936 97.006 90.8603 97.006C91.3363 97.006 91.7703 96.894 92.1623 96.67C92.5636 96.4367 92.881 96.1053 93.1143 95.676C93.3476 95.2373 93.4643 94.724 93.4643 94.136ZM103.443 93.87C103.443 94.1127 103.429 94.3693 103.401 94.64H97.2692C97.3159 95.396 97.5726 95.9887 98.0392 96.418C98.5152 96.838 99.0892 97.048 99.7612 97.048C100.312 97.048 100.769 96.922 101.133 96.67C101.507 96.4087 101.768 96.0633 101.917 95.634H103.289C103.084 96.3713 102.673 96.9733 102.057 97.44C101.441 97.8973 100.676 98.126 99.7612 98.126C99.0332 98.126 98.3799 97.9627 97.8012 97.636C97.2319 97.3093 96.7839 96.8473 96.4572 96.25C96.1306 95.6433 95.9672 94.9433 95.9672 94.15C95.9672 93.3567 96.1259 92.6613 96.4432 92.064C96.7606 91.4667 97.2039 91.0093 97.7732 90.692C98.3519 90.3653 99.0146 90.202 99.7612 90.202C100.489 90.202 101.133 90.3607 101.693 90.678C102.253 90.9953 102.683 91.434 102.981 91.994C103.289 92.5447 103.443 93.17 103.443 93.87ZM102.127 93.604C102.127 93.1187 102.02 92.7033 101.805 92.358C101.591 92.0033 101.297 91.7373 100.923 91.56C100.559 91.3733 100.153 91.28 99.7052 91.28C99.0612 91.28 98.5106 91.4853 98.0532 91.896C97.6052 92.3067 97.3486 92.876 97.2832 93.604H102.127ZM106.679 91.378V95.9C106.679 96.2733 106.758 96.5393 106.917 96.698C107.076 96.8473 107.351 96.922 107.743 96.922H108.681V98H107.533C106.824 98 106.292 97.8367 105.937 97.51C105.582 97.1833 105.405 96.6467 105.405 95.9V91.378H104.411V90.328H105.405V88.396H106.679V90.328H108.681V91.378H106.679ZM115.231 91.742C115.483 91.3033 115.856 90.9393 116.351 90.65C116.855 90.3513 117.438 90.202 118.101 90.202C118.782 90.202 119.398 90.3653 119.949 90.692C120.509 91.0187 120.948 91.4807 121.265 92.078C121.582 92.666 121.741 93.352 121.741 94.136C121.741 94.9107 121.582 95.6013 121.265 96.208C120.948 96.8147 120.509 97.286 119.949 97.622C119.398 97.958 118.782 98.126 118.101 98.126C117.448 98.126 116.869 97.9813 116.365 97.692C115.87 97.3933 115.492 97.0247 115.231 96.586V101.64H113.957V90.328H115.231V91.742ZM120.439 94.136C120.439 93.5573 120.322 93.0533 120.089 92.624C119.856 92.1947 119.538 91.868 119.137 91.644C118.745 91.42 118.311 91.308 117.835 91.308C117.368 91.308 116.934 91.4247 116.533 91.658C116.141 91.882 115.824 92.2133 115.581 92.652C115.348 93.0813 115.231 93.5807 115.231 94.15C115.231 94.7287 115.348 95.2373 115.581 95.676C115.824 96.1053 116.141 96.4367 116.533 96.67C116.934 96.894 117.368 97.006 117.835 97.006C118.311 97.006 118.745 96.894 119.137 96.67C119.538 96.4367 119.856 96.1053 120.089 95.676C120.322 95.2373 120.439 94.724 120.439 94.136ZM122.942 94.136C122.942 93.352 123.101 92.666 123.418 92.078C123.735 91.4807 124.169 91.0187 124.72 90.692C125.28 90.3653 125.901 90.202 126.582 90.202C127.254 90.202 127.837 90.3467 128.332 90.636C128.827 90.9253 129.195 91.2893 129.438 91.728V90.328H130.726V98H129.438V96.572C129.186 97.02 128.808 97.3933 128.304 97.692C127.809 97.9813 127.231 98.126 126.568 98.126C125.887 98.126 125.271 97.958 124.72 97.622C124.169 97.286 123.735 96.8147 123.418 96.208C123.101 95.6013 122.942 94.9107 122.942 94.136ZM129.438 94.15C129.438 93.5713 129.321 93.0673 129.088 92.638C128.855 92.2087 128.537 91.882 128.136 91.658C127.744 91.4247 127.31 91.308 126.834 91.308C126.358 91.308 125.924 91.42 125.532 91.644C125.14 91.868 124.827 92.1947 124.594 92.624C124.361 93.0533 124.244 93.5573 124.244 94.136C124.244 94.724 124.361 95.2373 124.594 95.676C124.827 96.1053 125.14 96.4367 125.532 96.67C125.924 96.894 126.358 97.006 126.834 97.006C127.31 97.006 127.744 96.894 128.136 96.67C128.537 96.4367 128.855 96.1053 129.088 95.676C129.321 95.2373 129.438 94.7287 129.438 94.15ZM134.153 91.574C134.377 91.1353 134.694 90.7947 135.105 90.552C135.525 90.3093 136.033 90.188 136.631 90.188V91.504H136.295C134.867 91.504 134.153 92.2787 134.153 93.828V98H132.879V90.328H134.153V91.574ZM145.101 93.87C145.101 94.1127 145.087 94.3693 145.059 94.64H138.927C138.974 95.396 139.231 95.9887 139.697 96.418C140.173 96.838 140.747 97.048 141.419 97.048C141.97 97.048 142.427 96.922 142.791 96.67C143.165 96.4087 143.426 96.0633 143.575 95.634H144.947C144.742 96.3713 144.331 96.9733 143.715 97.44C143.099 97.8973 142.334 98.126 141.419 98.126C140.691 98.126 140.038 97.9627 139.459 97.636C138.89 97.3093 138.442 96.8473 138.115 96.25C137.789 95.6433 137.625 94.9433 137.625 94.15C137.625 93.3567 137.784 92.6613 138.101 92.064C138.419 91.4667 138.862 91.0093 139.431 90.692C140.01 90.3653 140.673 90.202 141.419 90.202C142.147 90.202 142.791 90.3607 143.351 90.678C143.911 90.9953 144.341 91.434 144.639 91.994C144.947 92.5447 145.101 93.17 145.101 93.87ZM143.785 93.604C143.785 93.1187 143.678 92.7033 143.463 92.358C143.249 92.0033 142.955 91.7373 142.581 91.56C142.217 91.3733 141.811 91.28 141.363 91.28C140.719 91.28 140.169 91.4853 139.711 91.896C139.263 92.3067 139.007 92.876 138.941 93.604H143.785ZM150.521 90.188C151.454 90.188 152.21 90.4727 152.789 91.042C153.368 91.602 153.657 92.414 153.657 93.478V98H152.397V93.66C152.397 92.8947 152.206 92.3113 151.823 91.91C151.44 91.4993 150.918 91.294 150.255 91.294C149.583 91.294 149.046 91.504 148.645 91.924C148.253 92.344 148.057 92.9553 148.057 93.758V98H146.783V90.328H148.057V91.42C148.309 91.028 148.65 90.7247 149.079 90.51C149.518 90.2953 149.998 90.188 150.521 90.188ZM157.292 91.378V95.9C157.292 96.2733 157.371 96.5393 157.53 96.698C157.689 96.8473 157.964 96.922 158.356 96.922H159.294V98H158.146C157.437 98 156.905 97.8367 156.55 97.51C156.195 97.1833 156.018 96.6467 156.018 95.9V91.378H155.024V90.328H156.018V88.396H157.292V90.328H159.294V91.378H157.292ZM163.554 98.126C162.966 98.126 162.438 98.028 161.972 97.832C161.505 97.6267 161.136 97.3467 160.866 96.992C160.595 96.628 160.446 96.2127 160.418 95.746H161.734C161.771 96.1287 161.948 96.4413 162.266 96.684C162.592 96.9267 163.017 97.048 163.54 97.048C164.025 97.048 164.408 96.9407 164.688 96.726C164.968 96.5113 165.108 96.2407 165.108 95.914C165.108 95.578 164.958 95.3307 164.66 95.172C164.361 95.004 163.899 94.8407 163.274 94.682C162.704 94.5327 162.238 94.3833 161.874 94.234C161.519 94.0753 161.211 93.8467 160.95 93.548C160.698 93.24 160.572 92.8387 160.572 92.344C160.572 91.952 160.688 91.5927 160.922 91.266C161.155 90.9393 161.486 90.6827 161.916 90.496C162.345 90.3 162.835 90.202 163.386 90.202C164.235 90.202 164.921 90.4167 165.444 90.846C165.966 91.2753 166.246 91.8633 166.284 92.61H165.01C164.982 92.2087 164.818 91.8867 164.52 91.644C164.23 91.4013 163.838 91.28 163.344 91.28C162.886 91.28 162.522 91.378 162.252 91.574C161.981 91.77 161.846 92.0267 161.846 92.344C161.846 92.596 161.925 92.806 162.084 92.974C162.252 93.1327 162.457 93.2633 162.7 93.366C162.952 93.4593 163.297 93.5667 163.736 93.688C164.286 93.8373 164.734 93.9867 165.08 94.136C165.425 94.276 165.719 94.4907 165.962 94.78C166.214 95.0693 166.344 95.4473 166.354 95.914C166.354 96.334 166.237 96.712 166.004 97.048C165.77 97.384 165.439 97.65 165.01 97.846C164.59 98.0327 164.104 98.126 163.554 98.126ZM171.409 94.136C171.409 93.352 171.567 92.666 171.885 92.078C172.202 91.4807 172.636 91.0187 173.187 90.692C173.747 90.3653 174.367 90.202 175.049 90.202C175.721 90.202 176.304 90.3467 176.799 90.636C177.293 90.9253 177.662 91.2893 177.905 91.728V90.328H179.193V98H177.905V96.572C177.653 97.02 177.275 97.3933 176.771 97.692C176.276 97.9813 175.697 98.126 175.035 98.126C174.353 98.126 173.737 97.958 173.187 97.622C172.636 97.286 172.202 96.8147 171.885 96.208C171.567 95.6013 171.409 94.9107 171.409 94.136ZM177.905 94.15C177.905 93.5713 177.788 93.0673 177.555 92.638C177.321 92.2087 177.004 91.882 176.603 91.658C176.211 91.4247 175.777 91.308 175.301 91.308C174.825 91.308 174.391 91.42 173.999 91.644C173.607 91.868 173.294 92.1947 173.061 92.624C172.827 93.0533 172.711 93.5573 172.711 94.136C172.711 94.724 172.827 95.2373 173.061 95.676C173.294 96.1053 173.607 96.4367 173.999 96.67C174.391 96.894 174.825 97.006 175.301 97.006C175.777 97.006 176.211 96.894 176.603 96.67C177.004 96.4367 177.321 96.1053 177.555 95.676C177.788 95.2373 177.905 94.7287 177.905 94.15ZM182.62 91.574C182.844 91.1353 183.161 90.7947 183.572 90.552C183.992 90.3093 184.5 90.188 185.098 90.188V91.504H184.762C183.334 91.504 182.62 92.2787 182.62 93.828V98H181.346V90.328H182.62V91.574ZM193.568 93.87C193.568 94.1127 193.554 94.3693 193.526 94.64H187.394C187.441 95.396 187.698 95.9887 188.164 96.418C188.64 96.838 189.214 97.048 189.886 97.048C190.437 97.048 190.894 96.922 191.258 96.67C191.632 96.4087 191.893 96.0633 192.042 95.634H193.414C193.209 96.3713 192.798 96.9733 192.182 97.44C191.566 97.8973 190.801 98.126 189.886 98.126C189.158 98.126 188.505 97.9627 187.926 97.636C187.357 97.3093 186.909 96.8473 186.582 96.25C186.256 95.6433 186.092 94.9433 186.092 94.15C186.092 93.3567 186.251 92.6613 186.568 92.064C186.886 91.4667 187.329 91.0093 187.898 90.692C188.477 90.3653 189.14 90.202 189.886 90.202C190.614 90.202 191.258 90.3607 191.818 90.678C192.378 90.9953 192.808 91.434 193.106 91.994C193.414 92.5447 193.568 93.17 193.568 93.87ZM192.252 93.604C192.252 93.1187 192.145 92.7033 191.93 92.358C191.716 92.0033 191.422 91.7373 191.048 91.56C190.684 91.3733 190.278 91.28 189.83 91.28C189.186 91.28 188.636 91.4853 188.178 91.896C187.73 92.3067 187.474 92.876 187.408 93.604H192.252ZM16.602 114.136C16.602 113.352 16.7607 112.666 17.078 112.078C17.3953 111.481 17.8293 111.019 18.38 110.692C18.94 110.365 19.5607 110.202 20.242 110.202C20.914 110.202 21.4973 110.347 21.992 110.636C22.4867 110.925 22.8553 111.289 23.098 111.728V110.328H24.386V118H23.098V116.572C22.846 117.02 22.468 117.393 21.964 117.692C21.4693 117.981 20.8907 118.126 20.228 118.126C19.5467 118.126 18.9307 117.958 18.38 117.622C17.8293 117.286 17.3953 116.815 17.078 116.208C16.7607 115.601 16.602 114.911 16.602 114.136ZM23.098 114.15C23.098 113.571 22.9813 113.067 22.748 112.638C22.5147 112.209 22.1973 111.882 21.796 111.658C21.404 111.425 20.97 111.308 20.494 111.308C20.018 111.308 19.584 111.42 19.192 111.644C18.8 111.868 18.4873 112.195 18.254 112.624C18.0207 113.053 17.904 113.557 17.904 114.136C17.904 114.724 18.0207 115.237 18.254 115.676C18.4873 116.105 18.8 116.437 19.192 116.67C19.584 116.894 20.018 117.006 20.494 117.006C20.97 117.006 21.404 116.894 21.796 116.67C22.1973 116.437 22.5147 116.105 22.748 115.676C22.9813 115.237 23.098 114.729 23.098 114.15ZM30.3469 110.188C30.9256 110.188 31.4483 110.314 31.9149 110.566C32.3816 110.809 32.7456 111.177 33.0069 111.672C33.2776 112.167 33.4129 112.769 33.4129 113.478V118H32.1529V113.66C32.1529 112.895 31.9616 112.311 31.5789 111.91C31.1963 111.499 30.6736 111.294 30.0109 111.294C29.3389 111.294 28.8023 111.504 28.4009 111.924C28.0089 112.344 27.8129 112.955 27.8129 113.758V118H26.5389V107.64H27.8129V111.42C28.0649 111.028 28.4103 110.725 28.8489 110.51C29.2969 110.295 29.7963 110.188 30.3469 110.188ZM42.494 113.87C42.494 114.113 42.48 114.369 42.452 114.64H36.32C36.3667 115.396 36.6233 115.989 37.09 116.418C37.566 116.838 38.14 117.048 38.812 117.048C39.3627 117.048 39.82 116.922 40.184 116.67C40.5573 116.409 40.8187 116.063 40.968 115.634H42.34C42.1347 116.371 41.724 116.973 41.108 117.44C40.492 117.897 39.7267 118.126 38.812 118.126C38.084 118.126 37.4307 117.963 36.852 117.636C36.2827 117.309 35.8347 116.847 35.508 116.25C35.1813 115.643 35.018 114.943 35.018 114.15C35.018 113.357 35.1767 112.661 35.494 112.064C35.8113 111.467 36.2547 111.009 36.824 110.692C37.4027 110.365 38.0653 110.202 38.812 110.202C39.54 110.202 40.184 110.361 40.744 110.678C41.304 110.995 41.7333 111.434 42.032 111.994C42.34 112.545 42.494 113.17 42.494 113.87ZM41.178 113.604C41.178 113.119 41.0707 112.703 40.856 112.358C40.6413 112.003 40.3473 111.737 39.974 111.56C39.61 111.373 39.204 111.28 38.756 111.28C38.112 111.28 37.5613 111.485 37.104 111.896C36.656 112.307 36.3993 112.876 36.334 113.604H41.178ZM43.6997 114.136C43.6997 113.352 43.8583 112.666 44.1757 112.078C44.493 111.481 44.927 111.019 45.4777 110.692C46.0377 110.365 46.6583 110.202 47.3397 110.202C48.0117 110.202 48.595 110.347 49.0897 110.636C49.5843 110.925 49.953 111.289 50.1957 111.728V110.328H51.4837V118H50.1957V116.572C49.9437 117.02 49.5657 117.393 49.0617 117.692C48.567 117.981 47.9883 118.126 47.3257 118.126C46.6443 118.126 46.0283 117.958 45.4777 117.622C44.927 117.286 44.493 116.815 44.1757 116.208C43.8583 115.601 43.6997 114.911 43.6997 114.136ZM50.1957 114.15C50.1957 113.571 50.079 113.067 49.8457 112.638C49.6123 112.209 49.295 111.882 48.8937 111.658C48.5017 111.425 48.0677 111.308 47.5917 111.308C47.1157 111.308 46.6817 111.42 46.2897 111.644C45.8977 111.868 45.585 112.195 45.3517 112.624C45.1183 113.053 45.0017 113.557 45.0017 114.136C45.0017 114.724 45.1183 115.237 45.3517 115.676C45.585 116.105 45.8977 116.437 46.2897 116.67C46.6817 116.894 47.1157 117.006 47.5917 117.006C48.0677 117.006 48.5017 116.894 48.8937 116.67C49.295 116.437 49.6123 116.105 49.8457 115.676C50.079 115.237 50.1957 114.729 50.1957 114.15ZM53.1606 114.136C53.1606 113.352 53.3193 112.666 53.6366 112.078C53.9539 111.481 54.3879 111.019 54.9386 110.692C55.4986 110.365 56.1239 110.202 56.8146 110.202C57.4119 110.202 57.9673 110.342 58.4806 110.622C58.9939 110.893 59.3859 111.252 59.6566 111.7V107.64H60.9446V118H59.6566V116.558C59.4046 117.015 59.0313 117.393 58.5366 117.692C58.0419 117.981 57.4633 118.126 56.8006 118.126C56.1193 118.126 55.4986 117.958 54.9386 117.622C54.3879 117.286 53.9539 116.815 53.6366 116.208C53.3193 115.601 53.1606 114.911 53.1606 114.136ZM59.6566 114.15C59.6566 113.571 59.5399 113.067 59.3066 112.638C59.0733 112.209 58.7559 111.882 58.3546 111.658C57.9626 111.425 57.5286 111.308 57.0526 111.308C56.5766 111.308 56.1426 111.42 55.7506 111.644C55.3586 111.868 55.0459 112.195 54.8126 112.624C54.5793 113.053 54.4626 113.557 54.4626 114.136C54.4626 114.724 54.5793 115.237 54.8126 115.676C55.0459 116.105 55.3586 116.437 55.7506 116.67C56.1426 116.894 56.5766 117.006 57.0526 117.006C57.5286 117.006 57.9626 116.894 58.3546 116.67C58.7559 116.437 59.0733 116.105 59.3066 115.676C59.5399 115.237 59.6566 114.729 59.6566 114.15ZM70.176 118.126C69.4573 118.126 68.804 117.963 68.216 117.636C67.6373 117.309 67.18 116.847 66.844 116.25C66.5173 115.643 66.354 114.943 66.354 114.15C66.354 113.366 66.522 112.675 66.858 112.078C67.2033 111.471 67.67 111.009 68.258 110.692C68.846 110.365 69.504 110.202 70.232 110.202C70.96 110.202 71.618 110.365 72.206 110.692C72.794 111.009 73.256 111.467 73.592 112.064C73.9373 112.661 74.11 113.357 74.11 114.15C74.11 114.943 73.9326 115.643 73.578 116.25C73.2326 116.847 72.7613 117.309 72.164 117.636C71.5666 117.963 70.904 118.126 70.176 118.126ZM70.176 117.006C70.6333 117.006 71.0626 116.899 71.464 116.684C71.8653 116.469 72.1873 116.147 72.43 115.718C72.682 115.289 72.808 114.766 72.808 114.15C72.808 113.534 72.6866 113.011 72.444 112.582C72.2013 112.153 71.884 111.835 71.492 111.63C71.1 111.415 70.6753 111.308 70.218 111.308C69.7513 111.308 69.322 111.415 68.93 111.63C68.5473 111.835 68.2393 112.153 68.006 112.582C67.7726 113.011 67.656 113.534 67.656 114.15C67.656 114.775 67.768 115.303 67.992 115.732C68.2253 116.161 68.5333 116.483 68.916 116.698C69.2986 116.903 69.7186 117.006 70.176 117.006ZM78.907 111.378H77.297V118H76.023V111.378H75.029V110.328H76.023V109.782C76.023 108.923 76.2424 108.298 76.681 107.906C77.129 107.505 77.843 107.304 78.823 107.304V108.368C78.263 108.368 77.8664 108.48 77.633 108.704C77.409 108.919 77.297 109.278 77.297 109.782V110.328H78.907V111.378ZM90.7329 110.328L86.1129 121.612H84.7969L86.3089 117.916L83.2149 110.328H84.6289L87.0369 116.544L89.4169 110.328H90.7329ZM95.3595 118.126C94.6409 118.126 93.9875 117.963 93.3995 117.636C92.8209 117.309 92.3635 116.847 92.0275 116.25C91.7009 115.643 91.5375 114.943 91.5375 114.15C91.5375 113.366 91.7055 112.675 92.0415 112.078C92.3869 111.471 92.8535 111.009 93.4415 110.692C94.0295 110.365 94.6875 110.202 95.4155 110.202C96.1435 110.202 96.8015 110.365 97.3895 110.692C97.9775 111.009 98.4395 111.467 98.7755 112.064C99.1209 112.661 99.2935 113.357 99.2935 114.15C99.2935 114.943 99.1162 115.643 98.7615 116.25C98.4162 116.847 97.9449 117.309 97.3475 117.636C96.7502 117.963 96.0875 118.126 95.3595 118.126ZM95.3595 117.006C95.8169 117.006 96.2462 116.899 96.6475 116.684C97.0489 116.469 97.3709 116.147 97.6135 115.718C97.8655 115.289 97.9915 114.766 97.9915 114.15C97.9915 113.534 97.8702 113.011 97.6275 112.582C97.3849 112.153 97.0675 111.835 96.6755 111.63C96.2835 111.415 95.8589 111.308 95.4015 111.308C94.9349 111.308 94.5055 111.415 94.1135 111.63C93.7309 111.835 93.4229 112.153 93.1895 112.582C92.9562 113.011 92.8395 113.534 92.8395 114.15C92.8395 114.775 92.9515 115.303 93.1755 115.732C93.4089 116.161 93.7169 116.483 94.0995 116.698C94.4822 116.903 94.9022 117.006 95.3595 117.006ZM107.773 110.328V118H106.499V116.866C106.256 117.258 105.915 117.566 105.477 117.79C105.047 118.005 104.571 118.112 104.049 118.112C103.451 118.112 102.915 117.991 102.439 117.748C101.963 117.496 101.585 117.123 101.305 116.628C101.034 116.133 100.899 115.531 100.899 114.822V110.328H102.159V114.654C102.159 115.41 102.35 115.993 102.733 116.404C103.115 116.805 103.638 117.006 104.301 117.006C104.982 117.006 105.519 116.796 105.911 116.376C106.303 115.956 106.499 115.345 106.499 114.542V110.328H107.773ZM112.578 118.98H126.578V104.98H112.578V118.98Z" fill="#A2A9A9"/>
</g>
<defs>
<filter id="filter0_f_1896_124497" x="198.671" y="8.76083" width="113.284" height="113.284" filterUnits="userSpaceOnUse" color-interpolation-filters="sRGB">
<feFlood flood-opacity="0" result="BackgroundImageFix"/>
<feBlend mode="normal" in="SourceGraphic" in2="BackgroundImageFix" result="shape"/>
<feGaussianBlur stdDeviation="5.68624" result="effect1_foregroundBlur_1896_124497"/>
</filter>
<filter id="filter1_f_1896_124497" x="228.996" y="8.76083" width="113.284" height="113.284" filterUnits="userSpaceOnUse" color-interpolation-filters="sRGB">
<feFlood flood-opacity="0" result="BackgroundImageFix"/>
<feBlend mode="normal" in="SourceGraphic" in2="BackgroundImageFix" result="shape"/>
<feGaussianBlur stdDeviation="5.68624" result="effect1_foregroundBlur_1896_124497"/>
</filter>
<filter id="filter2_f_1896_124497" x="198.671" y="-21.5653" width="113.284" height="113.284" filterUnits="userSpaceOnUse" color-interpolation-filters="sRGB">
<feFlood flood-opacity="0" result="BackgroundImageFix"/>
<feBlend mode="normal" in="SourceGraphic" in2="BackgroundImageFix" result="shape"/>
<feGaussianBlur stdDeviation="5.68624" result="effect1_foregroundBlur_1896_124497"/>
</filter>
<filter id="filter3_f_1896_124497" x="171.532" y="-100.873" width="253.86" height="215.096" filterUnits="userSpaceOnUse" color-interpolation-filters="sRGB">
<feFlood flood-opacity="0" result="BackgroundImageFix"/>
<feBlend mode="normal" in="SourceGraphic" in2="BackgroundImageFix" result="shape"/>
<feGaussianBlur stdDeviation="28.4312" result="effect1_foregroundBlur_1896_124497"/>
</filter>
<linearGradient id="paint0_linear_1896_124497" x1="163.717" y1="118.572" x2="394.014" y2="56.8642" gradientUnits="userSpaceOnUse">
<stop stop-color="#D19D00" stop-opacity="0"/>
<stop offset="1" stop-color="#D19D00" stop-opacity="0.3"/>
</linearGradient>
<linearGradient id="paint1_linear_1896_124497" x1="152.727" y1="124.027" x2="340.885" y2="-22.4022" gradientUnits="userSpaceOnUse">
<stop stop-color="#D19D00" stop-opacity="0"/>
<stop offset="1" stop-color="#D19D00" stop-opacity="0.3"/>
</linearGradient>
<linearGradient id="paint2_linear_1896_124497" x1="144.761" y1="133.322" x2="261.143" y2="-74.7655" gradientUnits="userSpaceOnUse">
<stop stop-color="#D19D00" stop-opacity="0"/>
<stop offset="1" stop-color="#D19D00" stop-opacity="0.3"/>
</linearGradient>
<linearGradient id="paint3_linear_1896_124497" x1="141.022" y1="144.99" x2="167.297" y2="-91.9796" gradientUnits="userSpaceOnUse">
<stop stop-color="#D19D00" stop-opacity="0"/>
<stop offset="1" stop-color="#D19D00" stop-opacity="0.3"/>
</linearGradient>
<linearGradient id="paint4_linear_1896_124497" x1="142.109" y1="157.153" x2="74.1388" y2="-71.3747" gradientUnits="userSpaceOnUse">
<stop stop-color="#D19D00" stop-opacity="0"/>
<stop offset="1" stop-color="#D19D00" stop-opacity="0.3"/>
</linearGradient>
<linearGradient id="paint5_linear_1896_124497" x1="147.886" y1="167.987" x2="-3.62395" y2="-16.1046" gradientUnits="userSpaceOnUse">
<stop stop-color="#D19D00" stop-opacity="0"/>
<stop offset="1" stop-color="#D19D00" stop-opacity="0.3"/>
</linearGradient>
<linearGradient id="paint6_linear_1896_124497" x1="157.391" y1="175.693" x2="-53.7948" y2="65.034" gradientUnits="userSpaceOnUse">
<stop stop-color="#D19D00" stop-opacity="0"/>
<stop offset="1" stop-color="#D19D00" stop-opacity="0.3"/>
</linearGradient>
<linearGradient id="paint7_linear_1896_124497" x1="169.137" y1="179.127" x2="-68.4618" y2="159.33" gradientUnits="userSpaceOnUse">
<stop stop-color="#D19D00" stop-opacity="0"/>
<stop offset="1" stop-color="#D19D00" stop-opacity="0.3"/>
</linearGradient>
<clipPath id="clip0_1896_124497">
<path d="M0 36C0 24.8174 0 19.2261 1.82689 14.8156C4.26275 8.93492 8.93492 4.26275 14.8156 1.82689C19.2261 0 24.8174 0 36 0H314C325.183 0 330.774 0 335.184 1.82689C341.065 4.26275 345.737 8.93492 348.173 14.8156C350 19.2261 350 24.8174 350 36V103C350 114.183 350 119.774 348.173 124.184C345.737 130.065 341.065 134.737 335.184 137.173C330.774 139 325.183 139 314 139H36C24.8174 139 19.2261 139 14.8156 137.173C8.93492 134.737 4.26275 130.065 1.82689 124.184C0 119.774 0 114.183 0 103V36Z" fill="white"/>
</clipPath>
</defs>
</svg>
