<svg width="342" height="90" viewBox="0 0 342 90" fill="none" xmlns="http://www.w3.org/2000/svg">
<g clip-path="url(#clip0_2098_213601)">
<path d="M0 24C0 16.5449 0 12.8174 1.21793 9.87706C2.84183 5.95662 5.95662 2.84183 9.87706 1.21793C12.8174 0 16.5449 0 24 0H318C325.455 0 329.183 0 332.123 1.21793C336.043 2.84183 339.158 5.95662 340.782 9.87706C342 12.8174 342 16.5449 342 24V66C342 73.4551 342 77.1826 340.782 80.1229C339.158 84.0434 336.043 87.1582 332.123 88.7821C329.183 90 325.455 90 318 90H24C16.5449 90 12.8174 90 9.87706 88.7821C5.95662 87.1582 2.84183 84.0434 1.21793 80.1229C0 77.1826 0 73.4551 0 66V24Z" fill="#E51D22" fill-opacity="0.04"/>
<g opacity="0.8">
<g opacity="0.6" filter="url(#filter0_f_2098_213601)">
<path d="M272.053 54.6834C272.938 53.8569 273.823 53.0304 274.709 52.2039C290.646 37.3271 306.584 22.4502 322.521 7.57338C323.407 6.7469 324.292 5.9204 325.178 5.09391C323.999 3.9154 322.821 2.73688 321.642 1.55837C320.816 2.44379 319.989 3.32921 319.163 4.21462C304.286 20.1521 289.409 36.0896 274.532 52.0272C273.706 52.9126 272.879 53.798 272.053 54.6834Z" fill="#E51D22"/>
</g>
<g opacity="0.6" filter="url(#filter1_f_2098_213601)">
<path d="M289.916 54.6834C290.801 53.8569 291.687 53.0304 292.572 52.2039C308.51 37.3271 324.447 22.4502 340.385 7.57338C341.27 6.7469 342.155 5.9204 343.041 5.09391C341.862 3.9154 340.684 2.73688 339.505 1.55837C338.679 2.44379 337.852 3.32921 337.026 4.21462C322.149 20.1521 307.272 36.0896 292.395 52.0272C291.569 52.9126 290.742 53.798 289.916 54.6834Z" fill="#E51D22"/>
</g>
<g opacity="0.6" filter="url(#filter2_f_2098_213601)">
<path d="M272.053 36.8201C272.938 35.9936 273.823 35.1671 274.709 34.3406C290.646 19.4638 306.584 4.58695 322.521 -10.2899C323.407 -11.1164 324.292 -11.9429 325.178 -12.7694C323.999 -13.9479 322.821 -15.1264 321.642 -16.3049C320.816 -15.4195 319.989 -14.5341 319.163 -13.6487C304.286 2.28885 289.409 18.2264 274.532 34.1639C273.706 35.0493 272.879 35.9347 272.053 36.8201Z" fill="#E51D22"/>
</g>
<g filter="url(#filter3_f_2098_213601)">
<ellipse cx="323.927" cy="-6.78105" rx="44.845" ry="24.1417" transform="rotate(27.6964 323.927 -6.78105)" fill="#E51D22"/>
<path d="M334.916 -27.7141C345.822 -21.9891 354.424 -14.4371 359.525 -6.87808C364.638 0.700096 366.164 8.16828 363.192 13.83C360.22 19.4918 353.206 22.4771 344.065 22.5726C334.947 22.6679 323.845 19.8765 312.939 14.1516C302.033 8.42667 293.431 0.874886 288.331 -6.68398C283.218 -14.2622 281.691 -21.7303 284.663 -27.3921C287.635 -33.0538 294.649 -36.0391 303.79 -36.1347C312.909 -36.2299 324.01 -33.4389 334.916 -27.7141Z" stroke="#E51D22"/>
</g>
<rect opacity="0.5" x="309.878" y="27.8427" width="0.279116" height="0.279116" rx="0.139558" fill="white" stroke="#E51D22" stroke-width="0.279116"/>
<rect opacity="0.7" x="295.362" y="22.2607" width="0.279116" height="0.279116" rx="0.139558" fill="white" stroke="#E51D22" stroke-width="0.279116"/>
<rect opacity="0.7" x="280.655" y="36.4931" width="0.279116" height="0.279116" rx="0.139558" fill="white" stroke="#E51D22" stroke-width="0.279116"/>
<rect opacity="0.7" x="278.425" y="16.3993" width="0.279116" height="0.279116" rx="0.139558" fill="white" stroke="#E51D22" stroke-width="0.279116"/>
<rect opacity="0.7" x="296.479" y="40.122" width="0.279116" height="0.279116" rx="0.139558" fill="white" stroke="#E51D22" stroke-width="0.279116"/>
<rect opacity="0.7" x="305.222" y="15.2821" width="0.279116" height="0.279116" rx="0.139558" fill="white" stroke="#E51D22" stroke-width="0.279116"/>
<rect opacity="0.7" x="312.112" y="44.5888" width="0.279116" height="0.279116" rx="0.139558" fill="white" stroke="#E51D22" stroke-width="0.279116"/>
</g>
</g>
<path d="M24 0.5H318C321.734 0.5 324.51 0.500557 326.721 0.651367C328.926 0.801877 330.533 1.10019 331.932 1.67969C335.73 3.25284 338.747 6.27042 340.32 10.0684C340.9 11.4674 341.198 13.0736 341.349 15.2793C341.499 17.4896 341.5 20.2656 341.5 24V66C341.5 69.7344 341.499 72.5104 341.349 74.7207C341.198 76.9264 340.9 78.5326 340.32 79.9316C338.747 83.7296 335.73 86.7472 331.932 88.3203C330.533 88.8998 328.926 89.1981 326.721 89.3486C324.51 89.4994 321.734 89.5 318 89.5H24C20.2656 89.5 17.4896 89.4994 15.2793 89.3486C13.0736 89.1981 11.4674 88.8998 10.0684 88.3203C6.27043 86.7472 3.25284 83.7296 1.67969 79.9316C1.10019 78.5326 0.801876 76.9264 0.651367 74.7207C0.500557 72.5104 0.5 69.7344 0.5 66V24C0.5 20.2656 0.500557 17.4896 0.651367 15.2793C0.801876 13.0736 1.1002 11.4674 1.67969 10.0684C3.25284 6.27042 6.27042 3.25284 10.0684 1.67969C11.4674 1.1002 13.0736 0.801876 15.2793 0.651367C17.4896 0.500557 20.2656 0.5 24 0.5Z" stroke="#E51D22" stroke-opacity="0.1"/>
<defs>
<filter id="filter0_f_2098_213601" x="266.053" y="-4.44141" width="65.125" height="65.125" filterUnits="userSpaceOnUse" color-interpolation-filters="sRGB">
<feFlood flood-opacity="0" result="BackgroundImageFix"/>
<feBlend mode="normal" in="SourceGraphic" in2="BackgroundImageFix" result="shape"/>
<feGaussianBlur stdDeviation="3" result="effect1_foregroundBlur_2098_213601"/>
</filter>
<filter id="filter1_f_2098_213601" x="283.916" y="-4.44141" width="65.125" height="65.125" filterUnits="userSpaceOnUse" color-interpolation-filters="sRGB">
<feFlood flood-opacity="0" result="BackgroundImageFix"/>
<feBlend mode="normal" in="SourceGraphic" in2="BackgroundImageFix" result="shape"/>
<feGaussianBlur stdDeviation="3" result="effect1_foregroundBlur_2098_213601"/>
</filter>
<filter id="filter2_f_2098_213601" x="266.053" y="-22.3047" width="65.125" height="65.125" filterUnits="userSpaceOnUse" color-interpolation-filters="sRGB">
<feFlood flood-opacity="0" result="BackgroundImageFix"/>
<feBlend mode="normal" in="SourceGraphic" in2="BackgroundImageFix" result="shape"/>
<feGaussianBlur stdDeviation="3" result="effect1_foregroundBlur_2098_213601"/>
</filter>
<filter id="filter3_f_2098_213601" x="252.655" y="-66.6367" width="142.545" height="119.711" filterUnits="userSpaceOnUse" color-interpolation-filters="sRGB">
<feFlood flood-opacity="0" result="BackgroundImageFix"/>
<feBlend mode="normal" in="SourceGraphic" in2="BackgroundImageFix" result="shape"/>
<feGaussianBlur stdDeviation="15" result="effect1_foregroundBlur_2098_213601"/>
</filter>
<clipPath id="clip0_2098_213601">
<path d="M0 24C0 16.5449 0 12.8174 1.21793 9.87706C2.84183 5.95662 5.95662 2.84183 9.87706 1.21793C12.8174 0 16.5449 0 24 0H318C325.455 0 329.183 0 332.123 1.21793C336.043 2.84183 339.158 5.95662 340.782 9.87706C342 12.8174 342 16.5449 342 24V66C342 73.4551 342 77.1826 340.782 80.1229C339.158 84.0434 336.043 87.1582 332.123 88.7821C329.183 90 325.455 90 318 90H24C16.5449 90 12.8174 90 9.87706 88.7821C5.95662 87.1582 2.84183 84.0434 1.21793 80.1229C0 77.1826 0 73.4551 0 66V24Z" fill="white"/>
</clipPath>
</defs>
</svg>
