<svg width="342" height="90" viewBox="0 0 342 90" fill="none" xmlns="http://www.w3.org/2000/svg">
<g clip-path="url(#clip0_2098_213601)">
<path d="M0 24C0 16.5449 0 12.8174 1.21793 9.87706C2.84183 5.95662 5.95662 2.84183 9.87706 1.21793C12.8174 0 16.5449 0 24 0H318C325.455 0 329.183 0 332.123 1.21793C336.043 2.84183 339.158 5.95662 340.782 9.87706C342 12.8174 342 16.5449 342 24V66C342 73.4551 342 77.1826 340.782 80.1229C339.158 84.0434 336.043 87.1582 332.123 88.7821C329.183 90 325.455 90 318 90H24C16.5449 90 12.8174 90 9.87706 88.7821C5.95662 87.1582 2.84183 84.0434 1.21793 80.1229C0 77.1826 0 73.4551 0 66V24Z" fill="#E51D22" fill-opacity="0.04"/>
<path d="M18.916 23.012H14.842L14.142 25H12.476L15.962 15.256H17.81L21.296 25H19.616L18.916 23.012ZM18.468 21.71L16.886 17.188L15.29 21.71H18.468ZM22.2797 21.136C22.2797 20.3427 22.4384 19.6473 22.7557 19.05C23.0824 18.4433 23.5304 17.9767 24.0997 17.65C24.6691 17.3233 25.3224 17.16 26.0597 17.16C26.9931 17.16 27.7631 17.384 28.3697 17.832C28.9857 18.2707 29.4011 18.9007 29.6157 19.722H27.8937C27.7537 19.3393 27.5297 19.0407 27.2217 18.826C26.9137 18.6113 26.5264 18.504 26.0597 18.504C25.4064 18.504 24.8837 18.7373 24.4917 19.204C24.1091 19.6613 23.9177 20.3053 23.9177 21.136C23.9177 21.9667 24.1091 22.6153 24.4917 23.082C24.8837 23.5487 25.4064 23.782 26.0597 23.782C26.9837 23.782 27.5951 23.376 27.8937 22.564H29.6157C29.3917 23.348 28.9717 23.9733 28.3557 24.44C27.7397 24.8973 26.9744 25.126 26.0597 25.126C25.3224 25.126 24.6691 24.9627 24.0997 24.636C23.5304 24.3 23.0824 23.8333 22.7557 23.236C22.4384 22.6293 22.2797 21.9293 22.2797 21.136ZM33.0683 18.588V22.858C33.0683 23.1473 33.1336 23.3573 33.2643 23.488C33.4043 23.6093 33.6376 23.67 33.9643 23.67H34.9443V25H33.6843C32.9656 25 32.4149 24.832 32.0323 24.496C31.6496 24.16 31.4583 23.614 31.4583 22.858V18.588H30.5483V17.286H31.4583V15.368H33.0683V17.286H34.9443V18.588H33.0683ZM37.2272 16.264C36.9379 16.264 36.6952 16.166 36.4992 15.97C36.3032 15.774 36.2052 15.5313 36.2052 15.242C36.2052 14.9527 36.3032 14.71 36.4992 14.514C36.6952 14.318 36.9379 14.22 37.2272 14.22C37.5072 14.22 37.7452 14.318 37.9412 14.514C38.1372 14.71 38.2352 14.9527 38.2352 15.242C38.2352 15.5313 38.1372 15.774 37.9412 15.97C37.7452 16.166 37.5072 16.264 37.2272 16.264ZM38.0112 17.286V25H36.4152V17.286H38.0112ZM43.4526 25.126C42.7246 25.126 42.0666 24.9627 41.4786 24.636C40.8906 24.3 40.4286 23.8333 40.0926 23.236C39.7566 22.6293 39.5886 21.9293 39.5886 21.136C39.5886 20.352 39.7613 19.6567 40.1066 19.05C40.452 18.4433 40.9233 17.9767 41.5206 17.65C42.118 17.3233 42.7853 17.16 43.5226 17.16C44.26 17.16 44.9273 17.3233 45.5246 17.65C46.122 17.9767 46.5933 18.4433 46.9386 19.05C47.284 19.6567 47.4566 20.352 47.4566 21.136C47.4566 21.92 47.2793 22.6153 46.9246 23.222C46.57 23.8287 46.0846 24.3 45.4686 24.636C44.862 24.9627 44.19 25.126 43.4526 25.126ZM43.4526 23.74C43.8633 23.74 44.246 23.642 44.6006 23.446C44.9646 23.25 45.2586 22.956 45.4826 22.564C45.7066 22.172 45.8186 21.696 45.8186 21.136C45.8186 20.576 45.7113 20.1047 45.4966 19.722C45.282 19.33 44.9973 19.036 44.6426 18.84C44.288 18.644 43.9053 18.546 43.4946 18.546C43.084 18.546 42.7013 18.644 42.3466 18.84C42.0013 19.036 41.726 19.33 41.5206 19.722C41.3153 20.1047 41.2126 20.576 41.2126 21.136C41.2126 21.9667 41.4226 22.6107 41.8426 23.068C42.272 23.516 42.8086 23.74 43.4526 23.74ZM52.9264 17.16C53.533 17.16 54.0744 17.286 54.5504 17.538C55.0357 17.79 55.4137 18.1633 55.6844 18.658C55.955 19.1527 56.0904 19.75 56.0904 20.45V25H54.5084V20.688C54.5084 19.9973 54.3357 19.47 53.9904 19.106C53.645 18.7327 53.1737 18.546 52.5764 18.546C51.979 18.546 51.503 18.7327 51.1484 19.106C50.803 19.47 50.6304 19.9973 50.6304 20.688V25H49.0344V17.286H50.6304V18.168C50.8917 17.8507 51.223 17.6033 51.6244 17.426C52.035 17.2487 52.469 17.16 52.9264 17.16ZM69.7569 25H68.1609L63.3589 17.734V25H61.7629V15.256H63.3589L68.1609 22.508V15.256H69.7569V25ZM78.9227 20.954C78.9227 21.2433 78.9041 21.5047 78.8667 21.738H72.9727C73.0194 22.354 73.2481 22.8487 73.6587 23.222C74.0694 23.5953 74.5734 23.782 75.1707 23.782C76.0294 23.782 76.6361 23.4227 76.9907 22.704H78.7127C78.4794 23.4133 78.0547 23.9967 77.4387 24.454C76.8321 24.902 76.0761 25.126 75.1707 25.126C74.4334 25.126 73.7707 24.9627 73.1827 24.636C72.6041 24.3 72.1467 23.8333 71.8107 23.236C71.4841 22.6293 71.3207 21.9293 71.3207 21.136C71.3207 20.3427 71.4794 19.6473 71.7967 19.05C72.1234 18.4433 72.5761 17.9767 73.1547 17.65C73.7427 17.3233 74.4147 17.16 75.1707 17.16C75.8987 17.16 76.5474 17.3187 77.1167 17.636C77.6861 17.9533 78.1294 18.4013 78.4467 18.98C78.7641 19.5493 78.9227 20.2073 78.9227 20.954ZM77.2567 20.45C77.2474 19.862 77.0374 19.3907 76.6267 19.036C76.2161 18.6813 75.7074 18.504 75.1007 18.504C74.5501 18.504 74.0787 18.6813 73.6867 19.036C73.2947 19.3813 73.0614 19.8527 72.9867 20.45H77.2567ZM87.5634 20.954C87.5634 21.2433 87.5447 21.5047 87.5074 21.738H81.6134C81.66 22.354 81.8887 22.8487 82.2994 23.222C82.71 23.5953 83.214 23.782 83.8114 23.782C84.67 23.782 85.2767 23.4227 85.6314 22.704H87.3534C87.12 23.4133 86.6954 23.9967 86.0794 24.454C85.4727 24.902 84.7167 25.126 83.8114 25.126C83.074 25.126 82.4114 24.9627 81.8234 24.636C81.2447 24.3 80.7874 23.8333 80.4514 23.236C80.1247 22.6293 79.9614 21.9293 79.9614 21.136C79.9614 20.3427 80.12 19.6473 80.4374 19.05C80.764 18.4433 81.2167 17.9767 81.7954 17.65C82.3834 17.3233 83.0554 17.16 83.8114 17.16C84.5394 17.16 85.188 17.3187 85.7574 17.636C86.3267 17.9533 86.77 18.4013 87.0874 18.98C87.4047 19.5493 87.5634 20.2073 87.5634 20.954ZM85.8974 20.45C85.888 19.862 85.678 19.3907 85.2674 19.036C84.8567 18.6813 84.348 18.504 83.7414 18.504C83.1907 18.504 82.7194 18.6813 82.3274 19.036C81.9354 19.3813 81.702 19.8527 81.6274 20.45H85.8974ZM88.602 21.108C88.602 20.3333 88.7607 19.6473 89.078 19.05C89.4047 18.4527 89.8433 17.9907 90.394 17.664C90.954 17.328 91.5747 17.16 92.256 17.16C92.76 17.16 93.2547 17.272 93.74 17.496C94.2347 17.7107 94.6267 18 94.916 18.364V14.64H96.526V25H94.916V23.838C94.6547 24.2113 94.2907 24.5193 93.824 24.762C93.3667 25.0047 92.8393 25.126 92.242 25.126C91.57 25.126 90.954 24.958 90.394 24.622C89.8433 24.2767 89.4047 23.8007 89.078 23.194C88.7607 22.578 88.602 21.8827 88.602 21.108ZM94.916 21.136C94.916 20.604 94.804 20.142 94.58 19.75C94.3653 19.358 94.0807 19.0593 93.726 18.854C93.3713 18.6487 92.9887 18.546 92.578 18.546C92.1673 18.546 91.7847 18.6487 91.43 18.854C91.0753 19.05 90.786 19.344 90.562 19.736C90.3473 20.1187 90.24 20.576 90.24 21.108C90.24 21.64 90.3473 22.1067 90.562 22.508C90.786 22.9093 91.0753 23.2173 91.43 23.432C91.794 23.6373 92.1767 23.74 92.578 23.74C92.9887 23.74 93.3713 23.6373 93.726 23.432C94.0807 23.2267 94.3653 22.928 94.58 22.536C94.804 22.1347 94.916 21.668 94.916 21.136ZM105.692 20.954C105.692 21.2433 105.674 21.5047 105.636 21.738H99.7423C99.7889 22.354 100.018 22.8487 100.428 23.222C100.839 23.5953 101.343 23.782 101.94 23.782C102.799 23.782 103.406 23.4227 103.76 22.704H105.482C105.249 23.4133 104.824 23.9967 104.208 24.454C103.602 24.902 102.846 25.126 101.94 25.126C101.203 25.126 100.54 24.9627 99.9523 24.636C99.3736 24.3 98.9163 23.8333 98.5803 23.236C98.2536 22.6293 98.0903 21.9293 98.0903 21.136C98.0903 20.3427 98.2489 19.6473 98.5663 19.05C98.8929 18.4433 99.3456 17.9767 99.9243 17.65C100.512 17.3233 101.184 17.16 101.94 17.16C102.668 17.16 103.317 17.3187 103.886 17.636C104.456 17.9533 104.899 18.4013 105.216 18.98C105.534 19.5493 105.692 20.2073 105.692 20.954ZM104.026 20.45C104.017 19.862 103.807 19.3907 103.396 19.036C102.986 18.6813 102.477 18.504 101.87 18.504C101.32 18.504 100.848 18.6813 100.456 19.036C100.064 19.3813 99.8309 19.8527 99.7563 20.45H104.026ZM106.731 21.108C106.731 20.3333 106.89 19.6473 107.207 19.05C107.534 18.4527 107.972 17.9907 108.523 17.664C109.083 17.328 109.704 17.16 110.385 17.16C110.889 17.16 111.384 17.272 111.869 17.496C112.364 17.7107 112.756 18 113.045 18.364V14.64H114.655V25H113.045V23.838C112.784 24.2113 112.42 24.5193 111.953 24.762C111.496 25.0047 110.968 25.126 110.371 25.126C109.699 25.126 109.083 24.958 108.523 24.622C107.972 24.2767 107.534 23.8007 107.207 23.194C106.89 22.578 106.731 21.8827 106.731 21.108ZM113.045 21.136C113.045 20.604 112.933 20.142 112.709 19.75C112.494 19.358 112.21 19.0593 111.855 18.854C111.5 18.6487 111.118 18.546 110.707 18.546C110.296 18.546 109.914 18.6487 109.559 18.854C109.204 19.05 108.915 19.344 108.691 19.736C108.476 20.1187 108.369 20.576 108.369 21.108C108.369 21.64 108.476 22.1067 108.691 22.508C108.915 22.9093 109.204 23.2173 109.559 23.432C109.923 23.6373 110.306 23.74 110.707 23.74C111.118 23.74 111.5 23.6373 111.855 23.432C112.21 23.2267 112.494 22.928 112.709 22.536C112.933 22.1347 113.045 21.668 113.045 21.136Z" fill="#0D0F0F"/>
<path d="M17.65 37.03L15.38 41.37V44H14.47V41.37L12.19 37.03H13.2L14.92 40.56L16.64 37.03H17.65ZM20.9998 44.09C20.4865 44.09 20.0198 43.9733 19.5998 43.74C19.1865 43.5067 18.8598 43.1767 18.6198 42.75C18.3865 42.3167 18.2698 41.8167 18.2698 41.25C18.2698 40.69 18.3898 40.1967 18.6298 39.77C18.8765 39.3367 19.2098 39.0067 19.6298 38.78C20.0498 38.5467 20.5198 38.43 21.0398 38.43C21.5598 38.43 22.0298 38.5467 22.4498 38.78C22.8698 39.0067 23.1998 39.3333 23.4398 39.76C23.6865 40.1867 23.8098 40.6833 23.8098 41.25C23.8098 41.8167 23.6832 42.3167 23.4298 42.75C23.1832 43.1767 22.8465 43.5067 22.4198 43.74C21.9932 43.9733 21.5198 44.09 20.9998 44.09ZM20.9998 43.29C21.3265 43.29 21.6332 43.2133 21.9198 43.06C22.2065 42.9067 22.4365 42.6767 22.6098 42.37C22.7898 42.0633 22.8798 41.69 22.8798 41.25C22.8798 40.81 22.7932 40.4367 22.6198 40.13C22.4465 39.8233 22.2198 39.5967 21.9398 39.45C21.6598 39.2967 21.3565 39.22 21.0298 39.22C20.6965 39.22 20.3898 39.2967 20.1098 39.45C19.8365 39.5967 19.6165 39.8233 19.4498 40.13C19.2832 40.4367 19.1998 40.81 19.1998 41.25C19.1998 41.6967 19.2798 42.0733 19.4398 42.38C19.6065 42.6867 19.8265 42.9167 20.0998 43.07C20.3732 43.2167 20.6732 43.29 20.9998 43.29ZM29.8663 38.52V44H28.9563V43.19C28.783 43.47 28.5397 43.69 28.2263 43.85C27.9197 44.0033 27.5797 44.08 27.2063 44.08C26.7797 44.08 26.3963 43.9933 26.0563 43.82C25.7163 43.64 25.4463 43.3733 25.2463 43.02C25.053 42.6667 24.9563 42.2367 24.9563 41.73V38.52H25.8563V41.61C25.8563 42.15 25.993 42.5667 26.2663 42.86C26.5397 43.1467 26.913 43.29 27.3863 43.29C27.873 43.29 28.2563 43.14 28.5363 42.84C28.8163 42.54 28.9563 42.1033 28.9563 41.53V38.52H29.8663ZM32.3128 39.41C32.4728 39.0967 32.6995 38.8533 32.9928 38.68C33.2928 38.5067 33.6561 38.42 34.0828 38.42V39.36H33.8428C32.8228 39.36 32.3128 39.9133 32.3128 41.02V44H31.4028V38.52H32.3128V39.41ZM38.7093 39.53C38.8893 39.2167 39.156 38.9567 39.5093 38.75C39.8693 38.5367 40.286 38.43 40.7593 38.43C41.246 38.43 41.686 38.5467 42.0793 38.78C42.4793 39.0133 42.7926 39.3433 43.0193 39.77C43.246 40.19 43.3593 40.68 43.3593 41.24C43.3593 41.7933 43.246 42.2867 43.0193 42.72C42.7926 43.1533 42.4793 43.49 42.0793 43.73C41.686 43.97 41.246 44.09 40.7593 44.09C40.2926 44.09 39.8793 43.9867 39.5193 43.78C39.166 43.5667 38.896 43.3033 38.7093 42.99V46.6H37.7993V38.52H38.7093V39.53ZM42.4293 41.24C42.4293 40.8267 42.346 40.4667 42.1793 40.16C42.0126 39.8533 41.786 39.62 41.4993 39.46C41.2193 39.3 40.9093 39.22 40.5693 39.22C40.236 39.22 39.926 39.3033 39.6393 39.47C39.3593 39.63 39.1326 39.8667 38.9593 40.18C38.7926 40.4867 38.7093 40.8433 38.7093 41.25C38.7093 41.6633 38.7926 42.0267 38.9593 42.34C39.1326 42.6467 39.3593 42.8833 39.6393 43.05C39.926 43.21 40.236 43.29 40.5693 43.29C40.9093 43.29 41.2193 43.21 41.4993 43.05C41.786 42.8833 42.0126 42.6467 42.1793 42.34C42.346 42.0267 42.4293 41.66 42.4293 41.24ZM49.5571 41.05C49.5571 41.2233 49.5471 41.4067 49.5271 41.6H45.1471C45.1804 42.14 45.3638 42.5633 45.6971 42.87C46.0371 43.17 46.4471 43.32 46.9271 43.32C47.3204 43.32 47.6471 43.23 47.9071 43.05C48.1738 42.8633 48.3604 42.6167 48.4671 42.31H49.4471C49.3004 42.8367 49.0071 43.2667 48.5671 43.6C48.1271 43.9267 47.5804 44.09 46.9271 44.09C46.4071 44.09 45.9404 43.9733 45.5271 43.74C45.1204 43.5067 44.8004 43.1767 44.5671 42.75C44.3338 42.3167 44.2171 41.8167 44.2171 41.25C44.2171 40.6833 44.3304 40.1867 44.5571 39.76C44.7838 39.3333 45.1004 39.0067 45.5071 38.78C45.9204 38.5467 46.3938 38.43 46.9271 38.43C47.4471 38.43 47.9071 38.5433 48.3071 38.77C48.7071 38.9967 49.0138 39.31 49.2271 39.71C49.4471 40.1033 49.5571 40.55 49.5571 41.05ZM48.6171 40.86C48.6171 40.5133 48.5404 40.2167 48.3871 39.97C48.2338 39.7167 48.0238 39.5267 47.7571 39.4C47.4971 39.2667 47.2071 39.2 46.8871 39.2C46.4271 39.2 46.0338 39.3467 45.7071 39.64C45.3871 39.9333 45.2038 40.34 45.1571 40.86H48.6171ZM51.8683 39.27V42.5C51.8683 42.7667 51.9249 42.9567 52.0383 43.07C52.1516 43.1767 52.3483 43.23 52.6283 43.23H53.2983V44H52.4783C51.9716 44 51.5916 43.8833 51.3383 43.65C51.0849 43.4167 50.9583 43.0333 50.9583 42.5V39.27H50.2483V38.52H50.9583V37.14H51.8683V38.52H53.2983V39.27H51.8683ZM57.5369 37.63C57.3635 37.63 57.2169 37.57 57.0969 37.45C56.9769 37.33 56.9169 37.1833 56.9169 37.01C56.9169 36.8367 56.9769 36.69 57.0969 36.57C57.2169 36.45 57.3635 36.39 57.5369 36.39C57.7035 36.39 57.8435 36.45 57.9569 36.57C58.0769 36.69 58.1369 36.8367 58.1369 37.01C58.1369 37.1833 58.0769 37.33 57.9569 37.45C57.8435 37.57 57.7035 37.63 57.5369 37.63ZM57.9769 38.52V44H57.0669V38.52H57.9769ZM61.4678 44.09C61.0478 44.09 60.6711 44.02 60.3378 43.88C60.0045 43.7333 59.7411 43.5333 59.5478 43.28C59.3545 43.02 59.2478 42.7233 59.2278 42.39H60.1678C60.1945 42.6633 60.3211 42.8867 60.5478 43.06C60.7811 43.2333 61.0845 43.32 61.4578 43.32C61.8045 43.32 62.0778 43.2433 62.2778 43.09C62.4778 42.9367 62.5778 42.7433 62.5778 42.51C62.5778 42.27 62.4711 42.0933 62.2578 41.98C62.0445 41.86 61.7145 41.7433 61.2678 41.63C60.8611 41.5233 60.5278 41.4167 60.2678 41.31C60.0145 41.1967 59.7945 41.0333 59.6078 40.82C59.4278 40.6 59.3378 40.3133 59.3378 39.96C59.3378 39.68 59.4211 39.4233 59.5878 39.19C59.7545 38.9567 59.9911 38.7733 60.2978 38.64C60.6045 38.5 60.9545 38.43 61.3478 38.43C61.9545 38.43 62.4445 38.5833 62.8178 38.89C63.1911 39.1967 63.3911 39.6167 63.4178 40.15H62.5078C62.4878 39.8633 62.3711 39.6333 62.1578 39.46C61.9511 39.2867 61.6711 39.2 61.3178 39.2C60.9911 39.2 60.7311 39.27 60.5378 39.41C60.3445 39.55 60.2478 39.7333 60.2478 39.96C60.2478 40.14 60.3045 40.29 60.4178 40.41C60.5378 40.5233 60.6845 40.6167 60.8578 40.69C61.0378 40.7567 61.2845 40.8333 61.5978 40.92C61.9911 41.0267 62.3111 41.1333 62.5578 41.24C62.8045 41.34 63.0145 41.4933 63.1878 41.7C63.3678 41.9067 63.4611 42.1767 63.4678 42.51C63.4678 42.81 63.3845 43.08 63.2178 43.32C63.0511 43.56 62.8145 43.75 62.5078 43.89C62.2078 44.0233 61.8611 44.09 61.4678 44.09ZM74.0084 38.42C74.4351 38.42 74.8151 38.51 75.1484 38.69C75.4818 38.8633 75.7451 39.1267 75.9384 39.48C76.1318 39.8333 76.2284 40.2633 76.2284 40.77V44H75.3284V40.9C75.3284 40.3533 75.1918 39.9367 74.9184 39.65C74.6518 39.3567 74.2884 39.21 73.8284 39.21C73.3551 39.21 72.9784 39.3633 72.6984 39.67C72.4184 39.97 72.2784 40.4067 72.2784 40.98V44H71.3784V40.9C71.3784 40.3533 71.2418 39.9367 70.9684 39.65C70.7018 39.3567 70.3384 39.21 69.8784 39.21C69.4051 39.21 69.0284 39.3633 68.7484 39.67C68.4684 39.97 68.3284 40.4067 68.3284 40.98V44H67.4184V38.52H68.3284V39.31C68.5084 39.0233 68.7484 38.8033 69.0484 38.65C69.3551 38.4967 69.6918 38.42 70.0584 38.42C70.5184 38.42 70.9251 38.5233 71.2784 38.73C71.6318 38.9367 71.8951 39.24 72.0684 39.64C72.2218 39.2533 72.4751 38.9533 72.8284 38.74C73.1818 38.5267 73.5751 38.42 74.0084 38.42ZM78.1912 37.63C78.0178 37.63 77.8712 37.57 77.7512 37.45C77.6312 37.33 77.5712 37.1833 77.5712 37.01C77.5712 36.8367 77.6312 36.69 77.7512 36.57C77.8712 36.45 78.0178 36.39 78.1912 36.39C78.3578 36.39 78.4978 36.45 78.6112 36.57C78.7312 36.69 78.7912 36.8367 78.7912 37.01C78.7912 37.1833 78.7312 37.33 78.6112 37.45C78.4978 37.57 78.3578 37.63 78.1912 37.63ZM78.6312 38.52V44H77.7212V38.52H78.6312ZM82.1221 44.09C81.7021 44.09 81.3254 44.02 80.9921 43.88C80.6588 43.7333 80.3954 43.5333 80.2021 43.28C80.0088 43.02 79.9021 42.7233 79.8821 42.39H80.8221C80.8488 42.6633 80.9754 42.8867 81.2021 43.06C81.4354 43.2333 81.7388 43.32 82.1121 43.32C82.4588 43.32 82.7321 43.2433 82.9321 43.09C83.1321 42.9367 83.2321 42.7433 83.2321 42.51C83.2321 42.27 83.1254 42.0933 82.9121 41.98C82.6988 41.86 82.3688 41.7433 81.9221 41.63C81.5154 41.5233 81.1821 41.4167 80.9221 41.31C80.6688 41.1967 80.4488 41.0333 80.2621 40.82C80.0821 40.6 79.9921 40.3133 79.9921 39.96C79.9921 39.68 80.0754 39.4233 80.2421 39.19C80.4088 38.9567 80.6454 38.7733 80.9521 38.64C81.2588 38.5 81.6088 38.43 82.0021 38.43C82.6088 38.43 83.0988 38.5833 83.4721 38.89C83.8454 39.1967 84.0454 39.6167 84.0721 40.15H83.1621C83.1421 39.8633 83.0254 39.6333 82.8121 39.46C82.6054 39.2867 82.3254 39.2 81.9721 39.2C81.6454 39.2 81.3854 39.27 81.1921 39.41C80.9988 39.55 80.9021 39.7333 80.9021 39.96C80.9021 40.14 80.9588 40.29 81.0721 40.41C81.1921 40.5233 81.3388 40.6167 81.5121 40.69C81.6921 40.7567 81.9388 40.8333 82.2521 40.92C82.6454 41.0267 82.9654 41.1333 83.2121 41.24C83.4588 41.34 83.6688 41.4933 83.8421 41.7C84.0221 41.9067 84.1154 42.1767 84.1221 42.51C84.1221 42.81 84.0388 43.08 83.8721 43.32C83.7054 43.56 83.4688 43.75 83.1621 43.89C82.8621 44.0233 82.5154 44.09 82.1221 44.09ZM87.3467 44.09C86.9267 44.09 86.5501 44.02 86.2167 43.88C85.8834 43.7333 85.6201 43.5333 85.4267 43.28C85.2334 43.02 85.1267 42.7233 85.1067 42.39H86.0467C86.0734 42.6633 86.2001 42.8867 86.4267 43.06C86.6601 43.2333 86.9634 43.32 87.3367 43.32C87.6834 43.32 87.9567 43.2433 88.1567 43.09C88.3567 42.9367 88.4567 42.7433 88.4567 42.51C88.4567 42.27 88.3501 42.0933 88.1367 41.98C87.9234 41.86 87.5934 41.7433 87.1467 41.63C86.7401 41.5233 86.4067 41.4167 86.1467 41.31C85.8934 41.1967 85.6734 41.0333 85.4867 40.82C85.3067 40.6 85.2167 40.3133 85.2167 39.96C85.2167 39.68 85.3001 39.4233 85.4667 39.19C85.6334 38.9567 85.8701 38.7733 86.1767 38.64C86.4834 38.5 86.8334 38.43 87.2267 38.43C87.8334 38.43 88.3234 38.5833 88.6967 38.89C89.0701 39.1967 89.2701 39.6167 89.2967 40.15H88.3867C88.3667 39.8633 88.2501 39.6333 88.0367 39.46C87.8301 39.2867 87.5501 39.2 87.1967 39.2C86.8701 39.2 86.6101 39.27 86.4167 39.41C86.2234 39.55 86.1267 39.7333 86.1267 39.96C86.1267 40.14 86.1834 40.29 86.2967 40.41C86.4167 40.5233 86.5634 40.6167 86.7367 40.69C86.9167 40.7567 87.1634 40.8333 87.4767 40.92C87.8701 41.0267 88.1901 41.1333 88.4367 41.24C88.6834 41.34 88.8934 41.4933 89.0667 41.7C89.2467 41.9067 89.3401 42.1767 89.3467 42.51C89.3467 42.81 89.2634 43.08 89.0967 43.32C88.9301 43.56 88.6934 43.75 88.3867 43.89C88.0867 44.0233 87.7401 44.09 87.3467 44.09ZM91.1013 37.63C90.928 37.63 90.7813 37.57 90.6613 37.45C90.5413 37.33 90.4813 37.1833 90.4813 37.01C90.4813 36.8367 90.5413 36.69 90.6613 36.57C90.7813 36.45 90.928 36.39 91.1013 36.39C91.268 36.39 91.408 36.45 91.5213 36.57C91.6413 36.69 91.7013 36.8367 91.7013 37.01C91.7013 37.1833 91.6413 37.33 91.5213 37.45C91.408 37.57 91.268 37.63 91.1013 37.63ZM91.5413 38.52V44H90.6313V38.52H91.5413ZM95.7623 38.42C96.4289 38.42 96.9689 38.6233 97.3823 39.03C97.7956 39.43 98.0023 40.01 98.0023 40.77V44H97.1023V40.9C97.1023 40.3533 96.9656 39.9367 96.6923 39.65C96.4189 39.3567 96.0456 39.21 95.5723 39.21C95.0923 39.21 94.7089 39.36 94.4223 39.66C94.1423 39.96 94.0023 40.3967 94.0023 40.97V44H93.0923V38.52H94.0023V39.3C94.1823 39.02 94.4256 38.8033 94.7323 38.65C95.0456 38.4967 95.3889 38.42 95.7623 38.42ZM101.749 38.43C102.222 38.43 102.635 38.5333 102.989 38.74C103.349 38.9467 103.615 39.2067 103.789 39.52V38.52H104.709V44.12C104.709 44.62 104.602 45.0633 104.389 45.45C104.175 45.8433 103.869 46.15 103.469 46.37C103.075 46.59 102.615 46.7 102.089 46.7C101.369 46.7 100.769 46.53 100.289 46.19C99.8088 45.85 99.5254 45.3867 99.4388 44.8H100.339C100.439 45.1333 100.645 45.4 100.959 45.6C101.272 45.8067 101.649 45.91 102.089 45.91C102.589 45.91 102.995 45.7533 103.309 45.44C103.629 45.1267 103.789 44.6867 103.789 44.12V42.97C103.609 43.29 103.342 43.5567 102.989 43.77C102.635 43.9833 102.222 44.09 101.749 44.09C101.262 44.09 100.819 43.97 100.419 43.73C100.025 43.49 99.7154 43.1533 99.4888 42.72C99.2621 42.2867 99.1488 41.7933 99.1488 41.24C99.1488 40.68 99.2621 40.19 99.4888 39.77C99.7154 39.3433 100.025 39.0133 100.419 38.78C100.819 38.5467 101.262 38.43 101.749 38.43ZM103.789 41.25C103.789 40.8367 103.705 40.4767 103.539 40.17C103.372 39.8633 103.145 39.63 102.859 39.47C102.579 39.3033 102.269 39.22 101.929 39.22C101.589 39.22 101.279 39.3 100.999 39.46C100.719 39.62 100.495 39.8533 100.329 40.16C100.162 40.4667 100.079 40.8267 100.079 41.24C100.079 41.66 100.162 42.0267 100.329 42.34C100.495 42.6467 100.719 42.8833 100.999 43.05C101.279 43.21 101.589 43.29 101.929 43.29C102.269 43.29 102.579 43.21 102.859 43.05C103.145 42.8833 103.372 42.6467 103.539 42.34C103.705 42.0267 103.789 41.6633 103.789 41.25ZM110.953 43.16L112.653 38.52H113.623L111.473 44H110.413L108.263 38.52H109.243L110.953 43.16ZM114.178 41.24C114.178 40.68 114.291 40.19 114.518 39.77C114.745 39.3433 115.055 39.0133 115.448 38.78C115.848 38.5467 116.291 38.43 116.778 38.43C117.258 38.43 117.675 38.5333 118.028 38.74C118.381 38.9467 118.645 39.2067 118.818 39.52V38.52H119.738V44H118.818V42.98C118.638 43.3 118.368 43.5667 118.008 43.78C117.655 43.9867 117.241 44.09 116.768 44.09C116.281 44.09 115.841 43.97 115.448 43.73C115.055 43.49 114.745 43.1533 114.518 42.72C114.291 42.2867 114.178 41.7933 114.178 41.24ZM118.818 41.25C118.818 40.8367 118.735 40.4767 118.568 40.17C118.401 39.8633 118.175 39.63 117.888 39.47C117.608 39.3033 117.298 39.22 116.958 39.22C116.618 39.22 116.308 39.3 116.028 39.46C115.748 39.62 115.525 39.8533 115.358 40.16C115.191 40.4667 115.108 40.8267 115.108 41.24C115.108 41.66 115.191 42.0267 115.358 42.34C115.525 42.6467 115.748 42.8833 116.028 43.05C116.308 43.21 116.618 43.29 116.958 43.29C117.298 43.29 117.608 43.21 117.888 43.05C118.175 42.8833 118.401 42.6467 118.568 42.34C118.735 42.0267 118.818 41.6633 118.818 41.25ZM120.936 41.25C120.936 40.6833 121.049 40.19 121.276 39.77C121.503 39.3433 121.816 39.0133 122.216 38.78C122.623 38.5467 123.086 38.43 123.606 38.43C124.279 38.43 124.833 38.5933 125.266 38.92C125.706 39.2467 125.996 39.7 126.136 40.28H125.156C125.063 39.9467 124.879 39.6833 124.606 39.49C124.339 39.2967 124.006 39.2 123.606 39.2C123.086 39.2 122.666 39.38 122.346 39.74C122.026 40.0933 121.866 40.5967 121.866 41.25C121.866 41.91 122.026 42.42 122.346 42.78C122.666 43.14 123.086 43.32 123.606 43.32C124.006 43.32 124.339 43.2267 124.606 43.04C124.873 42.8533 125.056 42.5867 125.156 42.24H126.136C125.989 42.8 125.696 43.25 125.256 43.59C124.816 43.9233 124.266 44.09 123.606 44.09C123.086 44.09 122.623 43.9733 122.216 43.74C121.816 43.5067 121.503 43.1767 121.276 42.75C121.049 42.3233 120.936 41.8233 120.936 41.25ZM127.01 41.25C127.01 40.6833 127.123 40.19 127.35 39.77C127.577 39.3433 127.89 39.0133 128.29 38.78C128.697 38.5467 129.16 38.43 129.68 38.43C130.353 38.43 130.907 38.5933 131.34 38.92C131.78 39.2467 132.07 39.7 132.21 40.28H131.23C131.137 39.9467 130.953 39.6833 130.68 39.49C130.413 39.2967 130.08 39.2 129.68 39.2C129.16 39.2 128.74 39.38 128.42 39.74C128.1 40.0933 127.94 40.5967 127.94 41.25C127.94 41.91 128.1 42.42 128.42 42.78C128.74 43.14 129.16 43.32 129.68 43.32C130.08 43.32 130.413 43.2267 130.68 43.04C130.947 42.8533 131.13 42.5867 131.23 42.24H132.21C132.063 42.8 131.77 43.25 131.33 43.59C130.89 43.9233 130.34 44.09 129.68 44.09C129.16 44.09 128.697 43.9733 128.29 43.74C127.89 43.5067 127.577 43.1767 127.35 42.75C127.123 42.3233 127.01 41.8233 127.01 41.25ZM133.894 37.63C133.721 37.63 133.574 37.57 133.454 37.45C133.334 37.33 133.274 37.1833 133.274 37.01C133.274 36.8367 133.334 36.69 133.454 36.57C133.574 36.45 133.721 36.39 133.894 36.39C134.061 36.39 134.201 36.45 134.314 36.57C134.434 36.69 134.494 36.8367 134.494 37.01C134.494 37.1833 134.434 37.33 134.314 37.45C134.201 37.57 134.061 37.63 133.894 37.63ZM134.334 38.52V44H133.424V38.52H134.334ZM138.555 38.42C139.222 38.42 139.762 38.6233 140.175 39.03C140.589 39.43 140.795 40.01 140.795 40.77V44H139.895V40.9C139.895 40.3533 139.759 39.9367 139.485 39.65C139.212 39.3567 138.839 39.21 138.365 39.21C137.885 39.21 137.502 39.36 137.215 39.66C136.935 39.96 136.795 40.3967 136.795 40.97V44H135.885V38.52H136.795V39.3C136.975 39.02 137.219 38.8033 137.525 38.65C137.839 38.4967 138.182 38.42 138.555 38.42ZM147.282 41.05C147.282 41.2233 147.272 41.4067 147.252 41.6H142.872C142.905 42.14 143.088 42.5633 143.422 42.87C143.762 43.17 144.172 43.32 144.652 43.32C145.045 43.32 145.372 43.23 145.632 43.05C145.898 42.8633 146.085 42.6167 146.192 42.31H147.172C147.025 42.8367 146.732 43.2667 146.292 43.6C145.852 43.9267 145.305 44.09 144.652 44.09C144.132 44.09 143.665 43.9733 143.252 43.74C142.845 43.5067 142.525 43.1767 142.292 42.75C142.058 42.3167 141.942 41.8167 141.942 41.25C141.942 40.6833 142.055 40.1867 142.282 39.76C142.508 39.3333 142.825 39.0067 143.232 38.78C143.645 38.5467 144.118 38.43 144.652 38.43C145.172 38.43 145.632 38.5433 146.032 38.77C146.432 38.9967 146.738 39.31 146.952 39.71C147.172 40.1033 147.282 40.55 147.282 41.05ZM146.342 40.86C146.342 40.5133 146.265 40.2167 146.112 39.97C145.958 39.7167 145.748 39.5267 145.482 39.4C145.222 39.2667 144.932 39.2 144.612 39.2C144.152 39.2 143.758 39.3467 143.432 39.64C143.112 39.9333 142.928 40.34 142.882 40.86H146.342ZM150.423 44.09C150.003 44.09 149.626 44.02 149.293 43.88C148.96 43.7333 148.696 43.5333 148.503 43.28C148.31 43.02 148.203 42.7233 148.183 42.39H149.123C149.15 42.6633 149.276 42.8867 149.503 43.06C149.736 43.2333 150.04 43.32 150.413 43.32C150.76 43.32 151.033 43.2433 151.233 43.09C151.433 42.9367 151.533 42.7433 151.533 42.51C151.533 42.27 151.426 42.0933 151.213 41.98C151 41.86 150.67 41.7433 150.223 41.63C149.816 41.5233 149.483 41.4167 149.223 41.31C148.97 41.1967 148.75 41.0333 148.563 40.82C148.383 40.6 148.293 40.3133 148.293 39.96C148.293 39.68 148.376 39.4233 148.543 39.19C148.71 38.9567 148.946 38.7733 149.253 38.64C149.56 38.5 149.91 38.43 150.303 38.43C150.91 38.43 151.4 38.5833 151.773 38.89C152.146 39.1967 152.346 39.6167 152.373 40.15H151.463C151.443 39.8633 151.326 39.6333 151.113 39.46C150.906 39.2867 150.626 39.2 150.273 39.2C149.946 39.2 149.686 39.27 149.493 39.41C149.3 39.55 149.203 39.7333 149.203 39.96C149.203 40.14 149.26 40.29 149.373 40.41C149.493 40.5233 149.64 40.6167 149.813 40.69C149.993 40.7567 150.24 40.8333 150.553 40.92C150.946 41.0267 151.266 41.1333 151.513 41.24C151.76 41.34 151.97 41.4933 152.143 41.7C152.323 41.9067 152.416 42.1767 152.423 42.51C152.423 42.81 152.34 43.08 152.173 43.32C152.006 43.56 151.77 43.75 151.463 43.89C151.163 44.0233 150.816 44.09 150.423 44.09ZM157.284 39.41C157.444 39.0967 157.67 38.8533 157.964 38.68C158.264 38.5067 158.627 38.42 159.054 38.42V39.36H158.814C157.794 39.36 157.284 39.9133 157.284 41.02V44H156.374V38.52H157.284V39.41ZM165.104 41.05C165.104 41.2233 165.094 41.4067 165.074 41.6H160.694C160.727 42.14 160.911 42.5633 161.244 42.87C161.584 43.17 161.994 43.32 162.474 43.32C162.867 43.32 163.194 43.23 163.454 43.05C163.721 42.8633 163.907 42.6167 164.014 42.31H164.994C164.847 42.8367 164.554 43.2667 164.114 43.6C163.674 43.9267 163.127 44.09 162.474 44.09C161.954 44.09 161.487 43.9733 161.074 43.74C160.667 43.5067 160.347 43.1767 160.114 42.75C159.881 42.3167 159.764 41.8167 159.764 41.25C159.764 40.6833 159.877 40.1867 160.104 39.76C160.331 39.3333 160.647 39.0067 161.054 38.78C161.467 38.5467 161.941 38.43 162.474 38.43C162.994 38.43 163.454 38.5433 163.854 38.77C164.254 38.9967 164.561 39.31 164.774 39.71C164.994 40.1033 165.104 40.55 165.104 41.05ZM164.164 40.86C164.164 40.5133 164.087 40.2167 163.934 39.97C163.781 39.7167 163.571 39.5267 163.304 39.4C163.044 39.2667 162.754 39.2 162.434 39.2C161.974 39.2 161.581 39.3467 161.254 39.64C160.934 39.9333 160.751 40.34 160.704 40.86H164.164ZM165.965 41.24C165.965 40.68 166.078 40.19 166.305 39.77C166.532 39.3433 166.842 39.0133 167.235 38.78C167.635 38.5467 168.082 38.43 168.575 38.43C169.048 38.43 169.462 38.5367 169.815 38.75C170.175 38.9567 170.438 39.2133 170.605 39.52V38.52H171.525V46.6H170.605V42.99C170.432 43.2967 170.165 43.5567 169.805 43.77C169.445 43.9833 169.025 44.09 168.545 44.09C168.065 44.09 167.628 43.97 167.235 43.73C166.842 43.49 166.532 43.1533 166.305 42.72C166.078 42.2867 165.965 41.7933 165.965 41.24ZM170.605 41.25C170.605 40.8367 170.522 40.4767 170.355 40.17C170.188 39.8633 169.962 39.63 169.675 39.47C169.395 39.3033 169.085 39.22 168.745 39.22C168.405 39.22 168.095 39.3 167.815 39.46C167.535 39.62 167.312 39.8533 167.145 40.16C166.978 40.4667 166.895 40.8267 166.895 41.24C166.895 41.66 166.978 42.0267 167.145 42.34C167.312 42.6467 167.535 42.8833 167.815 43.05C168.095 43.21 168.405 43.29 168.745 43.29C169.085 43.29 169.395 43.21 169.675 43.05C169.962 42.8833 170.188 42.6467 170.355 42.34C170.522 42.0267 170.605 41.6633 170.605 41.25ZM177.923 38.52V44H177.013V43.19C176.84 43.47 176.596 43.69 176.283 43.85C175.976 44.0033 175.636 44.08 175.263 44.08C174.836 44.08 174.453 43.9933 174.113 43.82C173.773 43.64 173.503 43.3733 173.303 43.02C173.11 42.6667 173.013 42.2367 173.013 41.73V38.52H173.913V41.61C173.913 42.15 174.05 42.5667 174.323 42.86C174.596 43.1467 174.97 43.29 175.443 43.29C175.93 43.29 176.313 43.14 176.593 42.84C176.873 42.54 177.013 42.1033 177.013 41.53V38.52H177.923ZM179.929 37.63C179.756 37.63 179.609 37.57 179.489 37.45C179.369 37.33 179.309 37.1833 179.309 37.01C179.309 36.8367 179.369 36.69 179.489 36.57C179.609 36.45 179.756 36.39 179.929 36.39C180.096 36.39 180.236 36.45 180.349 36.57C180.469 36.69 180.529 36.8367 180.529 37.01C180.529 37.1833 180.469 37.33 180.349 37.45C180.236 37.57 180.096 37.63 179.929 37.63ZM180.369 38.52V44H179.459V38.52H180.369ZM182.83 39.41C182.99 39.0967 183.217 38.8533 183.51 38.68C183.81 38.5067 184.174 38.42 184.6 38.42V39.36H184.36C183.34 39.36 182.83 39.9133 182.83 41.02V44H181.92V38.52H182.83V39.41ZM190.651 41.05C190.651 41.2233 190.641 41.4067 190.621 41.6H186.241C186.274 42.14 186.458 42.5633 186.791 42.87C187.131 43.17 187.541 43.32 188.021 43.32C188.414 43.32 188.741 43.23 189.001 43.05C189.268 42.8633 189.454 42.6167 189.561 42.31H190.541C190.394 42.8367 190.101 43.2667 189.661 43.6C189.221 43.9267 188.674 44.09 188.021 44.09C187.501 44.09 187.034 43.9733 186.621 43.74C186.214 43.5067 185.894 43.1767 185.661 42.75C185.428 42.3167 185.311 41.8167 185.311 41.25C185.311 40.6833 185.424 40.1867 185.651 39.76C185.878 39.3333 186.194 39.0067 186.601 38.78C187.014 38.5467 187.488 38.43 188.021 38.43C188.541 38.43 189.001 38.5433 189.401 38.77C189.801 38.9967 190.108 39.31 190.321 39.71C190.541 40.1033 190.651 40.55 190.651 41.05ZM189.711 40.86C189.711 40.5133 189.634 40.2167 189.481 39.97C189.328 39.7167 189.118 39.5267 188.851 39.4C188.591 39.2667 188.301 39.2 187.981 39.2C187.521 39.2 187.128 39.3467 186.801 39.64C186.481 39.9333 186.298 40.34 186.251 40.86H189.711ZM191.512 41.24C191.512 40.68 191.625 40.19 191.852 39.77C192.079 39.3433 192.389 39.0133 192.782 38.78C193.182 38.5467 193.629 38.43 194.122 38.43C194.549 38.43 194.945 38.53 195.312 38.73C195.679 38.9233 195.959 39.18 196.152 39.5V36.6H197.072V44H196.152V42.97C195.972 43.2967 195.705 43.5667 195.352 43.78C194.999 43.9867 194.585 44.09 194.112 44.09C193.625 44.09 193.182 43.97 192.782 43.73C192.389 43.49 192.079 43.1533 191.852 42.72C191.625 42.2867 191.512 41.7933 191.512 41.24ZM196.152 41.25C196.152 40.8367 196.069 40.4767 195.902 40.17C195.735 39.8633 195.509 39.63 195.222 39.47C194.942 39.3033 194.632 39.22 194.292 39.22C193.952 39.22 193.642 39.3 193.362 39.46C193.082 39.62 192.859 39.8533 192.692 40.16C192.525 40.4667 192.442 40.8267 192.442 41.24C192.442 41.66 192.525 42.0267 192.692 42.34C192.859 42.6467 193.082 42.8833 193.362 43.05C193.642 43.21 193.952 43.29 194.292 43.29C194.632 43.29 194.942 43.21 195.222 43.05C195.509 42.8833 195.735 42.6467 195.902 42.34C196.069 42.0267 196.152 41.6633 196.152 41.25ZM202.186 39.54C202.373 39.2133 202.646 38.9467 203.006 38.74C203.366 38.5333 203.776 38.43 204.236 38.43C204.729 38.43 205.173 38.5467 205.566 38.78C205.959 39.0133 206.269 39.3433 206.496 39.77C206.723 40.19 206.836 40.68 206.836 41.24C206.836 41.7933 206.723 42.2867 206.496 42.72C206.269 43.1533 205.956 43.49 205.556 43.73C205.163 43.97 204.723 44.09 204.236 44.09C203.763 44.09 203.346 43.9867 202.986 43.78C202.633 43.5733 202.366 43.31 202.186 42.99V44H201.276V36.6H202.186V39.54ZM205.906 41.24C205.906 40.8267 205.823 40.4667 205.656 40.16C205.489 39.8533 205.263 39.62 204.976 39.46C204.696 39.3 204.386 39.22 204.046 39.22C203.713 39.22 203.403 39.3033 203.116 39.47C202.836 39.63 202.609 39.8667 202.436 40.18C202.269 40.4867 202.186 40.8433 202.186 41.25C202.186 41.6633 202.269 42.0267 202.436 42.34C202.609 42.6467 202.836 42.8833 203.116 43.05C203.403 43.21 203.713 43.29 204.046 43.29C204.386 43.29 204.696 43.21 204.976 43.05C205.263 42.8833 205.489 42.6467 205.656 42.34C205.823 42.0267 205.906 41.66 205.906 41.24ZM212.754 38.52L209.454 46.58H208.514L209.594 43.94L207.384 38.52H208.394L210.114 42.96L211.814 38.52H212.754ZM217.224 37.03V41.44C217.224 42.06 217.374 42.52 217.674 42.82C217.981 43.12 218.404 43.27 218.944 43.27C219.478 43.27 219.894 43.12 220.194 42.82C220.501 42.52 220.654 42.06 220.654 41.44V37.03H221.564V41.43C221.564 42.01 221.448 42.5 221.214 42.9C220.981 43.2933 220.664 43.5867 220.264 43.78C219.871 43.9733 219.428 44.07 218.934 44.07C218.441 44.07 217.994 43.9733 217.594 43.78C217.201 43.5867 216.888 43.2933 216.654 42.9C216.428 42.5 216.314 42.01 216.314 41.43V37.03H217.224ZM223.373 44.06C223.199 44.06 223.053 44 222.933 43.88C222.813 43.76 222.753 43.6133 222.753 43.44C222.753 43.2667 222.813 43.12 222.933 43C223.053 42.88 223.199 42.82 223.373 42.82C223.539 42.82 223.679 42.88 223.793 43C223.913 43.12 223.973 43.2667 223.973 43.44C223.973 43.6133 223.913 43.76 223.793 43.88C223.679 44 223.539 44.06 223.373 44.06ZM227.392 44.07C226.932 44.07 226.519 43.99 226.152 43.83C225.792 43.6633 225.509 43.4367 225.302 43.15C225.095 42.8567 224.989 42.52 224.982 42.14H225.952C225.985 42.4667 226.119 42.7433 226.352 42.97C226.592 43.19 226.939 43.3 227.392 43.3C227.825 43.3 228.165 43.1933 228.412 42.98C228.665 42.76 228.792 42.48 228.792 42.14C228.792 41.8733 228.719 41.6567 228.572 41.49C228.425 41.3233 228.242 41.1967 228.022 41.11C227.802 41.0233 227.505 40.93 227.132 40.83C226.672 40.71 226.302 40.59 226.022 40.47C225.749 40.35 225.512 40.1633 225.312 39.91C225.119 39.65 225.022 39.3033 225.022 38.87C225.022 38.49 225.119 38.1533 225.312 37.86C225.505 37.5667 225.775 37.34 226.122 37.18C226.475 37.02 226.879 36.94 227.332 36.94C227.985 36.94 228.519 37.1033 228.932 37.43C229.352 37.7567 229.589 38.19 229.642 38.73H228.642C228.609 38.4633 228.469 38.23 228.222 38.03C227.975 37.8233 227.649 37.72 227.242 37.72C226.862 37.72 226.552 37.82 226.312 38.02C226.072 38.2133 225.952 38.4867 225.952 38.84C225.952 39.0933 226.022 39.3 226.162 39.46C226.309 39.62 226.485 39.7433 226.692 39.83C226.905 39.91 227.202 40.0033 227.582 40.11C228.042 40.2367 228.412 40.3633 228.692 40.49C228.972 40.61 229.212 40.8 229.412 41.06C229.612 41.3133 229.712 41.66 229.712 42.1C229.712 42.44 229.622 42.76 229.442 43.06C229.262 43.36 228.995 43.6033 228.642 43.79C228.289 43.9767 227.872 44.07 227.392 44.07ZM231.341 44.06C231.168 44.06 231.021 44 230.901 43.88C230.781 43.76 230.721 43.6133 230.721 43.44C230.721 43.2667 230.781 43.12 230.901 43C231.021 42.88 231.168 42.82 231.341 42.82C231.508 42.82 231.648 42.88 231.761 43C231.881 43.12 231.941 43.2667 231.941 43.44C231.941 43.6133 231.881 43.76 231.761 43.88C231.648 44 231.508 44.06 231.341 44.06ZM236.727 39.41C236.887 39.0967 237.114 38.8533 237.407 38.68C237.707 38.5067 238.07 38.42 238.497 38.42V39.36H238.257C237.237 39.36 236.727 39.9133 236.727 41.02V44H235.817V38.52H236.727V39.41ZM244.547 41.05C244.547 41.2233 244.537 41.4067 244.517 41.6H240.137C240.171 42.14 240.354 42.5633 240.687 42.87C241.027 43.17 241.437 43.32 241.917 43.32C242.311 43.32 242.637 43.23 242.897 43.05C243.164 42.8633 243.351 42.6167 243.457 42.31H244.437C244.291 42.8367 243.997 43.2667 243.557 43.6C243.117 43.9267 242.571 44.09 241.917 44.09C241.397 44.09 240.931 43.9733 240.517 43.74C240.111 43.5067 239.791 43.1767 239.557 42.75C239.324 42.3167 239.207 41.8167 239.207 41.25C239.207 40.6833 239.321 40.1867 239.547 39.76C239.774 39.3333 240.091 39.0067 240.497 38.78C240.911 38.5467 241.384 38.43 241.917 38.43C242.437 38.43 242.897 38.5433 243.297 38.77C243.697 38.9967 244.004 39.31 244.217 39.71C244.437 40.1033 244.547 40.55 244.547 41.05ZM243.607 40.86C243.607 40.5133 243.531 40.2167 243.377 39.97C243.224 39.7167 243.014 39.5267 242.747 39.4C242.487 39.2667 242.197 39.2 241.877 39.2C241.417 39.2 241.024 39.3467 240.697 39.64C240.377 39.9333 240.194 40.34 240.147 40.86H243.607ZM248.009 38.43C248.482 38.43 248.895 38.5333 249.249 38.74C249.609 38.9467 249.875 39.2067 250.049 39.52V38.52H250.969V44.12C250.969 44.62 250.862 45.0633 250.649 45.45C250.435 45.8433 250.129 46.15 249.729 46.37C249.335 46.59 248.875 46.7 248.349 46.7C247.629 46.7 247.029 46.53 246.549 46.19C246.069 45.85 245.785 45.3867 245.699 44.8H246.599C246.699 45.1333 246.905 45.4 247.219 45.6C247.532 45.8067 247.909 45.91 248.349 45.91C248.849 45.91 249.255 45.7533 249.569 45.44C249.889 45.1267 250.049 44.6867 250.049 44.12V42.97C249.869 43.29 249.602 43.5567 249.249 43.77C248.895 43.9833 248.482 44.09 248.009 44.09C247.522 44.09 247.079 43.97 246.679 43.73C246.285 43.49 245.975 43.1533 245.749 42.72C245.522 42.2867 245.409 41.7933 245.409 41.24C245.409 40.68 245.522 40.19 245.749 39.77C245.975 39.3433 246.285 39.0133 246.679 38.78C247.079 38.5467 247.522 38.43 248.009 38.43ZM250.049 41.25C250.049 40.8367 249.965 40.4767 249.799 40.17C249.632 39.8633 249.405 39.63 249.119 39.47C248.839 39.3033 248.529 39.22 248.189 39.22C247.849 39.22 247.539 39.3 247.259 39.46C246.979 39.62 246.755 39.8533 246.589 40.16C246.422 40.4667 246.339 40.8267 246.339 41.24C246.339 41.66 246.422 42.0267 246.589 42.34C246.755 42.6467 246.979 42.8833 247.259 43.05C247.539 43.21 247.849 43.29 248.189 43.29C248.529 43.29 248.839 43.21 249.119 43.05C249.405 42.8833 249.632 42.6467 249.799 42.34C249.965 42.0267 250.049 41.6633 250.049 41.25ZM257.366 38.52V44H256.456V43.19C256.283 43.47 256.04 43.69 255.726 43.85C255.42 44.0033 255.08 44.08 254.706 44.08C254.28 44.08 253.896 43.9933 253.556 43.82C253.216 43.64 252.946 43.3733 252.746 43.02C252.553 42.6667 252.456 42.2367 252.456 41.73V38.52H253.356V41.61C253.356 42.15 253.493 42.5667 253.766 42.86C254.04 43.1467 254.413 43.29 254.886 43.29C255.373 43.29 255.756 43.14 256.036 42.84C256.316 42.54 256.456 42.1033 256.456 41.53V38.52H257.366ZM259.813 36.6V44H258.903V36.6H259.813ZM261.024 41.24C261.024 40.68 261.137 40.19 261.364 39.77C261.59 39.3433 261.9 39.0133 262.294 38.78C262.694 38.5467 263.137 38.43 263.624 38.43C264.104 38.43 264.52 38.5333 264.874 38.74C265.227 38.9467 265.49 39.2067 265.664 39.52V38.52H266.584V44H265.664V42.98C265.484 43.3 265.214 43.5667 264.854 43.78C264.5 43.9867 264.087 44.09 263.614 44.09C263.127 44.09 262.687 43.97 262.294 43.73C261.9 43.49 261.59 43.1533 261.364 42.72C261.137 42.2867 261.024 41.7933 261.024 41.24ZM265.664 41.25C265.664 40.8367 265.58 40.4767 265.414 40.17C265.247 39.8633 265.02 39.63 264.734 39.47C264.454 39.3033 264.144 39.22 263.804 39.22C263.464 39.22 263.154 39.3 262.874 39.46C262.594 39.62 262.37 39.8533 262.204 40.16C262.037 40.4667 261.954 40.8267 261.954 41.24C261.954 41.66 262.037 42.0267 262.204 42.34C262.37 42.6467 262.594 42.8833 262.874 43.05C263.154 43.21 263.464 43.29 263.804 43.29C264.144 43.29 264.454 43.21 264.734 43.05C265.02 42.8833 265.247 42.6467 265.414 42.34C265.58 42.0267 265.664 41.6633 265.664 41.25ZM269.232 39.27V42.5C269.232 42.7667 269.288 42.9567 269.402 43.07C269.515 43.1767 269.712 43.23 269.992 43.23H270.662V44H269.842C269.335 44 268.955 43.8833 268.702 43.65C268.448 43.4167 268.322 43.0333 268.322 42.5V39.27H267.612V38.52H268.322V37.14H269.232V38.52H270.662V39.27H269.232ZM272.234 37.63C272.061 37.63 271.914 37.57 271.794 37.45C271.674 37.33 271.614 37.1833 271.614 37.01C271.614 36.8367 271.674 36.69 271.794 36.57C271.914 36.45 272.061 36.39 272.234 36.39C272.401 36.39 272.541 36.45 272.654 36.57C272.774 36.69 272.834 36.8367 272.834 37.01C272.834 37.1833 272.774 37.33 272.654 37.45C272.541 37.57 272.401 37.63 272.234 37.63ZM272.674 38.52V44H271.764V38.52H272.674ZM276.615 44.09C276.102 44.09 275.635 43.9733 275.215 43.74C274.802 43.5067 274.475 43.1767 274.235 42.75C274.002 42.3167 273.885 41.8167 273.885 41.25C273.885 40.69 274.005 40.1967 274.245 39.77C274.492 39.3367 274.825 39.0067 275.245 38.78C275.665 38.5467 276.135 38.43 276.655 38.43C277.175 38.43 277.645 38.5467 278.065 38.78C278.485 39.0067 278.815 39.3333 279.055 39.76C279.302 40.1867 279.425 40.6833 279.425 41.25C279.425 41.8167 279.298 42.3167 279.045 42.75C278.798 43.1767 278.462 43.5067 278.035 43.74C277.608 43.9733 277.135 44.09 276.615 44.09ZM276.615 43.29C276.942 43.29 277.248 43.2133 277.535 43.06C277.822 42.9067 278.052 42.6767 278.225 42.37C278.405 42.0633 278.495 41.69 278.495 41.25C278.495 40.81 278.408 40.4367 278.235 40.13C278.062 39.8233 277.835 39.5967 277.555 39.45C277.275 39.2967 276.972 39.22 276.645 39.22C276.312 39.22 276.005 39.2967 275.725 39.45C275.452 39.5967 275.232 39.8233 275.065 40.13C274.898 40.4367 274.815 40.81 274.815 41.25C274.815 41.6967 274.895 42.0733 275.055 42.38C275.222 42.6867 275.442 42.9167 275.715 43.07C275.988 43.2167 276.288 43.29 276.615 43.29ZM283.292 38.42C283.958 38.42 284.498 38.6233 284.912 39.03C285.325 39.43 285.532 40.01 285.532 40.77V44H284.632V40.9C284.632 40.3533 284.495 39.9367 284.222 39.65C283.948 39.3567 283.575 39.21 283.102 39.21C282.622 39.21 282.238 39.36 281.952 39.66C281.672 39.96 281.532 40.3967 281.532 40.97V44H280.622V38.52H281.532V39.3C281.712 39.02 281.955 38.8033 282.262 38.65C282.575 38.4967 282.918 38.42 283.292 38.42ZM288.958 44.09C288.538 44.09 288.161 44.02 287.828 43.88C287.495 43.7333 287.231 43.5333 287.038 43.28C286.845 43.02 286.738 42.7233 286.718 42.39H287.658C287.685 42.6633 287.811 42.8867 288.038 43.06C288.271 43.2333 288.575 43.32 288.948 43.32C289.295 43.32 289.568 43.2433 289.768 43.09C289.968 42.9367 290.068 42.7433 290.068 42.51C290.068 42.27 289.961 42.0933 289.748 41.98C289.535 41.86 289.205 41.7433 288.758 41.63C288.351 41.5233 288.018 41.4167 287.758 41.31C287.505 41.1967 287.285 41.0333 287.098 40.82C286.918 40.6 286.828 40.3133 286.828 39.96C286.828 39.68 286.911 39.4233 287.078 39.19C287.245 38.9567 287.481 38.7733 287.788 38.64C288.095 38.5 288.445 38.43 288.838 38.43C289.445 38.43 289.935 38.5833 290.308 38.89C290.681 39.1967 290.881 39.6167 290.908 40.15H289.998C289.978 39.8633 289.861 39.6333 289.648 39.46C289.441 39.2867 289.161 39.2 288.808 39.2C288.481 39.2 288.221 39.27 288.028 39.41C287.835 39.55 287.738 39.7333 287.738 39.96C287.738 40.14 287.795 40.29 287.908 40.41C288.028 40.5233 288.175 40.6167 288.348 40.69C288.528 40.7567 288.775 40.8333 289.088 40.92C289.481 41.0267 289.801 41.1333 290.048 41.24C290.295 41.34 290.505 41.4933 290.678 41.7C290.858 41.9067 290.951 42.1767 290.958 42.51C290.958 42.81 290.875 43.08 290.708 43.32C290.541 43.56 290.305 43.75 289.998 43.89C289.698 44.0233 289.351 44.09 288.958 44.09ZM292.533 44.06C292.359 44.06 292.213 44 292.093 43.88C291.973 43.76 291.913 43.6133 291.913 43.44C291.913 43.2667 291.973 43.12 292.093 43C292.213 42.88 292.359 42.82 292.533 42.82C292.699 42.82 292.839 42.88 292.953 43C293.073 43.12 293.133 43.2667 293.133 43.44C293.133 43.6133 293.073 43.76 292.953 43.88C292.839 44 292.699 44.06 292.533 44.06ZM14.98 59.07C14.52 59.07 14.1067 58.99 13.74 58.83C13.38 58.6633 13.0967 58.4367 12.89 58.15C12.6833 57.8567 12.5767 57.52 12.57 57.14H13.54C13.5733 57.4667 13.7067 57.7433 13.94 57.97C14.18 58.19 14.5267 58.3 14.98 58.3C15.4133 58.3 15.7533 58.1933 16 57.98C16.2533 57.76 16.38 57.48 16.38 57.14C16.38 56.8733 16.3067 56.6567 16.16 56.49C16.0133 56.3233 15.83 56.1967 15.61 56.11C15.39 56.0233 15.0933 55.93 14.72 55.83C14.26 55.71 13.89 55.59 13.61 55.47C13.3367 55.35 13.1 55.1633 12.9 54.91C12.7067 54.65 12.61 54.3033 12.61 53.87C12.61 53.49 12.7067 53.1533 12.9 52.86C13.0933 52.5667 13.3633 52.34 13.71 52.18C14.0633 52.02 14.4667 51.94 14.92 51.94C15.5733 51.94 16.1067 52.1033 16.52 52.43C16.94 52.7567 17.1767 53.19 17.23 53.73H16.23C16.1967 53.4633 16.0567 53.23 15.81 53.03C15.5633 52.8233 15.2367 52.72 14.83 52.72C14.45 52.72 14.14 52.82 13.9 53.02C13.66 53.2133 13.54 53.4867 13.54 53.84C13.54 54.0933 13.61 54.3 13.75 54.46C13.8967 54.62 14.0733 54.7433 14.28 54.83C14.4933 54.91 14.79 55.0033 15.17 55.11C15.63 55.2367 16 55.3633 16.28 55.49C16.56 55.61 16.8 55.8 17 56.06C17.2 56.3133 17.3 56.66 17.3 57.1C17.3 57.44 17.21 57.76 17.03 58.06C16.85 58.36 16.5833 58.6033 16.23 58.79C15.8767 58.9767 15.46 59.07 14.98 59.07ZM18.2991 56.25C18.2991 55.6833 18.4125 55.19 18.6391 54.77C18.8658 54.3433 19.1791 54.0133 19.5791 53.78C19.9858 53.5467 20.4491 53.43 20.9691 53.43C21.6425 53.43 22.1958 53.5933 22.6291 53.92C23.0691 54.2467 23.3591 54.7 23.4991 55.28H22.5191C22.4258 54.9467 22.2425 54.6833 21.9691 54.49C21.7025 54.2967 21.3691 54.2 20.9691 54.2C20.4491 54.2 20.0291 54.38 19.7091 54.74C19.3891 55.0933 19.2291 55.5967 19.2291 56.25C19.2291 56.91 19.3891 57.42 19.7091 57.78C20.0291 58.14 20.4491 58.32 20.9691 58.32C21.3691 58.32 21.7025 58.2267 21.9691 58.04C22.2358 57.8533 22.4191 57.5867 22.5191 57.24H23.4991C23.3525 57.8 23.0591 58.25 22.6191 58.59C22.1791 58.9233 21.6291 59.09 20.9691 59.09C20.4491 59.09 19.9858 58.9733 19.5791 58.74C19.1791 58.5067 18.8658 58.1767 18.6391 57.75C18.4125 57.3233 18.2991 56.8233 18.2991 56.25ZM27.4334 53.42C27.8467 53.42 28.22 53.51 28.5534 53.69C28.8867 53.8633 29.1467 54.1267 29.3334 54.48C29.5267 54.8333 29.6234 55.2633 29.6234 55.77V59H28.7234V55.9C28.7234 55.3533 28.5867 54.9367 28.3134 54.65C28.04 54.3567 27.6667 54.21 27.1934 54.21C26.7134 54.21 26.33 54.36 26.0434 54.66C25.7634 54.96 25.6234 55.3967 25.6234 55.97V59H24.7134V51.6H25.6234V54.3C25.8034 54.02 26.05 53.8033 26.3634 53.65C26.6834 53.4967 27.04 53.42 27.4334 53.42ZM36.1098 56.05C36.1098 56.2233 36.0998 56.4067 36.0798 56.6H31.6998C31.7332 57.14 31.9165 57.5633 32.2498 57.87C32.5898 58.17 32.9998 58.32 33.4798 58.32C33.8732 58.32 34.1998 58.23 34.4598 58.05C34.7265 57.8633 34.9132 57.6167 35.0198 57.31H35.9998C35.8532 57.8367 35.5598 58.2667 35.1198 58.6C34.6798 58.9267 34.1332 59.09 33.4798 59.09C32.9598 59.09 32.4932 58.9733 32.0798 58.74C31.6732 58.5067 31.3532 58.1767 31.1198 57.75C30.8865 57.3167 30.7698 56.8167 30.7698 56.25C30.7698 55.6833 30.8832 55.1867 31.1098 54.76C31.3365 54.3333 31.6532 54.0067 32.0598 53.78C32.4732 53.5467 32.9465 53.43 33.4798 53.43C33.9998 53.43 34.4598 53.5433 34.8598 53.77C35.2598 53.9967 35.5665 54.31 35.7798 54.71C35.9998 55.1033 36.1098 55.55 36.1098 56.05ZM35.1698 55.86C35.1698 55.5133 35.0932 55.2167 34.9398 54.97C34.7865 54.7167 34.5765 54.5267 34.3098 54.4C34.0498 54.2667 33.7598 54.2 33.4398 54.2C32.9798 54.2 32.5865 54.3467 32.2598 54.64C31.9398 54.9333 31.7565 55.34 31.7098 55.86H35.1698ZM36.971 56.24C36.971 55.68 37.0843 55.19 37.311 54.77C37.5377 54.3433 37.8477 54.0133 38.241 53.78C38.641 53.5467 39.0877 53.43 39.581 53.43C40.0077 53.43 40.4043 53.53 40.771 53.73C41.1377 53.9233 41.4177 54.18 41.611 54.5V51.6H42.531V59H41.611V57.97C41.431 58.2967 41.1643 58.5667 40.811 58.78C40.4577 58.9867 40.0443 59.09 39.571 59.09C39.0843 59.09 38.641 58.97 38.241 58.73C37.8477 58.49 37.5377 58.1533 37.311 57.72C37.0843 57.2867 36.971 56.7933 36.971 56.24ZM41.611 56.25C41.611 55.8367 41.5277 55.4767 41.361 55.17C41.1943 54.8633 40.9677 54.63 40.681 54.47C40.401 54.3033 40.091 54.22 39.751 54.22C39.411 54.22 39.101 54.3 38.821 54.46C38.541 54.62 38.3177 54.8533 38.151 55.16C37.9843 55.4667 37.901 55.8267 37.901 56.24C37.901 56.66 37.9843 57.0267 38.151 57.34C38.3177 57.6467 38.541 57.8833 38.821 58.05C39.101 58.21 39.411 58.29 39.751 58.29C40.091 58.29 40.401 58.21 40.681 58.05C40.9677 57.8833 41.1943 57.6467 41.361 57.34C41.5277 57.0267 41.611 56.6633 41.611 56.25ZM48.9288 53.52V59H48.0188V58.19C47.8455 58.47 47.6022 58.69 47.2888 58.85C46.9822 59.0033 46.6422 59.08 46.2688 59.08C45.8422 59.08 45.4588 58.9933 45.1188 58.82C44.7788 58.64 44.5088 58.3733 44.3088 58.02C44.1155 57.6667 44.0188 57.2367 44.0188 56.73V53.52H44.9188V56.61C44.9188 57.15 45.0555 57.5667 45.3288 57.86C45.6022 58.1467 45.9755 58.29 46.4488 58.29C46.9355 58.29 47.3188 58.14 47.5988 57.84C47.8788 57.54 48.0188 57.1033 48.0188 56.53V53.52H48.9288ZM51.3753 51.6V59H50.4653V51.6H51.3753ZM57.9263 56.05C57.9263 56.2233 57.9163 56.4067 57.8963 56.6H53.5163C53.5496 57.14 53.7329 57.5633 54.0663 57.87C54.4063 58.17 54.8163 58.32 55.2963 58.32C55.6896 58.32 56.0163 58.23 56.2763 58.05C56.5429 57.8633 56.7296 57.6167 56.8363 57.31H57.8163C57.6696 57.8367 57.3763 58.2667 56.9363 58.6C56.4963 58.9267 55.9496 59.09 55.2963 59.09C54.7763 59.09 54.3096 58.9733 53.8963 58.74C53.4896 58.5067 53.1696 58.1767 52.9363 57.75C52.7029 57.3167 52.5863 56.8167 52.5863 56.25C52.5863 55.6833 52.6996 55.1867 52.9263 54.76C53.1529 54.3333 53.4696 54.0067 53.8763 53.78C54.2896 53.5467 54.7629 53.43 55.2963 53.43C55.8163 53.43 56.2763 53.5433 56.6763 53.77C57.0763 53.9967 57.3829 54.31 57.5963 54.71C57.8163 55.1033 57.9263 55.55 57.9263 56.05ZM56.9863 55.86C56.9863 55.5133 56.9096 55.2167 56.7563 54.97C56.6029 54.7167 56.3929 54.5267 56.1263 54.4C55.8663 54.2667 55.5763 54.2 55.2563 54.2C54.7963 54.2 54.4029 54.3467 54.0763 54.64C53.7563 54.9333 53.5729 55.34 53.5263 55.86H56.9863ZM61.4534 56.24C61.4534 55.68 61.5668 55.19 61.7934 54.77C62.0201 54.3433 62.3301 54.0133 62.7234 53.78C63.1234 53.5467 63.5668 53.43 64.0534 53.43C64.5334 53.43 64.9501 53.5333 65.3034 53.74C65.6568 53.9467 65.9201 54.2067 66.0934 54.52V53.52H67.0134V59H66.0934V57.98C65.9134 58.3 65.6434 58.5667 65.2834 58.78C64.9301 58.9867 64.5168 59.09 64.0434 59.09C63.5568 59.09 63.1168 58.97 62.7234 58.73C62.3301 58.49 62.0201 58.1533 61.7934 57.72C61.5668 57.2867 61.4534 56.7933 61.4534 56.24ZM66.0934 56.25C66.0934 55.8367 66.0101 55.4767 65.8434 55.17C65.6768 54.8633 65.4501 54.63 65.1634 54.47C64.8834 54.3033 64.5734 54.22 64.2334 54.22C63.8934 54.22 63.5834 54.3 63.3034 54.46C63.0234 54.62 62.8001 54.8533 62.6334 55.16C62.4668 55.4667 62.3834 55.8267 62.3834 56.24C62.3834 56.66 62.4668 57.0267 62.6334 57.34C62.8001 57.6467 63.0234 57.8833 63.3034 58.05C63.5834 58.21 63.8934 58.29 64.2334 58.29C64.5734 58.29 64.8834 58.21 65.1634 58.05C65.4501 57.8833 65.6768 57.6467 65.8434 57.34C66.0101 57.0267 66.0934 56.6633 66.0934 56.25ZM73.2573 58.16L74.9573 53.52H75.9273L73.7773 59H72.7173L70.5673 53.52H71.5473L73.2573 58.16ZM81.8227 56.05C81.8227 56.2233 81.8127 56.4067 81.7927 56.6H77.4127C77.4461 57.14 77.6294 57.5633 77.9627 57.87C78.3027 58.17 78.7127 58.32 79.1927 58.32C79.5861 58.32 79.9127 58.23 80.1727 58.05C80.4394 57.8633 80.6261 57.6167 80.7327 57.31H81.7127C81.5661 57.8367 81.2727 58.2667 80.8327 58.6C80.3927 58.9267 79.8461 59.09 79.1927 59.09C78.6727 59.09 78.2061 58.9733 77.7927 58.74C77.3861 58.5067 77.0661 58.1767 76.8327 57.75C76.5994 57.3167 76.4827 56.8167 76.4827 56.25C76.4827 55.6833 76.5961 55.1867 76.8227 54.76C77.0494 54.3333 77.3661 54.0067 77.7727 53.78C78.1861 53.5467 78.6594 53.43 79.1927 53.43C79.7127 53.43 80.1727 53.5433 80.5727 53.77C80.9727 53.9967 81.2794 54.31 81.4927 54.71C81.7127 55.1033 81.8227 55.55 81.8227 56.05ZM80.8827 55.86C80.8827 55.5133 80.8061 55.2167 80.6527 54.97C80.4994 54.7167 80.2894 54.5267 80.0227 54.4C79.7627 54.2667 79.4727 54.2 79.1527 54.2C78.6927 54.2 78.2994 54.3467 77.9727 54.64C77.6527 54.9333 77.4694 55.34 77.4227 55.86H80.8827ZM84.1339 54.27V57.5C84.1339 57.7667 84.1906 57.9567 84.3039 58.07C84.4172 58.1767 84.6139 58.23 84.8939 58.23H85.5639V59H84.7439C84.2372 59 83.8572 58.8833 83.6039 58.65C83.3506 58.4167 83.2239 58.0333 83.2239 57.5V54.27H82.5139V53.52H83.2239V52.14H84.1339V53.52H85.5639V54.27H84.1339ZM91.3725 58.16L93.0725 53.52H94.0425L91.8925 59H90.8325L88.6825 53.52H89.6625L91.3725 58.16ZM95.408 52.63C95.2346 52.63 95.088 52.57 94.968 52.45C94.848 52.33 94.788 52.1833 94.788 52.01C94.788 51.8367 94.848 51.69 94.968 51.57C95.088 51.45 95.2346 51.39 95.408 51.39C95.5746 51.39 95.7146 51.45 95.828 51.57C95.948 51.69 96.008 51.8367 96.008 52.01C96.008 52.1833 95.948 52.33 95.828 52.45C95.7146 52.57 95.5746 52.63 95.408 52.63ZM95.848 53.52V59H94.938V53.52H95.848ZM99.3389 59.09C98.9189 59.09 98.5422 59.02 98.2089 58.88C97.8756 58.7333 97.6122 58.5333 97.4189 58.28C97.2256 58.02 97.1189 57.7233 97.0989 57.39H98.0389C98.0656 57.6633 98.1922 57.8867 98.4189 58.06C98.6522 58.2333 98.9556 58.32 99.3289 58.32C99.6756 58.32 99.9489 58.2433 100.149 58.09C100.349 57.9367 100.449 57.7433 100.449 57.51C100.449 57.27 100.342 57.0933 100.129 56.98C99.9156 56.86 99.5856 56.7433 99.1389 56.63C98.7322 56.5233 98.3989 56.4167 98.1389 56.31C97.8856 56.1967 97.6656 56.0333 97.4789 55.82C97.2989 55.6 97.2089 55.3133 97.2089 54.96C97.2089 54.68 97.2922 54.4233 97.4589 54.19C97.6256 53.9567 97.8622 53.7733 98.1689 53.64C98.4756 53.5 98.8256 53.43 99.2189 53.43C99.8256 53.43 100.316 53.5833 100.689 53.89C101.062 54.1967 101.262 54.6167 101.289 55.15H100.379C100.359 54.8633 100.242 54.6333 100.029 54.46C99.8222 54.2867 99.5422 54.2 99.1889 54.2C98.8622 54.2 98.6022 54.27 98.4089 54.41C98.2156 54.55 98.1189 54.7333 98.1189 54.96C98.1189 55.14 98.1756 55.29 98.2889 55.41C98.4089 55.5233 98.5556 55.6167 98.7289 55.69C98.9089 55.7567 99.1556 55.8333 99.4689 55.92C99.8622 56.0267 100.182 56.1333 100.429 56.24C100.676 56.34 100.886 56.4933 101.059 56.7C101.239 56.9067 101.332 57.1767 101.339 57.51C101.339 57.81 101.256 58.08 101.089 58.32C100.922 58.56 100.686 58.75 100.379 58.89C100.079 59.0233 99.7322 59.09 99.3389 59.09ZM103.094 52.63C102.92 52.63 102.774 52.57 102.654 52.45C102.534 52.33 102.474 52.1833 102.474 52.01C102.474 51.8367 102.534 51.69 102.654 51.57C102.774 51.45 102.92 51.39 103.094 51.39C103.26 51.39 103.4 51.45 103.514 51.57C103.634 51.69 103.694 51.8367 103.694 52.01C103.694 52.1833 103.634 52.33 103.514 52.45C103.4 52.57 103.26 52.63 103.094 52.63ZM103.534 53.52V59H102.624V53.52H103.534ZM106.194 54.27V57.5C106.194 57.7667 106.251 57.9567 106.364 58.07C106.478 58.1767 106.674 58.23 106.954 58.23H107.624V59H106.804C106.298 59 105.918 58.8833 105.664 58.65C105.411 58.4167 105.284 58.0333 105.284 57.5V54.27H104.574V53.52H105.284V52.14H106.194V53.52H107.624V54.27H106.194ZM112.503 54.27V57.5C112.503 57.7667 112.56 57.9567 112.673 58.07C112.786 58.1767 112.983 58.23 113.263 58.23H113.933V59H113.113C112.606 59 112.226 58.8833 111.973 58.65C111.72 58.4167 111.593 58.0333 111.593 57.5V54.27H110.883V53.52H111.593V52.14H112.503V53.52H113.933V54.27H112.503ZM117.426 59.09C116.912 59.09 116.446 58.9733 116.026 58.74C115.612 58.5067 115.286 58.1767 115.046 57.75C114.812 57.3167 114.696 56.8167 114.696 56.25C114.696 55.69 114.816 55.1967 115.056 54.77C115.302 54.3367 115.636 54.0067 116.056 53.78C116.476 53.5467 116.946 53.43 117.466 53.43C117.986 53.43 118.456 53.5467 118.876 53.78C119.296 54.0067 119.626 54.3333 119.866 54.76C120.112 55.1867 120.236 55.6833 120.236 56.25C120.236 56.8167 120.109 57.3167 119.856 57.75C119.609 58.1767 119.272 58.5067 118.846 58.74C118.419 58.9733 117.946 59.09 117.426 59.09ZM117.426 58.29C117.752 58.29 118.059 58.2133 118.346 58.06C118.632 57.9067 118.862 57.6767 119.036 57.37C119.216 57.0633 119.306 56.69 119.306 56.25C119.306 55.81 119.219 55.4367 119.046 55.13C118.872 54.8233 118.646 54.5967 118.366 54.45C118.086 54.2967 117.782 54.22 117.456 54.22C117.122 54.22 116.816 54.2967 116.536 54.45C116.262 54.5967 116.042 54.8233 115.876 55.13C115.709 55.4367 115.626 55.81 115.626 56.25C115.626 56.6967 115.706 57.0733 115.866 57.38C116.032 57.6867 116.252 57.9167 116.526 58.07C116.799 58.2167 117.099 58.29 117.426 58.29ZM129.098 56.05C129.098 56.2233 129.088 56.4067 129.068 56.6H124.688C124.721 57.14 124.905 57.5633 125.238 57.87C125.578 58.17 125.988 58.32 126.468 58.32C126.861 58.32 127.188 58.23 127.448 58.05C127.715 57.8633 127.901 57.6167 128.008 57.31H128.988C128.841 57.8367 128.548 58.2667 128.108 58.6C127.668 58.9267 127.121 59.09 126.468 59.09C125.948 59.09 125.481 58.9733 125.068 58.74C124.661 58.5067 124.341 58.1767 124.108 57.75C123.875 57.3167 123.758 56.8167 123.758 56.25C123.758 55.6833 123.871 55.1867 124.098 54.76C124.325 54.3333 124.641 54.0067 125.048 53.78C125.461 53.5467 125.935 53.43 126.468 53.43C126.988 53.43 127.448 53.5433 127.848 53.77C128.248 53.9967 128.555 54.31 128.768 54.71C128.988 55.1033 129.098 55.55 129.098 56.05ZM128.158 55.86C128.158 55.5133 128.081 55.2167 127.928 54.97C127.775 54.7167 127.565 54.5267 127.298 54.4C127.038 54.2667 126.748 54.2 126.428 54.2C125.968 54.2 125.575 54.3467 125.248 54.64C124.928 54.9333 124.745 55.34 124.698 55.86H128.158ZM132.969 53.42C133.636 53.42 134.176 53.6233 134.589 54.03C135.003 54.43 135.209 55.01 135.209 55.77V59H134.309V55.9C134.309 55.3533 134.173 54.9367 133.899 54.65C133.626 54.3567 133.253 54.21 132.779 54.21C132.299 54.21 131.916 54.36 131.629 54.66C131.349 54.96 131.209 55.3967 131.209 55.97V59H130.299V53.52H131.209V54.3C131.389 54.02 131.633 53.8033 131.939 53.65C132.253 53.4967 132.596 53.42 132.969 53.42ZM138.636 59.09C138.216 59.09 137.839 59.02 137.506 58.88C137.172 58.7333 136.909 58.5333 136.716 58.28C136.522 58.02 136.416 57.7233 136.396 57.39H137.336C137.362 57.6633 137.489 57.8867 137.716 58.06C137.949 58.2333 138.252 58.32 138.626 58.32C138.972 58.32 139.246 58.2433 139.446 58.09C139.646 57.9367 139.746 57.7433 139.746 57.51C139.746 57.27 139.639 57.0933 139.426 56.98C139.212 56.86 138.882 56.7433 138.436 56.63C138.029 56.5233 137.696 56.4167 137.436 56.31C137.182 56.1967 136.962 56.0333 136.776 55.82C136.596 55.6 136.506 55.3133 136.506 54.96C136.506 54.68 136.589 54.4233 136.756 54.19C136.922 53.9567 137.159 53.7733 137.466 53.64C137.772 53.5 138.122 53.43 138.516 53.43C139.122 53.43 139.612 53.5833 139.986 53.89C140.359 54.1967 140.559 54.6167 140.586 55.15H139.676C139.656 54.8633 139.539 54.6333 139.326 54.46C139.119 54.2867 138.839 54.2 138.486 54.2C138.159 54.2 137.899 54.27 137.706 54.41C137.512 54.55 137.416 54.7333 137.416 54.96C137.416 55.14 137.472 55.29 137.586 55.41C137.706 55.5233 137.852 55.6167 138.026 55.69C138.206 55.7567 138.452 55.8333 138.766 55.92C139.159 56.0267 139.479 56.1333 139.726 56.24C139.972 56.34 140.182 56.4933 140.356 56.7C140.536 56.9067 140.629 57.1767 140.636 57.51C140.636 57.81 140.552 58.08 140.386 58.32C140.219 58.56 139.982 58.75 139.676 58.89C139.376 59.0233 139.029 59.09 138.636 59.09ZM146.78 53.52V59H145.87V58.19C145.697 58.47 145.454 58.69 145.14 58.85C144.834 59.0033 144.494 59.08 144.12 59.08C143.694 59.08 143.31 58.9933 142.97 58.82C142.63 58.64 142.36 58.3733 142.16 58.02C141.967 57.6667 141.87 57.2367 141.87 56.73V53.52H142.77V56.61C142.77 57.15 142.907 57.5667 143.18 57.86C143.454 58.1467 143.827 58.29 144.3 58.29C144.787 58.29 145.17 58.14 145.45 57.84C145.73 57.54 145.87 57.1033 145.87 56.53V53.52H146.78ZM149.227 54.41C149.387 54.0967 149.614 53.8533 149.907 53.68C150.207 53.5067 150.57 53.42 150.997 53.42V54.36H150.757C149.737 54.36 149.227 54.9133 149.227 56.02V59H148.317V53.52H149.227V54.41ZM157.047 56.05C157.047 56.2233 157.037 56.4067 157.017 56.6H152.637C152.671 57.14 152.854 57.5633 153.187 57.87C153.527 58.17 153.937 58.32 154.417 58.32C154.811 58.32 155.137 58.23 155.397 58.05C155.664 57.8633 155.851 57.6167 155.957 57.31H156.937C156.791 57.8367 156.497 58.2667 156.057 58.6C155.617 58.9267 155.071 59.09 154.417 59.09C153.897 59.09 153.431 58.9733 153.017 58.74C152.611 58.5067 152.291 58.1767 152.057 57.75C151.824 57.3167 151.707 56.8167 151.707 56.25C151.707 55.6833 151.821 55.1867 152.047 54.76C152.274 54.3333 152.591 54.0067 152.997 53.78C153.411 53.5467 153.884 53.43 154.417 53.43C154.937 53.43 155.397 53.5433 155.797 53.77C156.197 53.9967 156.504 54.31 156.717 54.71C156.937 55.1033 157.047 55.55 157.047 56.05ZM156.107 55.86C156.107 55.5133 156.031 55.2167 155.877 54.97C155.724 54.7167 155.514 54.5267 155.247 54.4C154.987 54.2667 154.697 54.2 154.377 54.2C153.917 54.2 153.524 54.3467 153.197 54.64C152.877 54.9333 152.694 55.34 152.647 55.86H156.107ZM165.635 53.52L162.335 61.58H161.395L162.475 58.94L160.265 53.52H161.275L162.995 57.96L164.695 53.52H165.635ZM168.939 59.09C168.426 59.09 167.959 58.9733 167.539 58.74C167.126 58.5067 166.799 58.1767 166.559 57.75C166.326 57.3167 166.209 56.8167 166.209 56.25C166.209 55.69 166.329 55.1967 166.569 54.77C166.816 54.3367 167.149 54.0067 167.569 53.78C167.989 53.5467 168.459 53.43 168.979 53.43C169.499 53.43 169.969 53.5467 170.389 53.78C170.809 54.0067 171.139 54.3333 171.379 54.76C171.626 55.1867 171.749 55.6833 171.749 56.25C171.749 56.8167 171.623 57.3167 171.369 57.75C171.123 58.1767 170.786 58.5067 170.359 58.74C169.933 58.9733 169.459 59.09 168.939 59.09ZM168.939 58.29C169.266 58.29 169.573 58.2133 169.859 58.06C170.146 57.9067 170.376 57.6767 170.549 57.37C170.729 57.0633 170.819 56.69 170.819 56.25C170.819 55.81 170.733 55.4367 170.559 55.13C170.386 54.8233 170.159 54.5967 169.879 54.45C169.599 54.2967 169.296 54.22 168.969 54.22C168.636 54.22 168.329 54.2967 168.049 54.45C167.776 54.5967 167.556 54.8233 167.389 55.13C167.223 55.4367 167.139 55.81 167.139 56.25C167.139 56.6967 167.219 57.0733 167.379 57.38C167.546 57.6867 167.766 57.9167 168.039 58.07C168.313 58.2167 168.613 58.29 168.939 58.29ZM177.806 53.52V59H176.896V58.19C176.722 58.47 176.479 58.69 176.166 58.85C175.859 59.0033 175.519 59.08 175.146 59.08C174.719 59.08 174.336 58.9933 173.996 58.82C173.656 58.64 173.386 58.3733 173.186 58.02C172.992 57.6667 172.896 57.2367 172.896 56.73V53.52H173.796V56.61C173.796 57.15 173.932 57.5667 174.206 57.86C174.479 58.1467 174.852 58.29 175.326 58.29C175.812 58.29 176.196 58.14 176.476 57.84C176.756 57.54 176.896 57.1033 176.896 56.53V53.52H177.806ZM180.252 54.41C180.412 54.0967 180.639 53.8533 180.932 53.68C181.232 53.5067 181.596 53.42 182.022 53.42V54.36H181.782C180.762 54.36 180.252 54.9133 180.252 56.02V59H179.342V53.52H180.252V54.41ZM186.649 54.53C186.829 54.2167 187.095 53.9567 187.449 53.75C187.809 53.5367 188.225 53.43 188.699 53.43C189.185 53.43 189.625 53.5467 190.019 53.78C190.419 54.0133 190.732 54.3433 190.959 54.77C191.185 55.19 191.299 55.68 191.299 56.24C191.299 56.7933 191.185 57.2867 190.959 57.72C190.732 58.1533 190.419 58.49 190.019 58.73C189.625 58.97 189.185 59.09 188.699 59.09C188.232 59.09 187.819 58.9867 187.459 58.78C187.105 58.5667 186.835 58.3033 186.649 57.99V61.6H185.739V53.52H186.649V54.53ZM190.369 56.24C190.369 55.8267 190.285 55.4667 190.119 55.16C189.952 54.8533 189.725 54.62 189.439 54.46C189.159 54.3 188.849 54.22 188.509 54.22C188.175 54.22 187.865 54.3033 187.579 54.47C187.299 54.63 187.072 54.8667 186.899 55.18C186.732 55.4867 186.649 55.8433 186.649 56.25C186.649 56.6633 186.732 57.0267 186.899 57.34C187.072 57.6467 187.299 57.8833 187.579 58.05C187.865 58.21 188.175 58.29 188.509 58.29C188.849 58.29 189.159 58.21 189.439 58.05C189.725 57.8833 189.952 57.6467 190.119 57.34C190.285 57.0267 190.369 56.66 190.369 56.24ZM197.497 56.05C197.497 56.2233 197.487 56.4067 197.467 56.6H193.087C193.12 57.14 193.303 57.5633 193.637 57.87C193.977 58.17 194.387 58.32 194.867 58.32C195.26 58.32 195.587 58.23 195.847 58.05C196.113 57.8633 196.3 57.6167 196.407 57.31H197.387C197.24 57.8367 196.947 58.2667 196.507 58.6C196.067 58.9267 195.52 59.09 194.867 59.09C194.347 59.09 193.88 58.9733 193.467 58.74C193.06 58.5067 192.74 58.1767 192.507 57.75C192.273 57.3167 192.157 56.8167 192.157 56.25C192.157 55.6833 192.27 55.1867 192.497 54.76C192.723 54.3333 193.04 54.0067 193.447 53.78C193.86 53.5467 194.333 53.43 194.867 53.43C195.387 53.43 195.847 53.5433 196.247 53.77C196.647 53.9967 196.953 54.31 197.167 54.71C197.387 55.1033 197.497 55.55 197.497 56.05ZM196.557 55.86C196.557 55.5133 196.48 55.2167 196.327 54.97C196.173 54.7167 195.963 54.5267 195.697 54.4C195.437 54.2667 195.147 54.2 194.827 54.2C194.367 54.2 193.973 54.3467 193.647 54.64C193.327 54.9333 193.143 55.34 193.097 55.86H196.557ZM199.808 54.27V57.5C199.808 57.7667 199.864 57.9567 199.978 58.07C200.091 58.1767 200.288 58.23 200.568 58.23H201.238V59H200.418C199.911 59 199.531 58.8833 199.278 58.65C199.024 58.4167 198.898 58.0333 198.898 57.5V54.27H198.188V53.52H198.898V52.14H199.808V53.52H201.238V54.27H199.808ZM206.946 59.09C206.526 59.09 206.15 59.02 205.816 58.88C205.483 58.7333 205.22 58.5333 205.026 58.28C204.833 58.02 204.726 57.7233 204.706 57.39H205.646C205.673 57.6633 205.8 57.8867 206.026 58.06C206.26 58.2333 206.563 58.32 206.936 58.32C207.283 58.32 207.556 58.2433 207.756 58.09C207.956 57.9367 208.056 57.7433 208.056 57.51C208.056 57.27 207.95 57.0933 207.736 56.98C207.523 56.86 207.193 56.7433 206.746 56.63C206.34 56.5233 206.006 56.4167 205.746 56.31C205.493 56.1967 205.273 56.0333 205.086 55.82C204.906 55.6 204.816 55.3133 204.816 54.96C204.816 54.68 204.9 54.4233 205.066 54.19C205.233 53.9567 205.47 53.7733 205.776 53.64C206.083 53.5 206.433 53.43 206.826 53.43C207.433 53.43 207.923 53.5833 208.296 53.89C208.67 54.1967 208.87 54.6167 208.896 55.15H207.986C207.966 54.8633 207.85 54.6333 207.636 54.46C207.43 54.2867 207.15 54.2 206.796 54.2C206.47 54.2 206.21 54.27 206.016 54.41C205.823 54.55 205.726 54.7333 205.726 54.96C205.726 55.14 205.783 55.29 205.896 55.41C206.016 55.5233 206.163 55.6167 206.336 55.69C206.516 55.7567 206.763 55.8333 207.076 55.92C207.47 56.0267 207.79 56.1333 208.036 56.24C208.283 56.34 208.493 56.4933 208.666 56.7C208.846 56.9067 208.94 57.1767 208.946 57.51C208.946 57.81 208.863 58.08 208.696 58.32C208.53 58.56 208.293 58.75 207.986 58.89C207.686 59.0233 207.34 59.09 206.946 59.09ZM211.341 54.27V57.5C211.341 57.7667 211.398 57.9567 211.511 58.07C211.624 58.1767 211.821 58.23 212.101 58.23H212.771V59H211.951C211.444 59 211.064 58.8833 210.811 58.65C210.558 58.4167 210.431 58.0333 210.431 57.5V54.27H209.721V53.52H210.431V52.14H211.341V53.52H212.771V54.27H211.341ZM213.534 56.24C213.534 55.68 213.647 55.19 213.874 54.77C214.1 54.3433 214.41 54.0133 214.804 53.78C215.204 53.5467 215.647 53.43 216.134 53.43C216.614 53.43 217.03 53.5333 217.384 53.74C217.737 53.9467 218 54.2067 218.174 54.52V53.52H219.094V59H218.174V57.98C217.994 58.3 217.724 58.5667 217.364 58.78C217.01 58.9867 216.597 59.09 216.124 59.09C215.637 59.09 215.197 58.97 214.804 58.73C214.41 58.49 214.1 58.1533 213.874 57.72C213.647 57.2867 213.534 56.7933 213.534 56.24ZM218.174 56.25C218.174 55.8367 218.09 55.4767 217.924 55.17C217.757 54.8633 217.53 54.63 217.244 54.47C216.964 54.3033 216.654 54.22 216.314 54.22C215.974 54.22 215.664 54.3 215.384 54.46C215.104 54.62 214.88 54.8533 214.714 55.16C214.547 55.4667 214.464 55.8267 214.464 56.24C214.464 56.66 214.547 57.0267 214.714 57.34C214.88 57.6467 215.104 57.8833 215.384 58.05C215.664 58.21 215.974 58.29 216.314 58.29C216.654 58.29 216.964 58.21 217.244 58.05C217.53 57.8833 217.757 57.6467 217.924 57.34C218.09 57.0267 218.174 56.6633 218.174 56.25ZM225.351 53.52L222.051 61.58H221.111L222.191 58.94L219.981 53.52H220.991L222.711 57.96L224.411 53.52H225.351ZM228.206 59.09C227.786 59.09 227.409 59.02 227.076 58.88C226.743 58.7333 226.479 58.5333 226.286 58.28C226.093 58.02 225.986 57.7233 225.966 57.39H226.906C226.933 57.6633 227.059 57.8867 227.286 58.06C227.519 58.2333 227.823 58.32 228.196 58.32C228.543 58.32 228.816 58.2433 229.016 58.09C229.216 57.9367 229.316 57.7433 229.316 57.51C229.316 57.27 229.209 57.0933 228.996 56.98C228.783 56.86 228.453 56.7433 228.006 56.63C227.599 56.5233 227.266 56.4167 227.006 56.31C226.753 56.1967 226.533 56.0333 226.346 55.82C226.166 55.6 226.076 55.3133 226.076 54.96C226.076 54.68 226.159 54.4233 226.326 54.19C226.493 53.9567 226.729 53.7733 227.036 53.64C227.343 53.5 227.693 53.43 228.086 53.43C228.693 53.43 229.183 53.5833 229.556 53.89C229.929 54.1967 230.129 54.6167 230.156 55.15H229.246C229.226 54.8633 229.109 54.6333 228.896 54.46C228.689 54.2867 228.409 54.2 228.056 54.2C227.729 54.2 227.469 54.27 227.276 54.41C227.083 54.55 226.986 54.7333 226.986 54.96C226.986 55.14 227.043 55.29 227.156 55.41C227.276 55.5233 227.423 55.6167 227.596 55.69C227.776 55.7567 228.023 55.8333 228.336 55.92C228.729 56.0267 229.049 56.1333 229.296 56.24C229.543 56.34 229.753 56.4933 229.926 56.7C230.106 56.9067 230.199 57.1767 230.206 57.51C230.206 57.81 230.123 58.08 229.956 58.32C229.789 58.56 229.553 58.75 229.246 58.89C228.946 59.0233 228.599 59.09 228.206 59.09ZM235.067 54.53C235.247 54.2167 235.513 53.9567 235.867 53.75C236.227 53.5367 236.643 53.43 237.117 53.43C237.603 53.43 238.043 53.5467 238.437 53.78C238.837 54.0133 239.15 54.3433 239.377 54.77C239.603 55.19 239.717 55.68 239.717 56.24C239.717 56.7933 239.603 57.2867 239.377 57.72C239.15 58.1533 238.837 58.49 238.437 58.73C238.043 58.97 237.603 59.09 237.117 59.09C236.65 59.09 236.237 58.9867 235.877 58.78C235.523 58.5667 235.253 58.3033 235.067 57.99V61.6H234.157V53.52H235.067V54.53ZM238.787 56.24C238.787 55.8267 238.703 55.4667 238.537 55.16C238.37 54.8533 238.143 54.62 237.857 54.46C237.577 54.3 237.267 54.22 236.927 54.22C236.593 54.22 236.283 54.3033 235.997 54.47C235.717 54.63 235.49 54.8667 235.317 55.18C235.15 55.4867 235.067 55.8433 235.067 56.25C235.067 56.6633 235.15 57.0267 235.317 57.34C235.49 57.6467 235.717 57.8833 235.997 58.05C236.283 58.21 236.593 58.29 236.927 58.29C237.267 58.29 237.577 58.21 237.857 58.05C238.143 57.8833 238.37 57.6467 238.537 57.34C238.703 57.0267 238.787 56.66 238.787 56.24ZM241.825 54.41C241.985 54.0967 242.211 53.8533 242.505 53.68C242.805 53.5067 243.168 53.42 243.595 53.42V54.36H243.355C242.335 54.36 241.825 54.9133 241.825 56.02V59H240.915V53.52H241.825V54.41ZM247.035 59.09C246.522 59.09 246.055 58.9733 245.635 58.74C245.222 58.5067 244.895 58.1767 244.655 57.75C244.422 57.3167 244.305 56.8167 244.305 56.25C244.305 55.69 244.425 55.1967 244.665 54.77C244.912 54.3367 245.245 54.0067 245.665 53.78C246.085 53.5467 246.555 53.43 247.075 53.43C247.595 53.43 248.065 53.5467 248.485 53.78C248.905 54.0067 249.235 54.3333 249.475 54.76C249.722 55.1867 249.845 55.6833 249.845 56.25C249.845 56.8167 249.718 57.3167 249.465 57.75C249.218 58.1767 248.882 58.5067 248.455 58.74C248.028 58.9733 247.555 59.09 247.035 59.09ZM247.035 58.29C247.362 58.29 247.668 58.2133 247.955 58.06C248.242 57.9067 248.472 57.6767 248.645 57.37C248.825 57.0633 248.915 56.69 248.915 56.25C248.915 55.81 248.828 55.4367 248.655 55.13C248.482 54.8233 248.255 54.5967 247.975 54.45C247.695 54.2967 247.392 54.22 247.065 54.22C246.732 54.22 246.425 54.2967 246.145 54.45C245.872 54.5967 245.652 54.8233 245.485 55.13C245.318 55.4367 245.235 55.81 245.235 56.25C245.235 56.6967 245.315 57.0733 245.475 57.38C245.642 57.6867 245.862 57.9167 246.135 58.07C246.408 58.2167 246.708 58.29 247.035 58.29ZM252.151 54.27V57.5C252.151 57.7667 252.208 57.9567 252.321 58.07C252.435 58.1767 252.631 58.23 252.911 58.23H253.581V59H252.761C252.255 59 251.875 58.8833 251.621 58.65C251.368 58.4167 251.241 58.0333 251.241 57.5V54.27H250.531V53.52H251.241V52.14H252.151V53.52H253.581V54.27H252.151ZM259.684 56.05C259.684 56.2233 259.674 56.4067 259.654 56.6H255.274C255.307 57.14 255.491 57.5633 255.824 57.87C256.164 58.17 256.574 58.32 257.054 58.32C257.447 58.32 257.774 58.23 258.034 58.05C258.301 57.8633 258.487 57.6167 258.594 57.31H259.574C259.427 57.8367 259.134 58.2667 258.694 58.6C258.254 58.9267 257.707 59.09 257.054 59.09C256.534 59.09 256.067 58.9733 255.654 58.74C255.247 58.5067 254.927 58.1767 254.694 57.75C254.461 57.3167 254.344 56.8167 254.344 56.25C254.344 55.6833 254.457 55.1867 254.684 54.76C254.911 54.3333 255.227 54.0067 255.634 53.78C256.047 53.5467 256.521 53.43 257.054 53.43C257.574 53.43 258.034 53.5433 258.434 53.77C258.834 53.9967 259.141 54.31 259.354 54.71C259.574 55.1033 259.684 55.55 259.684 56.05ZM258.744 55.86C258.744 55.5133 258.667 55.2167 258.514 54.97C258.361 54.7167 258.151 54.5267 257.884 54.4C257.624 54.2667 257.334 54.2 257.014 54.2C256.554 54.2 256.161 54.3467 255.834 54.64C255.514 54.9333 255.331 55.34 255.284 55.86H258.744ZM260.545 56.25C260.545 55.6833 260.659 55.19 260.885 54.77C261.112 54.3433 261.425 54.0133 261.825 53.78C262.232 53.5467 262.695 53.43 263.215 53.43C263.889 53.43 264.442 53.5933 264.875 53.92C265.315 54.2467 265.605 54.7 265.745 55.28H264.765C264.672 54.9467 264.489 54.6833 264.215 54.49C263.949 54.2967 263.615 54.2 263.215 54.2C262.695 54.2 262.275 54.38 261.955 54.74C261.635 55.0933 261.475 55.5967 261.475 56.25C261.475 56.91 261.635 57.42 261.955 57.78C262.275 58.14 262.695 58.32 263.215 58.32C263.615 58.32 263.949 58.2267 264.215 58.04C264.482 57.8533 264.665 57.5867 264.765 57.24H265.745C265.599 57.8 265.305 58.25 264.865 58.59C264.425 58.9233 263.875 59.09 263.215 59.09C262.695 59.09 262.232 58.9733 261.825 58.74C261.425 58.5067 261.112 58.1767 260.885 57.75C260.659 57.3233 260.545 56.8233 260.545 56.25ZM268.069 54.27V57.5C268.069 57.7667 268.126 57.9567 268.239 58.07C268.353 58.1767 268.549 58.23 268.829 58.23H269.499V59H268.679C268.173 59 267.793 58.8833 267.539 58.65C267.286 58.4167 267.159 58.0333 267.159 57.5V54.27H266.449V53.52H267.159V52.14H268.069V53.52H269.499V54.27H268.069ZM275.602 56.05C275.602 56.2233 275.592 56.4067 275.572 56.6H271.192C271.225 57.14 271.409 57.5633 271.742 57.87C272.082 58.17 272.492 58.32 272.972 58.32C273.365 58.32 273.692 58.23 273.952 58.05C274.219 57.8633 274.405 57.6167 274.512 57.31H275.492C275.345 57.8367 275.052 58.2667 274.612 58.6C274.172 58.9267 273.625 59.09 272.972 59.09C272.452 59.09 271.985 58.9733 271.572 58.74C271.165 58.5067 270.845 58.1767 270.612 57.75C270.379 57.3167 270.262 56.8167 270.262 56.25C270.262 55.6833 270.375 55.1867 270.602 54.76C270.829 54.3333 271.145 54.0067 271.552 53.78C271.965 53.5467 272.439 53.43 272.972 53.43C273.492 53.43 273.952 53.5433 274.352 53.77C274.752 53.9967 275.059 54.31 275.272 54.71C275.492 55.1033 275.602 55.55 275.602 56.05ZM274.662 55.86C274.662 55.5133 274.585 55.2167 274.432 54.97C274.279 54.7167 274.069 54.5267 273.802 54.4C273.542 54.2667 273.252 54.2 272.932 54.2C272.472 54.2 272.079 54.3467 271.752 54.64C271.432 54.9333 271.249 55.34 271.202 55.86H274.662ZM276.463 56.24C276.463 55.68 276.577 55.19 276.803 54.77C277.03 54.3433 277.34 54.0133 277.733 53.78C278.133 53.5467 278.58 53.43 279.073 53.43C279.5 53.43 279.897 53.53 280.263 53.73C280.63 53.9233 280.91 54.18 281.103 54.5V51.6H282.023V59H281.103V57.97C280.923 58.2967 280.657 58.5667 280.303 58.78C279.95 58.9867 279.537 59.09 279.063 59.09C278.577 59.09 278.133 58.97 277.733 58.73C277.34 58.49 277.03 58.1533 276.803 57.72C276.577 57.2867 276.463 56.7933 276.463 56.24ZM281.103 56.25C281.103 55.8367 281.02 55.4767 280.853 55.17C280.687 54.8633 280.46 54.63 280.173 54.47C279.893 54.3033 279.583 54.22 279.243 54.22C278.903 54.22 278.593 54.3 278.313 54.46C278.033 54.62 277.81 54.8533 277.643 55.16C277.477 55.4667 277.393 55.8267 277.393 56.24C277.393 56.66 277.477 57.0267 277.643 57.34C277.81 57.6467 278.033 57.8833 278.313 58.05C278.593 58.21 278.903 58.29 279.243 58.29C279.583 58.29 279.893 58.21 280.173 58.05C280.46 57.8833 280.687 57.6467 280.853 57.34C281.02 57.0267 281.103 56.6633 281.103 56.25ZM285.887 56.24C285.887 55.68 286 55.19 286.227 54.77C286.454 54.3433 286.764 54.0133 287.157 53.78C287.557 53.5467 288 53.43 288.487 53.43C288.967 53.43 289.384 53.5333 289.737 53.74C290.09 53.9467 290.354 54.2067 290.527 54.52V53.52H291.447V59H290.527V57.98C290.347 58.3 290.077 58.5667 289.717 58.78C289.364 58.9867 288.95 59.09 288.477 59.09C287.99 59.09 287.55 58.97 287.157 58.73C286.764 58.49 286.454 58.1533 286.227 57.72C286 57.2867 285.887 56.7933 285.887 56.24ZM290.527 56.25C290.527 55.8367 290.444 55.4767 290.277 55.17C290.11 54.8633 289.884 54.63 289.597 54.47C289.317 54.3033 289.007 54.22 288.667 54.22C288.327 54.22 288.017 54.3 287.737 54.46C287.457 54.62 287.234 54.8533 287.067 55.16C286.9 55.4667 286.817 55.8267 286.817 56.24C286.817 56.66 286.9 57.0267 287.067 57.34C287.234 57.6467 287.457 57.8833 287.737 58.05C288.017 58.21 288.327 58.29 288.667 58.29C289.007 58.29 289.317 58.21 289.597 58.05C289.884 57.8833 290.11 57.6467 290.277 57.34C290.444 57.0267 290.527 56.6633 290.527 56.25ZM295.655 53.42C296.322 53.42 296.862 53.6233 297.275 54.03C297.688 54.43 297.895 55.01 297.895 55.77V59H296.995V55.9C296.995 55.3533 296.858 54.9367 296.585 54.65C296.312 54.3567 295.938 54.21 295.465 54.21C294.985 54.21 294.602 54.36 294.315 54.66C294.035 54.96 293.895 55.3967 293.895 55.97V59H292.985V53.52H293.895V54.3C294.075 54.02 294.318 53.8033 294.625 53.65C294.938 53.4967 295.282 53.42 295.655 53.42ZM299.041 56.24C299.041 55.68 299.155 55.19 299.381 54.77C299.608 54.3433 299.918 54.0133 300.311 53.78C300.711 53.5467 301.158 53.43 301.651 53.43C302.078 53.43 302.475 53.53 302.841 53.73C303.208 53.9233 303.488 54.18 303.681 54.5V51.6H304.601V59H303.681V57.97C303.501 58.2967 303.235 58.5667 302.881 58.78C302.528 58.9867 302.115 59.09 301.641 59.09C301.155 59.09 300.711 58.97 300.311 58.73C299.918 58.49 299.608 58.1533 299.381 57.72C299.155 57.2867 299.041 56.7933 299.041 56.24ZM303.681 56.25C303.681 55.8367 303.598 55.4767 303.431 55.17C303.265 54.8633 303.038 54.63 302.751 54.47C302.471 54.3033 302.161 54.22 301.821 54.22C301.481 54.22 301.171 54.3 300.891 54.46C300.611 54.62 300.388 54.8533 300.221 55.16C300.055 55.4667 299.971 55.8267 299.971 56.24C299.971 56.66 300.055 57.0267 300.221 57.34C300.388 57.6467 300.611 57.8833 300.891 58.05C301.171 58.21 301.481 58.29 301.821 58.29C302.161 58.29 302.471 58.21 302.751 58.05C303.038 57.8833 303.265 57.6467 303.431 57.34C303.598 57.0267 303.681 56.6633 303.681 56.25ZM12.43 71.25C12.43 70.6833 12.5433 70.19 12.77 69.77C12.9967 69.3433 13.31 69.0133 13.71 68.78C14.1167 68.5467 14.58 68.43 15.1 68.43C15.7733 68.43 16.3267 68.5933 16.76 68.92C17.2 69.2467 17.49 69.7 17.63 70.28H16.65C16.5567 69.9467 16.3733 69.6833 16.1 69.49C15.8333 69.2967 15.5 69.2 15.1 69.2C14.58 69.2 14.16 69.38 13.84 69.74C13.52 70.0933 13.36 70.5967 13.36 71.25C13.36 71.91 13.52 72.42 13.84 72.78C14.16 73.14 14.58 73.32 15.1 73.32C15.5 73.32 15.8333 73.2267 16.1 73.04C16.3667 72.8533 16.55 72.5867 16.65 72.24H17.63C17.4833 72.8 17.19 73.25 16.75 73.59C16.31 73.9233 15.76 74.09 15.1 74.09C14.58 74.09 14.1167 73.9733 13.71 73.74C13.31 73.5067 12.9967 73.1767 12.77 72.75C12.5433 72.3233 12.43 71.8233 12.43 71.25ZM21.2342 74.09C20.7209 74.09 20.2542 73.9733 19.8342 73.74C19.4209 73.5067 19.0942 73.1767 18.8542 72.75C18.6209 72.3167 18.5042 71.8167 18.5042 71.25C18.5042 70.69 18.6242 70.1967 18.8642 69.77C19.1109 69.3367 19.4442 69.0067 19.8642 68.78C20.2842 68.5467 20.7542 68.43 21.2742 68.43C21.7942 68.43 22.2642 68.5467 22.6842 68.78C23.1042 69.0067 23.4342 69.3333 23.6742 69.76C23.9209 70.1867 24.0442 70.6833 24.0442 71.25C24.0442 71.8167 23.9176 72.3167 23.6642 72.75C23.4176 73.1767 23.0809 73.5067 22.6542 73.74C22.2276 73.9733 21.7542 74.09 21.2342 74.09ZM21.2342 73.29C21.5609 73.29 21.8676 73.2133 22.1542 73.06C22.4409 72.9067 22.6709 72.6767 22.8442 72.37C23.0242 72.0633 23.1142 71.69 23.1142 71.25C23.1142 70.81 23.0276 70.4367 22.8542 70.13C22.6809 69.8233 22.4542 69.5967 22.1742 69.45C21.8942 69.2967 21.5909 69.22 21.2642 69.22C20.9309 69.22 20.6242 69.2967 20.3442 69.45C20.0709 69.5967 19.8509 69.8233 19.6842 70.13C19.5176 70.4367 19.4342 70.81 19.4342 71.25C19.4342 71.6967 19.5142 72.0733 19.6742 72.38C19.8409 72.6867 20.0609 72.9167 20.3342 73.07C20.6076 73.2167 20.9076 73.29 21.2342 73.29ZM31.8307 68.42C32.2574 68.42 32.6374 68.51 32.9707 68.69C33.304 68.8633 33.5674 69.1267 33.7607 69.48C33.954 69.8333 34.0507 70.2633 34.0507 70.77V74H33.1507V70.9C33.1507 70.3533 33.014 69.9367 32.7407 69.65C32.474 69.3567 32.1107 69.21 31.6507 69.21C31.1774 69.21 30.8007 69.3633 30.5207 69.67C30.2407 69.97 30.1007 70.4067 30.1007 70.98V74H29.2007V70.9C29.2007 70.3533 29.064 69.9367 28.7907 69.65C28.524 69.3567 28.1607 69.21 27.7007 69.21C27.2274 69.21 26.8507 69.3633 26.5707 69.67C26.2907 69.97 26.1507 70.4067 26.1507 70.98V74H25.2407V68.52H26.1507V69.31C26.3307 69.0233 26.5707 68.8033 26.8707 68.65C27.1774 68.4967 27.514 68.42 27.8807 68.42C28.3407 68.42 28.7474 68.5233 29.1007 68.73C29.454 68.9367 29.7174 69.24 29.8907 69.64C30.044 69.2533 30.2974 68.9533 30.6507 68.74C31.004 68.5267 31.3974 68.42 31.8307 68.42ZM36.4534 69.53C36.6334 69.2167 36.9001 68.9567 37.2534 68.75C37.6134 68.5367 38.0301 68.43 38.5034 68.43C38.9901 68.43 39.4301 68.5467 39.8234 68.78C40.2234 69.0133 40.5368 69.3433 40.7634 69.77C40.9901 70.19 41.1034 70.68 41.1034 71.24C41.1034 71.7933 40.9901 72.2867 40.7634 72.72C40.5368 73.1533 40.2234 73.49 39.8234 73.73C39.4301 73.97 38.9901 74.09 38.5034 74.09C38.0368 74.09 37.6234 73.9867 37.2634 73.78C36.9101 73.5667 36.6401 73.3033 36.4534 72.99V76.6H35.5434V68.52H36.4534V69.53ZM40.1734 71.24C40.1734 70.8267 40.0901 70.4667 39.9234 70.16C39.7568 69.8533 39.5301 69.62 39.2434 69.46C38.9634 69.3 38.6534 69.22 38.3134 69.22C37.9801 69.22 37.6701 69.3033 37.3834 69.47C37.1034 69.63 36.8768 69.8667 36.7034 70.18C36.5368 70.4867 36.4534 70.8433 36.4534 71.25C36.4534 71.6633 36.5368 72.0267 36.7034 72.34C36.8768 72.6467 37.1034 72.8833 37.3834 73.05C37.6701 73.21 37.9801 73.29 38.3134 73.29C38.6534 73.29 38.9634 73.21 39.2434 73.05C39.5301 72.8833 39.7568 72.6467 39.9234 72.34C40.0901 72.0267 40.1734 71.66 40.1734 71.24ZM43.2113 66.6V74H42.3013V66.6H43.2113ZM45.2322 67.63C45.0589 67.63 44.9122 67.57 44.7922 67.45C44.6722 67.33 44.6122 67.1833 44.6122 67.01C44.6122 66.8367 44.6722 66.69 44.7922 66.57C44.9122 66.45 45.0589 66.39 45.2322 66.39C45.3989 66.39 45.5389 66.45 45.6522 66.57C45.7722 66.69 45.8322 66.8367 45.8322 67.01C45.8322 67.1833 45.7722 67.33 45.6522 67.45C45.5389 67.57 45.3989 67.63 45.2322 67.63ZM45.6722 68.52V74H44.7622V68.52H45.6722ZM46.8831 71.24C46.8831 70.68 46.9965 70.19 47.2231 69.77C47.4498 69.3433 47.7598 69.0133 48.1531 68.78C48.5531 68.5467 48.9965 68.43 49.4831 68.43C49.9631 68.43 50.3798 68.5333 50.7331 68.74C51.0865 68.9467 51.3498 69.2067 51.5231 69.52V68.52H52.4431V74H51.5231V72.98C51.3431 73.3 51.0731 73.5667 50.7131 73.78C50.3598 73.9867 49.9465 74.09 49.4731 74.09C48.9865 74.09 48.5465 73.97 48.1531 73.73C47.7598 73.49 47.4498 73.1533 47.2231 72.72C46.9965 72.2867 46.8831 71.7933 46.8831 71.24ZM51.5231 71.25C51.5231 70.8367 51.4398 70.4767 51.2731 70.17C51.1065 69.8633 50.8798 69.63 50.5931 69.47C50.3131 69.3033 50.0031 69.22 49.6631 69.22C49.3231 69.22 49.0131 69.3 48.7331 69.46C48.4531 69.62 48.2298 69.8533 48.0631 70.16C47.8965 70.4667 47.8131 70.8267 47.8131 71.24C47.8131 71.66 47.8965 72.0267 48.0631 72.34C48.2298 72.6467 48.4531 72.8833 48.7331 73.05C49.0131 73.21 49.3231 73.29 49.6631 73.29C50.0031 73.29 50.3131 73.21 50.5931 73.05C50.8798 72.8833 51.1065 72.6467 51.2731 72.34C51.4398 72.0267 51.5231 71.6633 51.5231 71.25ZM56.6509 68.42C57.3176 68.42 57.8576 68.6233 58.2709 69.03C58.6843 69.43 58.8909 70.01 58.8909 70.77V74H57.9909V70.9C57.9909 70.3533 57.8543 69.9367 57.5809 69.65C57.3076 69.3567 56.9343 69.21 56.4609 69.21C55.9809 69.21 55.5976 69.36 55.3109 69.66C55.0309 69.96 54.8909 70.3967 54.8909 70.97V74H53.9809V68.52H54.8909V69.3C55.0709 69.02 55.3143 68.8033 55.6209 68.65C55.9343 68.4967 56.2776 68.42 56.6509 68.42ZM61.4874 69.27V72.5C61.4874 72.7667 61.5441 72.9567 61.6574 73.07C61.7708 73.1767 61.9674 73.23 62.2474 73.23H62.9174V74H62.0974C61.5908 74 61.2108 73.8833 60.9574 73.65C60.7041 73.4167 60.5774 73.0333 60.5774 72.5V69.27H59.8674V68.52H60.5774V67.14H61.4874V68.52H62.9174V69.27H61.4874ZM64.31 74.06C64.1367 74.06 63.99 74 63.87 73.88C63.75 73.76 63.69 73.6133 63.69 73.44C63.69 73.2667 63.75 73.12 63.87 73C63.99 72.88 64.1367 72.82 64.31 72.82C64.4767 72.82 64.6167 72.88 64.73 73C64.85 73.12 64.91 73.2667 64.91 73.44C64.91 73.6133 64.85 73.76 64.73 73.88C64.6167 74 64.4767 74.06 64.31 74.06Z" fill="#727979"/>
<g opacity="0.8">
<g opacity="0.6" filter="url(#filter0_f_2098_213601)">
<path d="M272.053 54.6834C272.938 53.8569 273.823 53.0304 274.709 52.2039C290.646 37.3271 306.584 22.4502 322.521 7.57338C323.407 6.7469 324.292 5.9204 325.178 5.09391C323.999 3.9154 322.821 2.73688 321.642 1.55837C320.816 2.44379 319.989 3.32921 319.163 4.21462C304.286 20.1521 289.409 36.0896 274.532 52.0272C273.706 52.9126 272.879 53.798 272.053 54.6834Z" fill="#E51D22"/>
</g>
<g opacity="0.6" filter="url(#filter1_f_2098_213601)">
<path d="M289.916 54.6834C290.801 53.8569 291.687 53.0304 292.572 52.2039C308.51 37.3271 324.447 22.4502 340.385 7.57338C341.27 6.7469 342.155 5.9204 343.041 5.09391C341.862 3.9154 340.684 2.73688 339.505 1.55837C338.679 2.44379 337.852 3.32921 337.026 4.21462C322.149 20.1521 307.272 36.0896 292.395 52.0272C291.569 52.9126 290.742 53.798 289.916 54.6834Z" fill="#E51D22"/>
</g>
<g opacity="0.6" filter="url(#filter2_f_2098_213601)">
<path d="M272.053 36.8201C272.938 35.9936 273.823 35.1671 274.709 34.3406C290.646 19.4638 306.584 4.58695 322.521 -10.2899C323.407 -11.1164 324.292 -11.9429 325.178 -12.7694C323.999 -13.9479 322.821 -15.1264 321.642 -16.3049C320.816 -15.4195 319.989 -14.5341 319.163 -13.6487C304.286 2.28885 289.409 18.2264 274.532 34.1639C273.706 35.0493 272.879 35.9347 272.053 36.8201Z" fill="#E51D22"/>
</g>
<g filter="url(#filter3_f_2098_213601)">
<ellipse cx="323.927" cy="-6.78105" rx="44.845" ry="24.1417" transform="rotate(27.6964 323.927 -6.78105)" fill="#E51D22"/>
<path d="M334.916 -27.7141C345.822 -21.9891 354.424 -14.4371 359.525 -6.87808C364.638 0.700096 366.164 8.16828 363.192 13.83C360.22 19.4918 353.206 22.4771 344.065 22.5726C334.947 22.6679 323.845 19.8765 312.939 14.1516C302.033 8.42667 293.431 0.874886 288.331 -6.68398C283.218 -14.2622 281.691 -21.7303 284.663 -27.3921C287.635 -33.0538 294.649 -36.0391 303.79 -36.1347C312.909 -36.2299 324.01 -33.4389 334.916 -27.7141Z" stroke="#E51D22"/>
</g>
<rect opacity="0.5" x="309.878" y="27.8427" width="0.279116" height="0.279116" rx="0.139558" fill="white" stroke="#E51D22" stroke-width="0.279116"/>
<rect opacity="0.7" x="295.362" y="22.2607" width="0.279116" height="0.279116" rx="0.139558" fill="white" stroke="#E51D22" stroke-width="0.279116"/>
<rect opacity="0.7" x="280.655" y="36.4931" width="0.279116" height="0.279116" rx="0.139558" fill="white" stroke="#E51D22" stroke-width="0.279116"/>
<rect opacity="0.7" x="278.425" y="16.3993" width="0.279116" height="0.279116" rx="0.139558" fill="white" stroke="#E51D22" stroke-width="0.279116"/>
<rect opacity="0.7" x="296.479" y="40.122" width="0.279116" height="0.279116" rx="0.139558" fill="white" stroke="#E51D22" stroke-width="0.279116"/>
<rect opacity="0.7" x="305.222" y="15.2821" width="0.279116" height="0.279116" rx="0.139558" fill="white" stroke="#E51D22" stroke-width="0.279116"/>
<rect opacity="0.7" x="312.112" y="44.5888" width="0.279116" height="0.279116" rx="0.139558" fill="white" stroke="#E51D22" stroke-width="0.279116"/>
</g>
</g>
<path d="M24 0.5H318C321.734 0.5 324.51 0.500557 326.721 0.651367C328.926 0.801877 330.533 1.10019 331.932 1.67969C335.73 3.25284 338.747 6.27042 340.32 10.0684C340.9 11.4674 341.198 13.0736 341.349 15.2793C341.499 17.4896 341.5 20.2656 341.5 24V66C341.5 69.7344 341.499 72.5104 341.349 74.7207C341.198 76.9264 340.9 78.5326 340.32 79.9316C338.747 83.7296 335.73 86.7472 331.932 88.3203C330.533 88.8998 328.926 89.1981 326.721 89.3486C324.51 89.4994 321.734 89.5 318 89.5H24C20.2656 89.5 17.4896 89.4994 15.2793 89.3486C13.0736 89.1981 11.4674 88.8998 10.0684 88.3203C6.27043 86.7472 3.25284 83.7296 1.67969 79.9316C1.10019 78.5326 0.801876 76.9264 0.651367 74.7207C0.500557 72.5104 0.5 69.7344 0.5 66V24C0.5 20.2656 0.500557 17.4896 0.651367 15.2793C0.801876 13.0736 1.1002 11.4674 1.67969 10.0684C3.25284 6.27042 6.27042 3.25284 10.0684 1.67969C11.4674 1.1002 13.0736 0.801876 15.2793 0.651367C17.4896 0.500557 20.2656 0.5 24 0.5Z" stroke="#E51D22" stroke-opacity="0.1"/>
<defs>
<filter id="filter0_f_2098_213601" x="266.053" y="-4.44141" width="65.125" height="65.125" filterUnits="userSpaceOnUse" color-interpolation-filters="sRGB">
<feFlood flood-opacity="0" result="BackgroundImageFix"/>
<feBlend mode="normal" in="SourceGraphic" in2="BackgroundImageFix" result="shape"/>
<feGaussianBlur stdDeviation="3" result="effect1_foregroundBlur_2098_213601"/>
</filter>
<filter id="filter1_f_2098_213601" x="283.916" y="-4.44141" width="65.125" height="65.125" filterUnits="userSpaceOnUse" color-interpolation-filters="sRGB">
<feFlood flood-opacity="0" result="BackgroundImageFix"/>
<feBlend mode="normal" in="SourceGraphic" in2="BackgroundImageFix" result="shape"/>
<feGaussianBlur stdDeviation="3" result="effect1_foregroundBlur_2098_213601"/>
</filter>
<filter id="filter2_f_2098_213601" x="266.053" y="-22.3047" width="65.125" height="65.125" filterUnits="userSpaceOnUse" color-interpolation-filters="sRGB">
<feFlood flood-opacity="0" result="BackgroundImageFix"/>
<feBlend mode="normal" in="SourceGraphic" in2="BackgroundImageFix" result="shape"/>
<feGaussianBlur stdDeviation="3" result="effect1_foregroundBlur_2098_213601"/>
</filter>
<filter id="filter3_f_2098_213601" x="252.655" y="-66.6367" width="142.545" height="119.711" filterUnits="userSpaceOnUse" color-interpolation-filters="sRGB">
<feFlood flood-opacity="0" result="BackgroundImageFix"/>
<feBlend mode="normal" in="SourceGraphic" in2="BackgroundImageFix" result="shape"/>
<feGaussianBlur stdDeviation="15" result="effect1_foregroundBlur_2098_213601"/>
</filter>
<clipPath id="clip0_2098_213601">
<path d="M0 24C0 16.5449 0 12.8174 1.21793 9.87706C2.84183 5.95662 5.95662 2.84183 9.87706 1.21793C12.8174 0 16.5449 0 24 0H318C325.455 0 329.183 0 332.123 1.21793C336.043 2.84183 339.158 5.95662 340.782 9.87706C342 12.8174 342 16.5449 342 24V66C342 73.4551 342 77.1826 340.782 80.1229C339.158 84.0434 336.043 87.1582 332.123 88.7821C329.183 90 325.455 90 318 90H24C16.5449 90 12.8174 90 9.87706 88.7821C5.95662 87.1582 2.84183 84.0434 1.21793 80.1229C0 77.1826 0 73.4551 0 66V24Z" fill="white"/>
</clipPath>
</defs>
</svg>
