<svg width="350" height="73" viewBox="0 0 350 73" fill="none" xmlns="http://www.w3.org/2000/svg">
<g clip-path="url(#clip0_2098_213901)">
<path d="M0 20C0 8.95431 8.95431 0 20 0H330C341.046 0 350 8.95431 350 20V53C350 64.0457 341.046 73 330 73H20C8.9543 73 0 64.0457 0 53V20Z" fill="white"/>
<g opacity="0.8">
<g opacity="0.6" filter="url(#filter0_f_2098_213901)">
<path d="M272.053 54.6834C272.938 53.8569 273.823 53.0304 274.709 52.2039C290.646 37.3271 306.584 22.4502 322.521 7.57338C323.407 6.7469 324.292 5.9204 325.178 5.09391C323.999 3.9154 322.821 2.73688 321.642 1.55837C320.816 2.44379 319.989 3.32921 319.163 4.21462C304.286 20.1521 289.409 36.0896 274.532 52.0272C273.706 52.9126 272.879 53.798 272.053 54.6834Z" fill="#1D9C3D"/>
</g>
<g opacity="0.6" filter="url(#filter1_f_2098_213901)">
<path d="M289.916 54.6834C290.801 53.8569 291.687 53.0304 292.572 52.2039C308.51 37.3271 324.447 22.4502 340.385 7.57338C341.27 6.7469 342.155 5.9204 343.041 5.09391C341.862 3.9154 340.684 2.73688 339.505 1.55837C338.679 2.44379 337.852 3.32921 337.026 4.21462C322.149 20.1521 307.272 36.0896 292.395 52.0272C291.569 52.9126 290.742 53.798 289.916 54.6834Z" fill="#1D9C3D"/>
</g>
<g opacity="0.6" filter="url(#filter2_f_2098_213901)">
<path d="M272.053 36.8201C272.938 35.9936 273.823 35.1671 274.709 34.3406C290.646 19.4638 306.584 4.58695 322.521 -10.2899C323.407 -11.1164 324.292 -11.9429 325.178 -12.7694C323.999 -13.9479 322.821 -15.1264 321.642 -16.3049C320.816 -15.4195 319.989 -14.5341 319.163 -13.6487C304.286 2.28885 289.409 18.2264 274.532 34.1639C273.706 35.0493 272.879 35.9347 272.053 36.8201Z" fill="#1D9C3D"/>
</g>
<g filter="url(#filter3_f_2098_213901)">
<ellipse cx="323.927" cy="-6.78105" rx="44.845" ry="24.1417" transform="rotate(27.6964 323.927 -6.78105)" fill="#1D9C3D"/>
<path d="M334.916 -27.7141C345.822 -21.9891 354.424 -14.4371 359.525 -6.87808C364.638 0.700096 366.164 8.16828 363.192 13.83C360.22 19.4918 353.206 22.4771 344.065 22.5726C334.947 22.6679 323.845 19.8765 312.939 14.1516C302.033 8.42667 293.431 0.874886 288.331 -6.68398C283.218 -14.2622 281.691 -21.7303 284.663 -27.3921C287.635 -33.0538 294.649 -36.0391 303.79 -36.1347C312.909 -36.2299 324.01 -33.4389 334.916 -27.7141Z" stroke="#1D9C3D"/>
</g>
<rect opacity="0.5" x="309.878" y="27.8427" width="0.279116" height="0.279116" rx="0.139558" fill="white" stroke="#1D9C3D" stroke-width="0.279116"/>
<rect opacity="0.7" x="295.362" y="22.2607" width="0.279116" height="0.279116" rx="0.139558" fill="white" stroke="#1D9C3D" stroke-width="0.279116"/>
<rect opacity="0.7" x="280.655" y="36.4931" width="0.279116" height="0.279116" rx="0.139558" fill="white" stroke="#1D9C3D" stroke-width="0.279116"/>
<rect opacity="0.7" x="278.425" y="16.3993" width="0.279116" height="0.279116" rx="0.139558" fill="white" stroke="#1D9C3D" stroke-width="0.279116"/>
<rect opacity="0.7" x="296.479" y="40.122" width="0.279116" height="0.279116" rx="0.139558" fill="white" stroke="#1D9C3D" stroke-width="0.279116"/>
<rect opacity="0.7" x="305.222" y="15.2821" width="0.279116" height="0.279116" rx="0.139558" fill="white" stroke="#1D9C3D" stroke-width="0.279116"/>
<rect opacity="0.7" x="312.112" y="44.5888" width="0.279116" height="0.279116" rx="0.139558" fill="white" stroke="#1D9C3D" stroke-width="0.279116"/>
</g>
<g filter="url(#filter4_d_2098_213901)">
<path d="M16 36.5C16 25.4543 24.9543 16.5 36 16.5C47.0457 16.5 56 25.4543 56 36.5C56 47.5457 47.0457 56.5 36 56.5C24.9543 56.5 16 47.5457 16 36.5Z" fill="#1D9C3D" fill-opacity="0.1" shape-rendering="crispEdges"/>
<path d="M36 17C46.7696 17 55.5 25.7304 55.5 36.5C55.5 47.2696 46.7696 56 36 56C25.2304 56 16.5 47.2696 16.5 36.5C16.5 25.7304 25.2304 17 36 17Z" stroke="white" stroke-opacity="0.1" shape-rendering="crispEdges"/>
<path d="M36.0003 44.8332C40.5837 44.8332 44.3337 41.0832 44.3337 36.4998C44.3337 31.9165 40.5837 28.1665 36.0003 28.1665C31.417 28.1665 27.667 31.9165 27.667 36.4998C27.667 41.0832 31.417 44.8332 36.0003 44.8332Z" stroke="#1D9C3D" stroke-width="1.5" stroke-linecap="round" stroke-linejoin="round"/>
<path d="M32.458 36.4999L34.8163 38.8583L39.5413 34.1416" stroke="#1D9C3D" stroke-width="1.5" stroke-linecap="round" stroke-linejoin="round"/>
</g>
<path d="M72.864 31L70.4 26.648H69.344V31H67.104V19.832H71.296C72.16 19.832 72.896 19.9867 73.504 20.296C74.112 20.5947 74.5653 21.0053 74.864 21.528C75.1733 22.04 75.328 22.616 75.328 23.256C75.328 23.992 75.1147 24.6587 74.688 25.256C74.2613 25.8427 73.6267 26.248 72.784 26.472L75.456 31H72.864ZM69.344 24.968H71.216C71.824 24.968 72.2773 24.824 72.576 24.536C72.8747 24.2373 73.024 23.8267 73.024 23.304C73.024 22.792 72.8747 22.3973 72.576 22.12C72.2773 21.832 71.824 21.688 71.216 21.688H69.344V24.968ZM85.594 26.376C85.594 26.696 85.5727 26.984 85.53 27.24H79.05C79.1033 27.88 79.3273 28.3813 79.722 28.744C80.1167 29.1067 80.602 29.288 81.178 29.288C82.01 29.288 82.602 28.9307 82.954 28.216H85.37C85.114 29.0693 84.6233 29.7733 83.898 30.328C83.1727 30.872 82.282 31.144 81.226 31.144C80.3727 31.144 79.6047 30.9573 78.922 30.584C78.25 30.2 77.722 29.6613 77.338 28.968C76.9647 28.2747 76.778 27.4747 76.778 26.568C76.778 25.6507 76.9647 24.8453 77.338 24.152C77.7113 23.4587 78.234 22.9253 78.906 22.552C79.578 22.1787 80.3513 21.992 81.226 21.992C82.0687 21.992 82.8207 22.1733 83.482 22.536C84.154 22.8987 84.6713 23.416 85.034 24.088C85.4073 24.7493 85.594 25.512 85.594 26.376ZM83.274 25.736C83.2633 25.16 83.0553 24.7013 82.65 24.36C82.2447 24.008 81.7487 23.832 81.162 23.832C80.6073 23.832 80.138 24.0027 79.754 24.344C79.3807 24.6747 79.1513 25.1387 79.066 25.736H83.274ZM86.653 26.552C86.653 25.6667 86.8343 24.8827 87.197 24.2C87.5703 23.5067 88.0717 22.968 88.701 22.584C89.3303 22.2 90.0237 22.008 90.781 22.008C91.4103 22.008 91.965 22.1307 92.445 22.376C92.9357 22.6107 93.3303 22.9147 93.629 23.288V22.136H95.885V35.224H93.629V29.784C93.3303 30.168 92.9303 30.488 92.429 30.744C91.9277 31 91.3623 31.128 90.733 31.128C89.9863 31.128 89.2983 30.936 88.669 30.552C88.0503 30.1573 87.5597 29.6133 87.197 28.92C86.8343 28.2267 86.653 27.4373 86.653 26.552ZM93.629 26.568C93.629 26.024 93.517 25.5547 93.293 25.16C93.069 24.7653 92.7757 24.4667 92.413 24.264C92.061 24.0613 91.6823 23.96 91.277 23.96C90.8823 23.96 90.5037 24.0613 90.141 24.264C89.789 24.4667 89.501 24.7653 89.277 25.16C89.053 25.544 88.941 26.008 88.941 26.552C88.941 27.096 89.053 27.5707 89.277 27.976C89.501 28.3707 89.789 28.6693 90.141 28.872C90.5037 29.0747 90.8823 29.176 91.277 29.176C91.6823 29.176 92.061 29.0747 92.413 28.872C92.7757 28.6693 93.069 28.3707 93.293 27.976C93.517 27.5813 93.629 27.112 93.629 26.568ZM106.441 22.136V31H104.185V29.88C103.897 30.264 103.518 30.568 103.049 30.792C102.59 31.0053 102.089 31.112 101.545 31.112C100.851 31.112 100.238 30.968 99.7048 30.68C99.1714 30.3813 98.7501 29.9493 98.4408 29.384C98.1421 28.808 97.9928 28.1253 97.9928 27.336V22.136H100.233V27.016C100.233 27.72 100.409 28.264 100.761 28.648C101.113 29.0213 101.593 29.208 102.201 29.208C102.819 29.208 103.305 29.0213 103.657 28.648C104.009 28.264 104.185 27.72 104.185 27.016V22.136H106.441ZM109.787 21.08C109.392 21.08 109.062 20.9573 108.795 20.712C108.539 20.456 108.411 20.1413 108.411 19.768C108.411 19.3947 108.539 19.0853 108.795 18.84C109.062 18.584 109.392 18.456 109.787 18.456C110.182 18.456 110.507 18.584 110.763 18.84C111.03 19.0853 111.163 19.3947 111.163 19.768C111.163 20.1413 111.03 20.456 110.763 20.712C110.507 20.9573 110.182 21.08 109.787 21.08ZM110.891 22.136V31H108.651V22.136H110.891ZM115.344 23.512C115.632 23.0427 116.005 22.6747 116.464 22.408C116.933 22.1413 117.467 22.008 118.064 22.008V24.36H117.472C116.768 24.36 116.235 24.5253 115.872 24.856C115.52 25.1867 115.344 25.7627 115.344 26.584V31H113.104V22.136H115.344V23.512ZM127.813 26.376C127.813 26.696 127.791 26.984 127.749 27.24H121.269C121.322 27.88 121.546 28.3813 121.941 28.744C122.335 29.1067 122.821 29.288 123.397 29.288C124.229 29.288 124.821 28.9307 125.173 28.216H127.589C127.333 29.0693 126.842 29.7733 126.117 30.328C125.391 30.872 124.501 31.144 123.445 31.144C122.591 31.144 121.823 30.9573 121.141 30.584C120.469 30.2 119.941 29.6613 119.557 28.968C119.183 28.2747 118.997 27.4747 118.997 26.568C118.997 25.6507 119.183 24.8453 119.557 24.152C119.93 23.4587 120.453 22.9253 121.125 22.552C121.797 22.1787 122.57 21.992 123.445 21.992C124.287 21.992 125.039 22.1733 125.701 22.536C126.373 22.8987 126.89 23.416 127.253 24.088C127.626 24.7493 127.813 25.512 127.813 26.376ZM125.493 25.736C125.482 25.16 125.274 24.7013 124.869 24.36C124.463 24.008 123.967 23.832 123.381 23.832C122.826 23.832 122.357 24.0027 121.973 24.344C121.599 24.6747 121.37 25.1387 121.285 25.736H125.493ZM128.872 26.536C128.872 25.64 129.048 24.8453 129.4 24.152C129.762 23.4587 130.253 22.9253 130.872 22.552C131.49 22.1787 132.178 21.992 132.936 21.992C133.512 21.992 134.061 22.12 134.584 22.376C135.106 22.6213 135.522 22.952 135.832 23.368V19.16H138.104V31H135.832V29.688C135.554 30.1253 135.165 30.4773 134.664 30.744C134.162 31.0107 133.581 31.144 132.92 31.144C132.173 31.144 131.49 30.952 130.872 30.568C130.253 30.184 129.762 29.6453 129.4 28.952C129.048 28.248 128.872 27.4427 128.872 26.536ZM135.848 26.568C135.848 26.024 135.741 25.56 135.528 25.176C135.314 24.7813 135.026 24.4827 134.664 24.28C134.301 24.0667 133.912 23.96 133.496 23.96C133.08 23.96 132.696 24.0613 132.344 24.264C131.992 24.4667 131.704 24.7653 131.48 25.16C131.266 25.544 131.16 26.0027 131.16 26.536C131.16 27.0693 131.266 27.5387 131.48 27.944C131.704 28.3387 131.992 28.6427 132.344 28.856C132.706 29.0693 133.09 29.176 133.496 29.176C133.912 29.176 134.301 29.0747 134.664 28.872C135.026 28.6587 135.314 28.36 135.528 27.976C135.741 27.5813 135.848 27.112 135.848 26.568ZM154.136 19.832L150.04 31H147.32L143.224 19.832H145.624L148.696 28.712L151.752 19.832H154.136ZM154.903 26.536C154.903 25.64 155.079 24.8453 155.431 24.152C155.794 23.4587 156.279 22.9253 156.887 22.552C157.506 22.1787 158.194 21.992 158.951 21.992C159.612 21.992 160.188 22.1253 160.679 22.392C161.18 22.6587 161.58 22.9947 161.879 23.4V22.136H164.135V31H161.879V29.704C161.591 30.12 161.191 30.4667 160.679 30.744C160.178 31.0107 159.596 31.144 158.935 31.144C158.188 31.144 157.506 30.952 156.887 30.568C156.279 30.184 155.794 29.6453 155.431 28.952C155.079 28.248 154.903 27.4427 154.903 26.536ZM161.879 26.568C161.879 26.024 161.772 25.56 161.559 25.176C161.346 24.7813 161.058 24.4827 160.695 24.28C160.332 24.0667 159.943 23.96 159.527 23.96C159.111 23.96 158.727 24.0613 158.375 24.264C158.023 24.4667 157.735 24.7653 157.511 25.16C157.298 25.544 157.191 26.0027 157.191 26.536C157.191 27.0693 157.298 27.5387 157.511 27.944C157.735 28.3387 158.023 28.6427 158.375 28.856C158.738 29.0693 159.122 29.176 159.527 29.176C159.943 29.176 160.332 29.0747 160.695 28.872C161.058 28.6587 161.346 28.36 161.559 27.976C161.772 27.5813 161.879 27.112 161.879 26.568ZM165.747 26.568C165.747 25.6507 165.933 24.8507 166.307 24.168C166.68 23.4747 167.197 22.9413 167.859 22.568C168.52 22.184 169.277 21.992 170.131 21.992C171.229 21.992 172.136 22.2693 172.851 22.824C173.576 23.368 174.061 24.136 174.307 25.128H171.891C171.763 24.744 171.544 24.4453 171.235 24.232C170.936 24.008 170.563 23.896 170.115 23.896C169.475 23.896 168.968 24.1307 168.595 24.6C168.221 25.0587 168.035 25.7147 168.035 26.568C168.035 27.4107 168.221 28.0667 168.595 28.536C168.968 28.9947 169.475 29.224 170.115 29.224C171.021 29.224 171.613 28.8187 171.891 28.008H174.307C174.061 28.968 173.576 29.7307 172.851 30.296C172.125 30.8613 171.219 31.144 170.131 31.144C169.277 31.144 168.52 30.9573 167.859 30.584C167.197 30.2 166.68 29.6667 166.307 28.984C165.933 28.2907 165.747 27.4853 165.747 26.568ZM175.372 26.568C175.372 25.6507 175.558 24.8507 175.932 24.168C176.305 23.4747 176.822 22.9413 177.484 22.568C178.145 22.184 178.902 21.992 179.756 21.992C180.854 21.992 181.761 22.2693 182.476 22.824C183.201 23.368 183.686 24.136 183.932 25.128H181.516C181.388 24.744 181.169 24.4453 180.86 24.232C180.561 24.008 180.188 23.896 179.74 23.896C179.1 23.896 178.593 24.1307 178.22 24.6C177.846 25.0587 177.66 25.7147 177.66 26.568C177.66 27.4107 177.846 28.0667 178.22 28.536C178.593 28.9947 179.1 29.224 179.74 29.224C180.646 29.224 181.238 28.8187 181.516 28.008H183.932C183.686 28.968 183.201 29.7307 182.476 30.296C181.75 30.8613 180.844 31.144 179.756 31.144C178.902 31.144 178.145 30.9573 177.484 30.584C176.822 30.2 176.305 29.6667 175.932 28.984C175.558 28.2907 175.372 27.4853 175.372 26.568ZM186.709 21.08C186.314 21.08 185.983 20.9573 185.717 20.712C185.461 20.456 185.333 20.1413 185.333 19.768C185.333 19.3947 185.461 19.0853 185.717 18.84C185.983 18.584 186.314 18.456 186.709 18.456C187.103 18.456 187.429 18.584 187.685 18.84C187.951 19.0853 188.085 19.3947 188.085 19.768C188.085 20.1413 187.951 20.456 187.685 20.712C187.429 20.9573 187.103 21.08 186.709 21.08ZM187.813 22.136V31H185.573V22.136H187.813ZM194.938 22.008C195.994 22.008 196.847 22.344 197.498 23.016C198.149 23.6773 198.474 24.6053 198.474 25.8V31H196.234V26.104C196.234 25.4 196.058 24.8613 195.706 24.488C195.354 24.104 194.874 23.912 194.266 23.912C193.647 23.912 193.157 24.104 192.794 24.488C192.442 24.8613 192.266 25.4 192.266 26.104V31H190.026V22.136H192.266V23.24C192.565 22.856 192.943 22.5573 193.402 22.344C193.871 22.12 194.383 22.008 194.938 22.008ZM208.844 26.376C208.844 26.696 208.823 26.984 208.78 27.24H202.3C202.353 27.88 202.577 28.3813 202.972 28.744C203.367 29.1067 203.852 29.288 204.428 29.288C205.26 29.288 205.852 28.9307 206.204 28.216H208.62C208.364 29.0693 207.873 29.7733 207.148 30.328C206.423 30.872 205.532 31.144 204.476 31.144C203.623 31.144 202.855 30.9573 202.172 30.584C201.5 30.2 200.972 29.6613 200.588 28.968C200.215 28.2747 200.028 27.4747 200.028 26.568C200.028 25.6507 200.215 24.8453 200.588 24.152C200.961 23.4587 201.484 22.9253 202.156 22.552C202.828 22.1787 203.601 21.992 204.476 21.992C205.319 21.992 206.071 22.1733 206.732 22.536C207.404 22.8987 207.921 23.416 208.284 24.088C208.657 24.7493 208.844 25.512 208.844 26.376ZM206.524 25.736C206.513 25.16 206.305 24.7013 205.9 24.36C205.495 24.008 204.999 23.832 204.412 23.832C203.857 23.832 203.388 24.0027 203.004 24.344C202.631 24.6747 202.401 25.1387 202.316 25.736H206.524ZM213.871 31.144C213.146 31.144 212.495 31.016 211.919 30.76C211.343 30.4933 210.884 30.136 210.543 29.688C210.212 29.24 210.031 28.744 209.999 28.2H212.255C212.298 28.5413 212.463 28.824 212.751 29.048C213.05 29.272 213.418 29.384 213.855 29.384C214.282 29.384 214.612 29.2987 214.847 29.128C215.092 28.9573 215.215 28.7387 215.215 28.472C215.215 28.184 215.066 27.9707 214.767 27.832C214.479 27.6827 214.015 27.5227 213.375 27.352C212.714 27.192 212.17 27.0267 211.743 26.856C211.327 26.6853 210.964 26.424 210.655 26.072C210.356 25.72 210.207 25.2453 210.207 24.648C210.207 24.1573 210.346 23.7093 210.623 23.304C210.911 22.8987 211.316 22.5787 211.839 22.344C212.372 22.1093 212.996 21.992 213.711 21.992C214.767 21.992 215.61 22.2587 216.239 22.792C216.868 23.3147 217.215 24.024 217.279 24.92H215.135C215.103 24.568 214.954 24.2907 214.687 24.088C214.431 23.8747 214.084 23.768 213.647 23.768C213.242 23.768 212.927 23.8427 212.703 23.992C212.49 24.1413 212.383 24.3493 212.383 24.616C212.383 24.9147 212.532 25.144 212.831 25.304C213.13 25.4533 213.594 25.608 214.223 25.768C214.863 25.928 215.391 26.0933 215.807 26.264C216.223 26.4347 216.58 26.7013 216.879 27.064C217.188 27.416 217.348 27.8853 217.359 28.472C217.359 28.984 217.215 29.4427 216.927 29.848C216.65 30.2533 216.244 30.5733 215.711 30.808C215.188 31.032 214.575 31.144 213.871 31.144Z" fill="#0D0F0F"/>
<path d="M66.612 51.124C67.628 50.308 68.424 49.64 69 49.12C69.576 48.592 70.06 48.044 70.452 47.476C70.852 46.9 71.052 46.336 71.052 45.784C71.052 45.264 70.924 44.856 70.668 44.56C70.42 44.256 70.016 44.104 69.456 44.104C68.912 44.104 68.488 44.276 68.184 44.62C67.888 44.956 67.728 45.408 67.704 45.976H66.648C66.68 45.08 66.952 44.388 67.464 43.9C67.976 43.412 68.636 43.168 69.444 43.168C70.268 43.168 70.92 43.396 71.4 43.852C71.888 44.308 72.132 44.936 72.132 45.736C72.132 46.4 71.932 47.048 71.532 47.68C71.14 48.304 70.692 48.856 70.188 49.336C69.684 49.808 69.04 50.36 68.256 50.992H72.384V51.904H66.612V51.124ZM77.9063 40.696L74.6183 54.04H73.5383L76.8143 40.696H77.9063ZM79.2214 51.124C80.2374 50.308 81.0334 49.64 81.6094 49.12C82.1854 48.592 82.6694 48.044 83.0614 47.476C83.4614 46.9 83.6614 46.336 83.6614 45.784C83.6614 45.264 83.5334 44.856 83.2774 44.56C83.0294 44.256 82.6254 44.104 82.0654 44.104C81.5214 44.104 81.0974 44.276 80.7934 44.62C80.4974 44.956 80.3374 45.408 80.3134 45.976H79.2574C79.2894 45.08 79.5614 44.388 80.0734 43.9C80.5854 43.412 81.2454 43.168 82.0534 43.168C82.8774 43.168 83.5294 43.396 84.0094 43.852C84.4974 44.308 84.7414 44.936 84.7414 45.736C84.7414 46.4 84.5414 47.048 84.1414 47.68C83.7494 48.304 83.3014 48.856 82.7974 49.336C82.2934 49.808 81.6494 50.36 80.8654 50.992H84.9934V51.904H79.2214V51.124ZM92.0829 50.992L94.1229 45.424H95.2869L92.7069 52H91.4349L88.8549 45.424H90.0309L92.0829 50.992ZM95.9535 48.688C95.9535 48.016 96.0895 47.428 96.3615 46.924C96.6335 46.412 97.0055 46.016 97.4775 45.736C97.9575 45.456 98.4895 45.316 99.0735 45.316C99.6495 45.316 100.15 45.44 100.574 45.688C100.998 45.936 101.314 46.248 101.522 46.624V45.424H102.626V52H101.522V50.776C101.306 51.16 100.982 51.48 100.55 51.736C100.126 51.984 99.6295 52.108 99.0615 52.108C98.4775 52.108 97.9495 51.964 97.4775 51.676C97.0055 51.388 96.6335 50.984 96.3615 50.464C96.0895 49.944 95.9535 49.352 95.9535 48.688ZM101.522 48.7C101.522 48.204 101.422 47.772 101.222 47.404C101.022 47.036 100.75 46.756 100.406 46.564C100.07 46.364 99.6975 46.264 99.2895 46.264C98.8815 46.264 98.5095 46.36 98.1735 46.552C97.8375 46.744 97.5695 47.024 97.3695 47.392C97.1695 47.76 97.0695 48.192 97.0695 48.688C97.0695 49.192 97.1695 49.632 97.3695 50.008C97.5695 50.376 97.8375 50.66 98.1735 50.86C98.5095 51.052 98.8815 51.148 99.2895 51.148C99.6975 51.148 100.07 51.052 100.406 50.86C100.75 50.66 101.022 50.376 101.222 50.008C101.422 49.632 101.522 49.196 101.522 48.7ZM104.063 48.7C104.063 48.02 104.199 47.428 104.471 46.924C104.743 46.412 105.119 46.016 105.599 45.736C106.087 45.456 106.643 45.316 107.267 45.316C108.075 45.316 108.739 45.512 109.259 45.904C109.787 46.296 110.135 46.84 110.303 47.536H109.127C109.015 47.136 108.795 46.82 108.467 46.588C108.147 46.356 107.747 46.24 107.267 46.24C106.643 46.24 106.139 46.456 105.755 46.888C105.371 47.312 105.179 47.916 105.179 48.7C105.179 49.492 105.371 50.104 105.755 50.536C106.139 50.968 106.643 51.184 107.267 51.184C107.747 51.184 108.147 51.072 108.467 50.848C108.787 50.624 109.007 50.304 109.127 49.888H110.303C110.127 50.56 109.775 51.1 109.247 51.508C108.719 51.908 108.059 52.108 107.267 52.108C106.643 52.108 106.087 51.968 105.599 51.688C105.119 51.408 104.743 51.012 104.471 50.5C104.199 49.988 104.063 49.388 104.063 48.7ZM111.352 48.7C111.352 48.02 111.488 47.428 111.76 46.924C112.032 46.412 112.408 46.016 112.888 45.736C113.376 45.456 113.932 45.316 114.556 45.316C115.364 45.316 116.028 45.512 116.548 45.904C117.076 46.296 117.424 46.84 117.592 47.536H116.416C116.304 47.136 116.084 46.82 115.756 46.588C115.436 46.356 115.036 46.24 114.556 46.24C113.932 46.24 113.428 46.456 113.044 46.888C112.66 47.312 112.468 47.916 112.468 48.7C112.468 49.492 112.66 50.104 113.044 50.536C113.428 50.968 113.932 51.184 114.556 51.184C115.036 51.184 115.436 51.072 115.756 50.848C116.076 50.624 116.296 50.304 116.416 49.888H117.592C117.416 50.56 117.064 51.1 116.536 51.508C116.008 51.908 115.348 52.108 114.556 52.108C113.932 52.108 113.376 51.968 112.888 51.688C112.408 51.408 112.032 51.012 111.76 50.5C111.488 49.988 111.352 49.388 111.352 48.7ZM119.613 44.356C119.405 44.356 119.229 44.284 119.085 44.14C118.941 43.996 118.869 43.82 118.869 43.612C118.869 43.404 118.941 43.228 119.085 43.084C119.229 42.94 119.405 42.868 119.613 42.868C119.813 42.868 119.981 42.94 120.117 43.084C120.261 43.228 120.333 43.404 120.333 43.612C120.333 43.82 120.261 43.996 120.117 44.14C119.981 44.284 119.813 44.356 119.613 44.356ZM120.141 45.424V52H119.049V45.424H120.141ZM125.206 45.304C126.006 45.304 126.654 45.548 127.15 46.036C127.646 46.516 127.894 47.212 127.894 48.124V52H126.814V48.28C126.814 47.624 126.65 47.124 126.322 46.78C125.994 46.428 125.546 46.252 124.978 46.252C124.402 46.252 123.942 46.432 123.598 46.792C123.262 47.152 123.094 47.676 123.094 48.364V52H122.002V45.424H123.094V46.36C123.31 46.024 123.602 45.764 123.97 45.58C124.346 45.396 124.758 45.304 125.206 45.304ZM135.678 48.46C135.678 48.668 135.666 48.888 135.642 49.12H130.386C130.426 49.768 130.646 50.276 131.046 50.644C131.454 51.004 131.946 51.184 132.522 51.184C132.994 51.184 133.386 51.076 133.698 50.86C134.018 50.636 134.242 50.34 134.37 49.972H135.546C135.37 50.604 135.018 51.12 134.49 51.52C133.962 51.912 133.306 52.108 132.522 52.108C131.898 52.108 131.338 51.968 130.842 51.688C130.354 51.408 129.97 51.012 129.69 50.5C129.41 49.98 129.27 49.38 129.27 48.7C129.27 48.02 129.406 47.424 129.678 46.912C129.95 46.4 130.33 46.008 130.818 45.736C131.314 45.456 131.882 45.316 132.522 45.316C133.146 45.316 133.698 45.452 134.178 45.724C134.658 45.996 135.026 46.372 135.282 46.852C135.546 47.324 135.678 47.86 135.678 48.46ZM134.55 48.232C134.55 47.816 134.458 47.46 134.274 47.164C134.09 46.86 133.838 46.632 133.518 46.48C133.206 46.32 132.858 46.24 132.474 46.24C131.922 46.24 131.45 46.416 131.058 46.768C130.674 47.12 130.454 47.608 130.398 48.232H134.55ZM139.447 52.108C138.943 52.108 138.491 52.024 138.091 51.856C137.691 51.68 137.375 51.44 137.143 51.136C136.911 50.824 136.783 50.468 136.759 50.068H137.887C137.919 50.396 138.071 50.664 138.343 50.872C138.623 51.08 138.987 51.184 139.435 51.184C139.851 51.184 140.179 51.092 140.419 50.908C140.659 50.724 140.779 50.492 140.779 50.212C140.779 49.924 140.651 49.712 140.395 49.576C140.139 49.432 139.743 49.292 139.207 49.156C138.719 49.028 138.319 48.9 138.007 48.772C137.703 48.636 137.439 48.44 137.215 48.184C136.999 47.92 136.891 47.576 136.891 47.152C136.891 46.816 136.991 46.508 137.191 46.228C137.391 45.948 137.675 45.728 138.043 45.568C138.411 45.4 138.831 45.316 139.303 45.316C140.031 45.316 140.619 45.5 141.067 45.868C141.515 46.236 141.755 46.74 141.787 47.38H140.695C140.671 47.036 140.531 46.76 140.275 46.552C140.027 46.344 139.691 46.24 139.267 46.24C138.875 46.24 138.563 46.324 138.331 46.492C138.099 46.66 137.983 46.88 137.983 47.152C137.983 47.368 138.051 47.548 138.187 47.692C138.331 47.828 138.507 47.94 138.715 48.028C138.931 48.108 139.227 48.2 139.603 48.304C140.075 48.432 140.459 48.56 140.755 48.688C141.051 48.808 141.303 48.992 141.511 49.24C141.727 49.488 141.839 49.812 141.847 50.212C141.847 50.572 141.747 50.896 141.547 51.184C141.347 51.472 141.063 51.7 140.695 51.868C140.335 52.028 139.919 52.108 139.447 52.108ZM146.18 48.7C146.18 48.02 146.316 47.428 146.588 46.924C146.86 46.412 147.236 46.016 147.716 45.736C148.204 45.456 148.76 45.316 149.384 45.316C150.192 45.316 150.856 45.512 151.376 45.904C151.904 46.296 152.252 46.84 152.42 47.536H151.244C151.132 47.136 150.912 46.82 150.584 46.588C150.264 46.356 149.864 46.24 149.384 46.24C148.76 46.24 148.256 46.456 147.872 46.888C147.488 47.312 147.296 47.916 147.296 48.7C147.296 49.492 147.488 50.104 147.872 50.536C148.256 50.968 148.76 51.184 149.384 51.184C149.864 51.184 150.264 51.072 150.584 50.848C150.904 50.624 151.124 50.304 151.244 49.888H152.42C152.244 50.56 151.892 51.1 151.364 51.508C150.836 51.908 150.176 52.108 149.384 52.108C148.76 52.108 148.204 51.968 147.716 51.688C147.236 51.408 146.86 51.012 146.588 50.5C146.316 49.988 146.18 49.388 146.18 48.7ZM156.745 52.108C156.129 52.108 155.569 51.968 155.065 51.688C154.569 51.408 154.177 51.012 153.889 50.5C153.609 49.98 153.469 49.38 153.469 48.7C153.469 48.028 153.613 47.436 153.901 46.924C154.197 46.404 154.597 46.008 155.101 45.736C155.605 45.456 156.169 45.316 156.793 45.316C157.417 45.316 157.981 45.456 158.485 45.736C158.989 46.008 159.385 46.4 159.673 46.912C159.969 47.424 160.117 48.02 160.117 48.7C160.117 49.38 159.965 49.98 159.661 50.5C159.365 51.012 158.961 51.408 158.449 51.688C157.937 51.968 157.369 52.108 156.745 52.108ZM156.745 51.148C157.137 51.148 157.505 51.056 157.849 50.872C158.193 50.688 158.469 50.412 158.677 50.044C158.893 49.676 159.001 49.228 159.001 48.7C159.001 48.172 158.897 47.724 158.689 47.356C158.481 46.988 158.209 46.716 157.873 46.54C157.537 46.356 157.173 46.264 156.781 46.264C156.381 46.264 156.013 46.356 155.677 46.54C155.349 46.716 155.085 46.988 154.885 47.356C154.685 47.724 154.585 48.172 154.585 48.7C154.585 49.236 154.681 49.688 154.873 50.056C155.073 50.424 155.337 50.7 155.665 50.884C155.993 51.06 156.353 51.148 156.745 51.148ZM169.461 45.304C169.973 45.304 170.429 45.412 170.829 45.628C171.229 45.836 171.545 46.152 171.777 46.576C172.009 47 172.125 47.516 172.125 48.124V52H171.045V48.28C171.045 47.624 170.881 47.124 170.553 46.78C170.233 46.428 169.797 46.252 169.245 46.252C168.677 46.252 168.225 46.436 167.889 46.804C167.553 47.164 167.385 47.688 167.385 48.376V52H166.305V48.28C166.305 47.624 166.141 47.124 165.813 46.78C165.493 46.428 165.057 46.252 164.505 46.252C163.937 46.252 163.485 46.436 163.149 46.804C162.813 47.164 162.645 47.688 162.645 48.376V52H161.553V45.424H162.645V46.372C162.861 46.028 163.149 45.764 163.509 45.58C163.877 45.396 164.281 45.304 164.721 45.304C165.273 45.304 165.761 45.428 166.185 45.676C166.609 45.924 166.925 46.288 167.133 46.768C167.317 46.304 167.621 45.944 168.045 45.688C168.469 45.432 168.941 45.304 169.461 45.304ZM175.008 46.636C175.224 46.26 175.544 45.948 175.968 45.7C176.4 45.444 176.9 45.316 177.468 45.316C178.052 45.316 178.58 45.456 179.052 45.736C179.532 46.016 179.908 46.412 180.18 46.924C180.452 47.428 180.588 48.016 180.588 48.688C180.588 49.352 180.452 49.944 180.18 50.464C179.908 50.984 179.532 51.388 179.052 51.676C178.58 51.964 178.052 52.108 177.468 52.108C176.908 52.108 176.412 51.984 175.98 51.736C175.556 51.48 175.232 51.164 175.008 50.788V55.12H173.916V45.424H175.008V46.636ZM179.472 48.688C179.472 48.192 179.372 47.76 179.172 47.392C178.972 47.024 178.7 46.744 178.356 46.552C178.02 46.36 177.648 46.264 177.24 46.264C176.84 46.264 176.468 46.364 176.124 46.564C175.788 46.756 175.516 47.04 175.308 47.416C175.108 47.784 175.008 48.212 175.008 48.7C175.008 49.196 175.108 49.632 175.308 50.008C175.516 50.376 175.788 50.66 176.124 50.86C176.468 51.052 176.84 51.148 177.24 51.148C177.648 51.148 178.02 51.052 178.356 50.86C178.7 50.66 178.972 50.376 179.172 50.008C179.372 49.632 179.472 49.192 179.472 48.688ZM183.118 43.12V52H182.026V43.12H183.118ZM190.979 48.46C190.979 48.668 190.967 48.888 190.943 49.12H185.687C185.727 49.768 185.947 50.276 186.347 50.644C186.755 51.004 187.247 51.184 187.823 51.184C188.295 51.184 188.687 51.076 188.999 50.86C189.319 50.636 189.543 50.34 189.671 49.972H190.847C190.671 50.604 190.319 51.12 189.791 51.52C189.263 51.912 188.607 52.108 187.823 52.108C187.199 52.108 186.639 51.968 186.143 51.688C185.655 51.408 185.271 51.012 184.991 50.5C184.711 49.98 184.571 49.38 184.571 48.7C184.571 48.02 184.707 47.424 184.979 46.912C185.251 46.4 185.631 46.008 186.119 45.736C186.615 45.456 187.183 45.316 187.823 45.316C188.447 45.316 188.999 45.452 189.479 45.724C189.959 45.996 190.327 46.372 190.583 46.852C190.847 47.324 190.979 47.86 190.979 48.46ZM189.851 48.232C189.851 47.816 189.759 47.46 189.575 47.164C189.391 46.86 189.139 46.632 188.819 46.48C188.507 46.32 188.159 46.24 187.775 46.24C187.223 46.24 186.751 46.416 186.359 46.768C185.975 47.12 185.755 47.608 185.699 48.232H189.851ZM193.752 46.324V50.2C193.752 50.52 193.82 50.748 193.956 50.884C194.092 51.012 194.328 51.076 194.664 51.076H195.468V52H194.484C193.876 52 193.42 51.86 193.116 51.58C192.812 51.3 192.66 50.84 192.66 50.2V46.324H191.808V45.424H192.66V43.768H193.752V45.424H195.468V46.324H193.752ZM202.791 48.46C202.791 48.668 202.779 48.888 202.755 49.12H197.499C197.539 49.768 197.759 50.276 198.159 50.644C198.567 51.004 199.059 51.184 199.635 51.184C200.107 51.184 200.499 51.076 200.811 50.86C201.131 50.636 201.355 50.34 201.483 49.972H202.659C202.483 50.604 202.131 51.12 201.603 51.52C201.075 51.912 200.419 52.108 199.635 52.108C199.011 52.108 198.451 51.968 197.955 51.688C197.467 51.408 197.083 51.012 196.803 50.5C196.523 49.98 196.383 49.38 196.383 48.7C196.383 48.02 196.519 47.424 196.791 46.912C197.063 46.4 197.443 46.008 197.931 45.736C198.427 45.456 198.995 45.316 199.635 45.316C200.259 45.316 200.811 45.452 201.291 45.724C201.771 45.996 202.139 46.372 202.395 46.852C202.659 47.324 202.791 47.86 202.791 48.46ZM201.663 48.232C201.663 47.816 201.571 47.46 201.387 47.164C201.203 46.86 200.951 46.632 200.631 46.48C200.319 46.32 199.971 46.24 199.587 46.24C199.035 46.24 198.563 46.416 198.171 46.768C197.787 47.12 197.567 47.608 197.511 48.232H201.663ZM203.825 48.688C203.825 48.016 203.961 47.428 204.233 46.924C204.505 46.412 204.877 46.016 205.349 45.736C205.829 45.456 206.365 45.316 206.957 45.316C207.469 45.316 207.945 45.436 208.385 45.676C208.825 45.908 209.161 46.216 209.393 46.6V43.12H210.497V52H209.393V50.764C209.177 51.156 208.857 51.48 208.433 51.736C208.009 51.984 207.513 52.108 206.945 52.108C206.361 52.108 205.829 51.964 205.349 51.676C204.877 51.388 204.505 50.984 204.233 50.464C203.961 49.944 203.825 49.352 203.825 48.688ZM209.393 48.7C209.393 48.204 209.293 47.772 209.093 47.404C208.893 47.036 208.621 46.756 208.277 46.564C207.941 46.364 207.569 46.264 207.161 46.264C206.753 46.264 206.381 46.36 206.045 46.552C205.709 46.744 205.441 47.024 205.241 47.392C205.041 47.76 204.941 48.192 204.941 48.688C204.941 49.192 205.041 49.632 205.241 50.008C205.441 50.376 205.709 50.66 206.045 50.86C206.381 51.052 206.753 51.148 207.161 51.148C207.569 51.148 207.941 51.052 208.277 50.86C208.621 50.66 208.893 50.376 209.093 50.008C209.293 49.632 209.393 49.196 209.393 48.7Z" fill="#727979"/>
<path d="M250 36.5C250 30.4249 254.925 25.5 261 25.5H323C329.075 25.5 334 30.4249 334 36.5C334 42.5751 329.075 47.5 323 47.5H261C254.925 47.5 250 42.5751 250 36.5Z" fill="#1D9C3D" fill-opacity="0.1"/>
<path d="M261 26H323C328.799 26 333.5 30.701 333.5 36.5C333.5 42.299 328.799 47 323 47H261C255.201 47 250.5 42.299 250.5 36.5C250.5 30.701 255.201 26 261 26Z" stroke="#1D9C3D" stroke-opacity="0.1"/>
<path d="M258.649 36.312C258.649 35.496 258.833 34.764 259.201 34.116C259.569 33.46 260.069 32.948 260.701 32.58C261.341 32.212 262.049 32.028 262.825 32.028C263.737 32.028 264.533 32.248 265.213 32.688C265.893 33.128 266.389 33.752 266.701 34.56H265.393C265.161 34.056 264.825 33.668 264.385 33.396C263.953 33.124 263.433 32.988 262.825 32.988C262.241 32.988 261.717 33.124 261.253 33.396C260.789 33.668 260.425 34.056 260.161 34.56C259.897 35.056 259.765 35.64 259.765 36.312C259.765 36.976 259.897 37.56 260.161 38.064C260.425 38.56 260.789 38.944 261.253 39.216C261.717 39.488 262.241 39.624 262.825 39.624C263.433 39.624 263.953 39.492 264.385 39.228C264.825 38.956 265.161 38.568 265.393 38.064H266.701C266.389 38.864 265.893 39.484 265.213 39.924C264.533 40.356 263.737 40.572 262.825 40.572C262.049 40.572 261.341 40.392 260.701 40.032C260.069 39.664 259.569 39.156 259.201 38.508C258.833 37.86 258.649 37.128 258.649 36.312ZM271.194 40.608C270.578 40.608 270.018 40.468 269.514 40.188C269.018 39.908 268.626 39.512 268.338 39C268.058 38.48 267.918 37.88 267.918 37.2C267.918 36.528 268.062 35.936 268.35 35.424C268.646 34.904 269.046 34.508 269.55 34.236C270.054 33.956 270.618 33.816 271.242 33.816C271.866 33.816 272.43 33.956 272.934 34.236C273.438 34.508 273.834 34.9 274.122 35.412C274.418 35.924 274.566 36.52 274.566 37.2C274.566 37.88 274.414 38.48 274.11 39C273.814 39.512 273.41 39.908 272.898 40.188C272.386 40.468 271.818 40.608 271.194 40.608ZM271.194 39.648C271.586 39.648 271.954 39.556 272.298 39.372C272.642 39.188 272.918 38.912 273.126 38.544C273.342 38.176 273.45 37.728 273.45 37.2C273.45 36.672 273.346 36.224 273.138 35.856C272.93 35.488 272.658 35.216 272.322 35.04C271.986 34.856 271.622 34.764 271.23 34.764C270.83 34.764 270.462 34.856 270.126 35.04C269.798 35.216 269.534 35.488 269.334 35.856C269.134 36.224 269.034 36.672 269.034 37.2C269.034 37.736 269.13 38.188 269.322 38.556C269.522 38.924 269.786 39.2 270.114 39.384C270.442 39.56 270.802 39.648 271.194 39.648ZM283.91 33.804C284.422 33.804 284.878 33.912 285.278 34.128C285.678 34.336 285.994 34.652 286.226 35.076C286.458 35.5 286.574 36.016 286.574 36.624V40.5H285.494V36.78C285.494 36.124 285.33 35.624 285.002 35.28C284.682 34.928 284.246 34.752 283.694 34.752C283.126 34.752 282.674 34.936 282.338 35.304C282.002 35.664 281.834 36.188 281.834 36.876V40.5H280.754V36.78C280.754 36.124 280.59 35.624 280.262 35.28C279.942 34.928 279.506 34.752 278.954 34.752C278.386 34.752 277.934 34.936 277.598 35.304C277.262 35.664 277.094 36.188 277.094 36.876V40.5H276.002V33.924H277.094V34.872C277.31 34.528 277.598 34.264 277.958 34.08C278.326 33.896 278.73 33.804 279.17 33.804C279.722 33.804 280.21 33.928 280.634 34.176C281.058 34.424 281.374 34.788 281.582 35.268C281.766 34.804 282.07 34.444 282.494 34.188C282.918 33.932 283.39 33.804 283.91 33.804ZM289.457 35.136C289.673 34.76 289.993 34.448 290.417 34.2C290.849 33.944 291.349 33.816 291.917 33.816C292.501 33.816 293.029 33.956 293.501 34.236C293.981 34.516 294.357 34.912 294.629 35.424C294.901 35.928 295.037 36.516 295.037 37.188C295.037 37.852 294.901 38.444 294.629 38.964C294.357 39.484 293.981 39.888 293.501 40.176C293.029 40.464 292.501 40.608 291.917 40.608C291.357 40.608 290.861 40.484 290.429 40.236C290.005 39.98 289.681 39.664 289.457 39.288V43.62H288.365V33.924H289.457V35.136ZM293.921 37.188C293.921 36.692 293.821 36.26 293.621 35.892C293.421 35.524 293.149 35.244 292.805 35.052C292.469 34.86 292.097 34.764 291.689 34.764C291.289 34.764 290.917 34.864 290.573 35.064C290.237 35.256 289.965 35.54 289.757 35.916C289.557 36.284 289.457 36.712 289.457 37.2C289.457 37.696 289.557 38.132 289.757 38.508C289.965 38.876 290.237 39.16 290.573 39.36C290.917 39.552 291.289 39.648 291.689 39.648C292.097 39.648 292.469 39.552 292.805 39.36C293.149 39.16 293.421 38.876 293.621 38.508C293.821 38.132 293.921 37.692 293.921 37.188ZM297.567 31.62V40.5H296.475V31.62H297.567ZM305.428 36.96C305.428 37.168 305.416 37.388 305.392 37.62H300.136C300.176 38.268 300.396 38.776 300.796 39.144C301.204 39.504 301.696 39.684 302.272 39.684C302.744 39.684 303.136 39.576 303.448 39.36C303.768 39.136 303.992 38.84 304.12 38.472H305.296C305.12 39.104 304.768 39.62 304.24 40.02C303.712 40.412 303.056 40.608 302.272 40.608C301.648 40.608 301.088 40.468 300.592 40.188C300.104 39.908 299.72 39.512 299.44 39C299.16 38.48 299.02 37.88 299.02 37.2C299.02 36.52 299.156 35.924 299.428 35.412C299.7 34.9 300.08 34.508 300.568 34.236C301.064 33.956 301.632 33.816 302.272 33.816C302.896 33.816 303.448 33.952 303.928 34.224C304.408 34.496 304.776 34.872 305.032 35.352C305.296 35.824 305.428 36.36 305.428 36.96ZM304.3 36.732C304.3 36.316 304.208 35.96 304.024 35.664C303.84 35.36 303.588 35.132 303.268 34.98C302.956 34.82 302.608 34.74 302.224 34.74C301.672 34.74 301.2 34.916 300.808 35.268C300.424 35.62 300.204 36.108 300.148 36.732H304.3ZM308.201 34.824V38.7C308.201 39.02 308.269 39.248 308.405 39.384C308.541 39.512 308.777 39.576 309.113 39.576H309.917V40.5H308.933C308.325 40.5 307.869 40.36 307.565 40.08C307.261 39.8 307.109 39.34 307.109 38.7V34.824H306.257V33.924H307.109V32.268H308.201V33.924H309.917V34.824H308.201ZM317.24 36.96C317.24 37.168 317.228 37.388 317.204 37.62H311.948C311.988 38.268 312.208 38.776 312.608 39.144C313.016 39.504 313.508 39.684 314.084 39.684C314.556 39.684 314.948 39.576 315.26 39.36C315.58 39.136 315.804 38.84 315.932 38.472H317.108C316.932 39.104 316.58 39.62 316.052 40.02C315.524 40.412 314.868 40.608 314.084 40.608C313.46 40.608 312.9 40.468 312.404 40.188C311.916 39.908 311.532 39.512 311.252 39C310.972 38.48 310.832 37.88 310.832 37.2C310.832 36.52 310.968 35.924 311.24 35.412C311.512 34.9 311.892 34.508 312.38 34.236C312.876 33.956 313.444 33.816 314.084 33.816C314.708 33.816 315.26 33.952 315.74 34.224C316.22 34.496 316.588 34.872 316.844 35.352C317.108 35.824 317.24 36.36 317.24 36.96ZM316.112 36.732C316.112 36.316 316.02 35.96 315.836 35.664C315.652 35.36 315.4 35.132 315.08 34.98C314.768 34.82 314.42 34.74 314.036 34.74C313.484 34.74 313.012 34.916 312.62 35.268C312.236 35.62 312.016 36.108 311.96 36.732H316.112ZM318.274 37.188C318.274 36.516 318.41 35.928 318.682 35.424C318.954 34.912 319.326 34.516 319.798 34.236C320.278 33.956 320.814 33.816 321.406 33.816C321.918 33.816 322.394 33.936 322.834 34.176C323.274 34.408 323.61 34.716 323.842 35.1V31.62H324.946V40.5H323.842V39.264C323.626 39.656 323.306 39.98 322.882 40.236C322.458 40.484 321.962 40.608 321.394 40.608C320.81 40.608 320.278 40.464 319.798 40.176C319.326 39.888 318.954 39.484 318.682 38.964C318.41 38.444 318.274 37.852 318.274 37.188ZM323.842 37.2C323.842 36.704 323.742 36.272 323.542 35.904C323.342 35.536 323.07 35.256 322.726 35.064C322.39 34.864 322.018 34.764 321.61 34.764C321.202 34.764 320.83 34.86 320.494 35.052C320.158 35.244 319.89 35.524 319.69 35.892C319.49 36.26 319.39 36.692 319.39 37.188C319.39 37.692 319.49 38.132 319.69 38.508C319.89 38.876 320.158 39.16 320.494 39.36C320.83 39.552 321.202 39.648 321.61 39.648C322.018 39.648 322.39 39.552 322.726 39.36C323.07 39.16 323.342 38.876 323.542 38.508C323.742 38.132 323.842 37.696 323.842 37.2Z" fill="#1D9C3D"/>
</g>
<defs>
<filter id="filter0_f_2098_213901" x="266.053" y="-4.44141" width="65.125" height="65.125" filterUnits="userSpaceOnUse" color-interpolation-filters="sRGB">
<feFlood flood-opacity="0" result="BackgroundImageFix"/>
<feBlend mode="normal" in="SourceGraphic" in2="BackgroundImageFix" result="shape"/>
<feGaussianBlur stdDeviation="3" result="effect1_foregroundBlur_2098_213901"/>
</filter>
<filter id="filter1_f_2098_213901" x="283.916" y="-4.44141" width="65.125" height="65.125" filterUnits="userSpaceOnUse" color-interpolation-filters="sRGB">
<feFlood flood-opacity="0" result="BackgroundImageFix"/>
<feBlend mode="normal" in="SourceGraphic" in2="BackgroundImageFix" result="shape"/>
<feGaussianBlur stdDeviation="3" result="effect1_foregroundBlur_2098_213901"/>
</filter>
<filter id="filter2_f_2098_213901" x="266.053" y="-22.3047" width="65.125" height="65.125" filterUnits="userSpaceOnUse" color-interpolation-filters="sRGB">
<feFlood flood-opacity="0" result="BackgroundImageFix"/>
<feBlend mode="normal" in="SourceGraphic" in2="BackgroundImageFix" result="shape"/>
<feGaussianBlur stdDeviation="3" result="effect1_foregroundBlur_2098_213901"/>
</filter>
<filter id="filter3_f_2098_213901" x="252.655" y="-66.6367" width="142.545" height="119.711" filterUnits="userSpaceOnUse" color-interpolation-filters="sRGB">
<feFlood flood-opacity="0" result="BackgroundImageFix"/>
<feBlend mode="normal" in="SourceGraphic" in2="BackgroundImageFix" result="shape"/>
<feGaussianBlur stdDeviation="15" result="effect1_foregroundBlur_2098_213901"/>
</filter>
<filter id="filter4_d_2098_213901" x="8" y="12.5" width="56" height="56" filterUnits="userSpaceOnUse" color-interpolation-filters="sRGB">
<feFlood flood-opacity="0" result="BackgroundImageFix"/>
<feColorMatrix in="SourceAlpha" type="matrix" values="0 0 0 0 0 0 0 0 0 0 0 0 0 0 0 0 0 0 127 0" result="hardAlpha"/>
<feOffset dy="4"/>
<feGaussianBlur stdDeviation="4"/>
<feComposite in2="hardAlpha" operator="out"/>
<feColorMatrix type="matrix" values="0 0 0 0 0 0 0 0 0 0 0 0 0 0 0 0 0 0 0.03 0"/>
<feBlend mode="normal" in2="BackgroundImageFix" result="effect1_dropShadow_2098_213901"/>
<feBlend mode="normal" in="BackgroundImageFix" in2="effect1_dropShadow_2098_213901" result="BackgroundImageFix"/>
<feBlend mode="normal" in="SourceGraphic" in2="BackgroundImageFix" result="shape"/>
</filter>
<clipPath id="clip0_2098_213901">
<path d="M0 20C0 8.95431 8.95431 0 20 0H330C341.046 0 350 8.95431 350 20V53C350 64.0457 341.046 73 330 73H20C8.9543 73 0 64.0457 0 53V20Z" fill="white"/>
</clipPath>
</defs>
</svg>
