<?xml version="1.0" encoding="UTF-8"?>
<svg xmlns="http://www.w3.org/2000/svg" viewBox="0 0 64 64" width="64" height="64" fill="currentColor">
  <!-- Cat head with ears -->
  <path d="M14 8l-4 12c0 3 1 5 3 7l-1 8c0 3 2 5 5 5h30c3 0 5-2 5-5l-1-8c2-2 3-4 3-7l-4-12-8 4c-3-2-6-3-10-3s-7 1-10 3l-8-4z"/>
  
  <!-- Left eye -->
  <circle cx="24" cy="26" r="2.5"/>
  
  <!-- Right eye -->
  <circle cx="40" cy="26" r="2.5"/>
  
  <!-- Nose -->
  <path d="M26 32c0 1 1 2 2 2h8c1 0 2-1 2-2v-1h-12v1z"/>
  
  <!-- Whiskers/mouth line -->
  <path d="M32 34v4m-4-2h8" stroke="currentColor" stroke-width="2" fill="none"/>
</svg>
