<?xml version="1.0" encoding="UTF-8"?>
<svg xmlns="http://www.w3.org/2000/svg" viewBox="0 0 64 64" width="64" height="64" fill="currentColor">
  <!-- Dog face/head -->
  <path d="M32 8c-8 0-14 4-18 10-2 3-4 7-4 11 0 2 0 4 1 6 1 3 3 5 5 7 3 2 6 3 10 3h12c4 0 7-1 10-3 2-2 4-4 5-7 1-2 1-4 1-6 0-4-2-8-4-11-4-6-10-10-18-10z"/>
  
  <!-- Left eye -->
  <circle cx="23" cy="26" r="3"/>
  
  <!-- Right eye -->
  <circle cx="41" cy="26" r="3"/>
  
  <!-- Nose/mouth -->
  <path d="M32 32c-3 0-5 1-7 3l2 2c1-1 3-2 5-2s4 1 5 2l2-2c-2-2-4-3-7-3z"/>
  
  <!-- Left ear -->
  <path d="M16 14c-2-1-4-2-6-2-2 0-3 1-3 3 0 3 2 5 4 6l5-7z"/>
  
  <!-- Right ear -->
  <path d="M48 14c2-1 4-2 6-2 2 0 3 1 3 3 0 3-2 5-4 6l-5-7z"/>
</svg>
